<svg width="133" height="16" viewBox="0 0 133 16" fill="none" xmlns="http://www.w3.org/2000/svg">
<path d="M0.201739 9.96174C0.201739 9.56754 0.389565 9.2429 0.765217 8.98783C0.946087 8.87652 1.13391 8.82087 1.3287 8.82087H2.49043V11.8678C2.49971 12.0672 2.54609 12.2551 2.62957 12.4313C2.71768 12.6122 2.8313 12.7699 2.97043 12.9043C3.10957 13.0388 3.26957 13.1455 3.45043 13.2243C3.6313 13.3032 3.83072 13.3426 4.0487 13.3426H8.11826C8.30841 13.338 8.48928 13.2986 8.66087 13.2243C8.83246 13.1548 8.98551 13.0597 9.12 12.9391C9.25449 12.8186 9.36348 12.6771 9.44696 12.5148C9.53507 12.3525 9.58841 12.1809 9.60696 12H7.84696V9.70435H12.7513V12H11.9304C11.9026 12.4916 11.789 12.9507 11.5896 13.3774C11.3901 13.8087 11.1258 14.1867 10.7965 14.5113C10.4672 14.8359 10.087 15.098 9.65565 15.2974C9.22435 15.5014 8.7629 15.6151 8.2713 15.6383H3.97217C3.46203 15.629 2.98203 15.5246 2.53217 15.3252C2.08696 15.1304 1.69275 14.8661 1.34957 14.5322C1.01101 14.2029 0.73971 13.8157 0.535652 13.3704C0.331594 12.9252 0.22029 12.4475 0.201739 11.9374V9.96174ZM12.4165 9.66957H13.4809C13.3742 9.43768 13.293 9.1942 13.2374 8.93913C13.1957 8.73043 13.1701 8.51478 13.1609 8.29217H13.14V4.29913H20.973V8.29217H20.9522C20.9429 8.51478 20.9174 8.73043 20.8757 8.93913C20.82 9.1942 20.7388 9.43768 20.6322 9.66957H21.6965V11.9861H12.4165V9.66957ZM15.4635 6.59478V8.14609C15.4635 8.19246 15.4658 8.24116 15.4704 8.29217C15.4797 8.44058 15.5168 8.58435 15.5817 8.72348C15.6559 8.91362 15.758 9.07826 15.8878 9.21739C16.0223 9.35188 16.18 9.46087 16.3609 9.54435C16.5417 9.62319 16.7365 9.66493 16.9452 9.66957H17.2652C17.46 9.65101 17.6409 9.6 17.8078 9.51652C17.9748 9.42841 18.1209 9.3171 18.2461 9.18261C18.3713 9.04348 18.4733 8.8858 18.5522 8.70957C18.6078 8.57971 18.6403 8.44058 18.6496 8.29217C18.6542 8.24116 18.6565 8.19246 18.6565 8.14609V6.59478H15.4635ZM21.3991 11.993V9.67652L26.9226 9.70435V12L21.3991 11.993ZM24.6269 13.5096C24.6965 13.3426 24.7915 13.1965 24.9121 13.0713C25.0373 12.9507 25.1811 12.8533 25.3434 12.7791C25.5104 12.7096 25.6866 12.6748 25.8721 12.6748C26.0623 12.6748 26.2362 12.7096 26.3939 12.7791C26.5562 12.8533 26.6976 12.9507 26.8182 13.0713C26.9434 13.1965 27.0408 13.3426 27.1104 13.5096C27.1799 13.6765 27.2147 13.8528 27.2147 14.0383C27.2147 14.2284 27.1799 14.4046 27.1104 14.567C27.0408 14.7293 26.9434 14.8707 26.8182 14.9913C26.6976 15.1165 26.5562 15.2139 26.3939 15.2835C26.2362 15.353 26.0623 15.3878 25.8721 15.3878C25.6866 15.3878 25.5104 15.353 25.3434 15.2835C25.1811 15.2139 25.0373 15.1165 24.9121 14.9913C24.7915 14.8707 24.6965 14.7293 24.6269 14.567C24.5573 14.4046 24.5226 14.2284 24.5226 14.0383C24.5226 13.8528 24.5573 13.6765 24.6269 13.5096ZM21.5312 14.0383C21.5312 13.8528 21.566 13.6765 21.6356 13.5096C21.7052 13.3426 21.8002 13.1965 21.9208 13.0713C22.046 12.9507 22.1898 12.8533 22.3521 12.7791C22.5191 12.7096 22.6953 12.6748 22.8808 12.6748C23.071 12.6748 23.2449 12.7096 23.4026 12.7791C23.5649 12.8533 23.7063 12.9507 23.8269 13.0713C23.9521 13.1965 24.0495 13.3426 24.1191 13.5096C24.1886 13.6765 24.2234 13.8528 24.2234 14.0383C24.2234 14.2284 24.1886 14.4046 24.1191 14.567C24.0495 14.7293 23.9521 14.8707 23.8269 14.9913C23.7063 15.1165 23.5649 15.2139 23.4026 15.2835C23.2449 15.353 23.071 15.3878 22.8808 15.3878C22.6953 15.3878 22.5191 15.353 22.3521 15.2835C22.1898 15.2139 22.046 15.1165 21.9208 14.9913C21.8002 14.8707 21.7052 14.7293 21.6356 14.567C21.566 14.4046 21.5312 14.2284 21.5312 14.0383ZM27.8124 9.70435C27.6223 9.25913 27.5226 8.90667 27.5133 8.64696C27.504 8.38261 27.4994 8.22493 27.4994 8.17391C27.4994 7.76116 27.5643 7.35072 27.6942 6.94261C27.8287 6.53449 28.042 6.14493 28.3342 5.77391C28.6263 5.4029 28.9881 5.09217 29.4194 4.84174C29.8739 4.57739 30.2658 4.42667 30.595 4.38956C30.9289 4.35246 31.1724 4.33391 31.3255 4.33391C31.6687 4.33391 32.0397 4.38725 32.4385 4.49391C32.842 4.60058 33.2478 4.80696 33.6559 5.11304C34.064 5.41913 34.4026 5.80174 34.6715 6.26087C34.8524 6.57623 34.9823 6.89391 35.0611 7.21391C35.14 7.53391 35.1794 7.84696 35.1794 8.15304C35.1794 8.19014 35.1794 8.22493 35.1794 8.25739C35.1933 8.45681 35.2443 8.64464 35.3324 8.82087C35.4205 8.99246 35.5318 9.14319 35.6663 9.27304C35.8055 9.4029 35.9631 9.50725 36.1394 9.58609C36.3202 9.66493 36.5127 9.70435 36.7168 9.70435V12C36.1973 12 35.7104 11.898 35.2559 11.6939C34.8014 11.4899 34.4026 11.2232 34.0594 10.8939C33.8275 11.1258 33.5631 11.3275 33.2663 11.4991C32.9139 11.6986 32.5753 11.8354 32.2507 11.9096C31.9307 11.9791 31.6385 12.0139 31.3742 12.0139C31.2629 12.0139 31.1515 12.0093 31.0402 12H26.7481L26.6855 9.70435H27.8124ZM29.7811 8.57739C29.8321 8.76754 29.9179 8.94377 30.0385 9.10609C30.1591 9.26841 30.3098 9.4029 30.4907 9.50957C30.6947 9.62087 30.8942 9.6858 31.0889 9.70435H31.4507C31.6918 9.67188 31.9121 9.59304 32.1115 9.46783C32.3156 9.33797 32.4872 9.15942 32.6263 8.93217C32.7284 8.7513 32.7863 8.59826 32.8002 8.47304C32.8142 8.34319 32.8211 8.24812 32.8211 8.18783C32.8211 8.0487 32.7979 7.89797 32.7515 7.73565C32.7098 7.57333 32.6263 7.41101 32.5011 7.2487C32.3805 7.08174 32.2275 6.94493 32.042 6.83826C31.8611 6.73159 31.7034 6.6713 31.5689 6.65739C31.4344 6.63884 31.3371 6.62957 31.2768 6.62957C31.1423 6.62957 30.9939 6.65043 30.8315 6.69217C30.6739 6.73391 30.5115 6.81739 30.3446 6.94261C30.1823 7.06319 30.0455 7.21855 29.9342 7.4087C29.8275 7.58957 29.7649 7.74725 29.7463 7.88174C29.7324 8.01623 29.7255 8.11362 29.7255 8.17391C29.7255 8.31304 29.744 8.44754 29.7811 8.57739ZM30.1568 1.53043C30.2263 1.36348 30.3214 1.21971 30.442 1.09913C30.5672 0.973913 30.711 0.876522 30.8733 0.806956C31.0402 0.732753 31.2165 0.695652 31.402 0.695652C31.5921 0.695652 31.766 0.732753 31.9237 0.806956C32.086 0.876522 32.2275 0.973913 32.3481 1.09913C32.4733 1.21971 32.5707 1.36348 32.6402 1.53043C32.7098 1.69739 32.7446 1.87362 32.7446 2.05913C32.7446 2.24928 32.7098 2.42783 32.6402 2.59478C32.5707 2.7571 32.4733 2.89855 32.3481 3.01913C32.2275 3.13971 32.086 3.2371 31.9237 3.3113C31.766 3.38087 31.5921 3.41565 31.402 3.41565C31.2165 3.41565 31.0402 3.38087 30.8733 3.3113C30.711 3.2371 30.5672 3.13971 30.442 3.01913C30.3214 2.89855 30.2263 2.7571 30.1568 2.59478C30.0872 2.42783 30.0524 2.24928 30.0524 2.05913C30.0524 1.87362 30.0872 1.69739 30.1568 1.53043ZM45.552 9.69043C45.9648 9.69043 46.301 9.87826 46.5607 10.2539C46.6767 10.4441 46.8645 11.0261 47.1242 12H36.432V9.69043H45.552ZM37.6633 5.9687C37.6633 5.78319 37.6981 5.60696 37.7677 5.44C37.8419 5.27304 37.9393 5.12928 38.0599 5.0087C38.1851 4.88348 38.3288 4.78377 38.4912 4.70957C38.6535 4.63536 38.8297 4.59826 39.0199 4.59826C39.2054 4.59826 39.3793 4.63536 39.5416 4.70957C39.7039 4.78377 39.8454 4.88348 39.966 5.0087C40.0912 5.12928 40.1886 5.27304 40.2581 5.44C40.3277 5.60696 40.3625 5.78319 40.3625 5.9687C40.3625 6.1542 40.3277 6.33043 40.2581 6.49739C40.1886 6.65971 40.0912 6.80348 39.966 6.9287C39.8454 7.04928 39.7039 7.14435 39.5416 7.21391C39.3793 7.28348 39.2054 7.31826 39.0199 7.31826C38.8297 7.31826 38.6535 7.28348 38.4912 7.21391C38.3288 7.14435 38.1851 7.04928 38.0599 6.9287C37.9393 6.80348 37.8419 6.65971 37.7677 6.49739C37.6981 6.33043 37.6633 6.1542 37.6633 5.9687ZM43.6738 5.44C43.7433 5.27304 43.8384 5.12928 43.959 5.0087C44.0796 4.88348 44.221 4.78377 44.3833 4.70957C44.5503 4.63536 44.7289 4.59826 44.919 4.59826C45.1045 4.59826 45.2784 4.63536 45.4407 4.70957C45.6031 4.78377 45.7445 4.88348 45.8651 5.0087C45.9857 5.12928 46.0807 5.27304 46.1503 5.44C46.2245 5.60696 46.2616 5.78319 46.2616 5.9687C46.2616 6.1542 46.2245 6.33043 46.1503 6.49739C46.0807 6.65971 45.9857 6.80348 45.8651 6.9287C45.7445 7.04928 45.6031 7.14435 45.4407 7.21391C45.2784 7.28348 45.1045 7.31826 44.919 7.31826C44.7289 7.31826 44.5503 7.28348 44.3833 7.21391C44.221 7.14435 44.0796 7.04928 43.959 6.9287C43.8384 6.80348 43.741 6.65971 43.6668 6.49739C43.5973 6.33043 43.5625 6.1542 43.5625 5.9687C43.5625 5.78319 43.5996 5.60696 43.6738 5.44ZM40.5712 5.9687C40.5712 5.78319 40.606 5.60696 40.6755 5.44C40.7497 5.27304 40.8471 5.12928 40.9677 5.0087C41.0883 4.88348 41.2297 4.78377 41.392 4.70957C41.559 4.63536 41.7375 4.59826 41.9277 4.59826C42.1132 4.59826 42.2871 4.63536 42.4494 4.70957C42.6117 4.78377 42.7532 4.88348 42.8738 5.0087C42.9944 5.12928 43.0894 5.27304 43.159 5.44C43.2332 5.60696 43.2703 5.78319 43.2703 5.9687C43.2703 6.1542 43.2332 6.33043 43.159 6.49739C43.0894 6.65971 42.9944 6.80348 42.8738 6.9287C42.7532 7.04928 42.6117 7.14435 42.4494 7.21391C42.2871 7.28348 42.1132 7.31826 41.9277 7.31826C41.7375 7.31826 41.559 7.28348 41.392 7.21391C41.2297 7.14435 41.0883 7.04928 40.9677 6.9287C40.8471 6.80348 40.7497 6.65971 40.6755 6.49739C40.606 6.33043 40.5712 6.1542 40.5712 5.9687ZM49.7339 11.993C49.9936 11.0145 50.1814 10.4301 50.2973 10.24C50.557 9.86435 50.8933 9.67652 51.306 9.67652H58.4434C58.6475 9.67652 58.8423 9.63942 59.0278 9.56522C59.2133 9.48638 59.3733 9.37971 59.5078 9.24522C59.6469 9.11072 59.7582 8.95304 59.8417 8.77217C59.9298 8.5913 59.9808 8.3942 59.9947 8.18087V7.42956C59.9947 7.23478 60.0504 7.04464 60.1617 6.85913C60.4214 6.48348 60.7553 6.29565 61.1634 6.29565H62.2904V8.15304C62.2904 8.68174 62.1884 9.17797 61.9843 9.64174C61.7849 10.1055 61.5113 10.5113 61.1634 10.8591C60.8156 11.207 60.4075 11.4829 59.9391 11.687C59.4753 11.891 58.9768 11.993 58.4434 11.993H49.7339ZM56.1199 4.54956C56.1199 4.35942 56.1547 4.18087 56.2243 4.01391C56.2939 3.84696 56.3889 3.70319 56.5095 3.58261C56.6347 3.46203 56.7785 3.36464 56.9408 3.29043C57.1031 3.21623 57.2794 3.17913 57.4695 3.17913C57.655 3.17913 57.8289 3.21623 57.9913 3.29043C58.1536 3.36464 58.295 3.46203 58.4156 3.58261C58.5408 3.70319 58.6382 3.84696 58.7078 4.01391C58.7773 4.18087 58.8121 4.35942 58.8121 4.54956C58.8121 4.73507 58.7773 4.9113 58.7078 5.07826C58.6382 5.24058 58.5408 5.38435 58.4156 5.50956C58.295 5.63014 58.1536 5.72522 57.9913 5.79478C57.8289 5.86435 57.655 5.89913 57.4695 5.89913C57.2794 5.89913 57.1031 5.86435 56.9408 5.79478C56.7785 5.72522 56.6347 5.63014 56.5095 5.50956C56.3889 5.38435 56.2939 5.24058 56.2243 5.07826C56.1547 4.9113 56.1199 4.73507 56.1199 4.54956ZM53.2121 4.54956C53.2121 4.35942 53.2469 4.18087 53.3165 4.01391C53.386 3.84696 53.4811 3.70319 53.6017 3.58261C53.7269 3.46203 53.8707 3.36464 54.033 3.29043C54.1999 3.21623 54.3762 3.17913 54.5617 3.17913C54.7472 3.17913 54.9211 3.21623 55.0834 3.29043C55.2457 3.36464 55.3872 3.46203 55.5078 3.58261C55.633 3.70319 55.7304 3.84696 55.7999 4.01391C55.8695 4.18087 55.9043 4.35942 55.9043 4.54956C55.9043 4.73507 55.8695 4.9113 55.7999 5.07826C55.7304 5.24058 55.633 5.38435 55.5078 5.50956C55.3872 5.63014 55.2457 5.72522 55.0834 5.79478C54.9211 5.86435 54.7472 5.89913 54.5617 5.89913C54.3762 5.89913 54.1999 5.86435 54.033 5.79478C53.8707 5.72522 53.7269 5.63014 53.6017 5.50956C53.4811 5.38435 53.386 5.24058 53.3165 5.07826C53.2469 4.9113 53.2121 4.73507 53.2121 4.54956ZM62.9762 11.993V1.47478C62.9762 1.08058 63.1641 0.755942 63.5397 0.50087C63.7206 0.389565 63.9084 0.333913 64.1032 0.333913H65.2719V11.993H62.9762ZM66.2704 10.24C66.5301 9.86435 66.8663 9.67652 67.279 9.67652H69.9156C70.1243 9.67652 70.3214 9.6371 70.5069 9.55826C70.697 9.47942 70.8617 9.37043 71.0008 9.2313C71.1446 9.09217 71.2582 8.92985 71.3417 8.74435C71.4112 8.5913 71.453 8.4313 71.4669 8.26435L71.4599 8.02783C71.446 7.86551 71.4043 7.70551 71.3347 7.54783C71.2512 7.36696 71.1376 7.20696 70.9938 7.06783C70.8547 6.9287 70.6901 6.81971 70.4999 6.74087C70.3144 6.65739 70.1173 6.61565 69.9086 6.61565H66.959C66.6576 6.61565 66.3956 6.50435 66.173 6.28174C65.9596 6.05449 65.853 5.78087 65.853 5.46087V4.30609H69.9086C70.4419 4.30609 70.9428 4.40812 71.4112 4.61217C71.8796 4.81159 72.2877 5.08754 72.6356 5.44C72.9834 5.78783 73.2593 6.19362 73.4634 6.65739C73.6535 7.0887 73.7533 7.55014 73.7625 8.04174V8.36174C73.7393 8.81623 73.6419 9.2429 73.4704 9.64174C73.2709 10.1055 72.995 10.5113 72.6425 10.8591C72.2947 11.207 71.8866 11.4829 71.4182 11.687C70.9498 11.891 70.4489 11.993 69.9156 11.993H65.7069C65.9666 11.0145 66.1544 10.4301 66.2704 10.24ZM74.6046 8.19478V1.47478C74.6046 1.08058 74.7924 0.755942 75.168 0.50087C75.3489 0.389565 75.5367 0.333913 75.7315 0.333913H76.9002V8.19478C76.9049 8.40812 76.9489 8.60754 77.0324 8.79304C77.1159 8.97391 77.2272 9.13159 77.3663 9.26609C77.5101 9.39594 77.6747 9.50029 77.8602 9.57913C78.0457 9.65797 78.2428 9.69739 78.4515 9.69739H78.5141V12H78.4515C77.9228 12 77.4266 11.9003 76.9628 11.7009C76.4991 11.5014 76.0933 11.2301 75.7454 10.887C75.3976 10.5391 75.1217 10.1357 74.9176 9.67652C74.7136 9.21739 74.6092 8.72348 74.6046 8.19478ZM87.3177 9.69043C87.7304 9.69043 88.0666 9.87826 88.3264 10.2539C88.4423 10.4441 88.6301 11.0261 88.8898 12H78.1977V9.69043H87.3177ZM91.5621 7.10261C91.6873 6.62957 91.9006 6.18899 92.2021 5.78087C92.5035 5.37275 92.8862 5.03884 93.3499 4.77913C93.809 4.51478 94.2056 4.36174 94.5395 4.32C94.878 4.27826 95.1285 4.25739 95.2908 4.25739C95.6247 4.25739 95.9888 4.31072 96.383 4.41739C96.7772 4.52406 97.176 4.73043 97.5795 5.03652C97.9876 5.34261 98.3262 5.72522 98.5951 6.18435C98.8595 6.64348 99.0218 7.12348 99.0821 7.62435C99.1006 7.79594 99.1099 7.96522 99.1099 8.13217C99.1099 8.22957 99.1076 8.32464 99.103 8.41739C99.1215 8.51942 99.154 8.61681 99.2004 8.70957C99.2792 8.89971 99.3882 9.06435 99.5273 9.20348C99.6711 9.33797 99.8357 9.44696 100.021 9.53043C100.211 9.60928 100.413 9.6487 100.626 9.6487H100.689V11.9583H100.626C100.093 11.9583 99.5946 11.8586 99.1308 11.6591C98.6763 11.4597 98.2798 11.193 97.9412 10.8591C97.7233 11.0678 97.4775 11.2533 97.2038 11.4157C96.7401 11.68 96.3389 11.833 96.0004 11.8748C95.6664 11.9119 95.4183 11.9304 95.256 11.9304C94.9221 11.9304 94.5534 11.8794 94.1499 11.7774C93.7511 11.6707 93.3476 11.4667 92.9395 11.1652C92.536 10.8591 92.2044 10.4765 91.9447 10.0174C91.6804 9.55826 91.5296 9.16406 91.4925 8.83478C91.4554 8.50087 91.4369 8.25507 91.4369 8.09739C91.4369 7.75884 91.4786 7.42725 91.5621 7.10261ZM93.7812 8.49391C93.8322 8.68406 93.918 8.86261 94.0386 9.02957C94.1592 9.19652 94.3099 9.33565 94.4908 9.44696C94.6809 9.54899 94.8433 9.60928 94.9777 9.62783C95.1122 9.64174 95.2096 9.6487 95.2699 9.6487C95.4044 9.6487 95.5505 9.62783 95.7082 9.58609C95.8705 9.54435 96.0351 9.46319 96.2021 9.34261C96.369 9.21739 96.5082 9.06203 96.6195 8.87652C96.7215 8.68638 96.7795 8.52638 96.7934 8.39652C96.8073 8.26203 96.8143 8.16464 96.8143 8.10435C96.8143 7.96522 96.7934 7.81449 96.7517 7.65217C96.7099 7.48986 96.6264 7.32754 96.5012 7.16522C96.3806 6.99826 96.2253 6.85913 96.0351 6.74783C95.8496 6.6458 95.6919 6.58783 95.5621 6.57391C95.4322 6.55536 95.3348 6.54609 95.2699 6.54609C95.1354 6.54609 94.987 6.56928 94.8247 6.61565C94.667 6.65739 94.5047 6.74087 94.3377 6.86609C94.1754 6.98667 94.0409 7.13971 93.9343 7.32522C93.8322 7.51072 93.7719 7.67072 93.7534 7.80522C93.7395 7.93971 93.7325 8.03942 93.7325 8.10435C93.7325 8.23884 93.7488 8.3687 93.7812 8.49391ZM101.547 9.70435C101.357 9.25913 101.257 8.90667 101.248 8.64696C101.238 8.38261 101.234 8.22493 101.234 8.17391C101.234 7.76116 101.299 7.35072 101.429 6.94261C101.563 6.53449 101.776 6.14493 102.069 5.77391C102.361 5.4029 102.722 5.09217 103.154 4.84174C103.608 4.57739 104 4.42667 104.329 4.38956C104.663 4.35246 104.907 4.33391 105.06 4.33391C105.403 4.33391 105.774 4.38725 106.173 4.49391C106.576 4.60058 106.982 4.80696 107.39 5.11304C107.798 5.41913 108.137 5.80174 108.406 6.26087C108.587 6.57623 108.717 6.89391 108.795 7.21391C108.874 7.53391 108.914 7.84696 108.914 8.15304C108.914 8.19014 108.914 8.22493 108.914 8.25739C108.928 8.45681 108.979 8.64464 109.067 8.82087C109.155 8.99246 109.266 9.14319 109.401 9.27304C109.54 9.4029 109.698 9.50725 109.874 9.58609C110.055 9.66493 110.247 9.70435 110.451 9.70435V12C109.932 12 109.445 11.898 108.99 11.6939C108.536 11.4899 108.137 11.2232 107.794 10.8939C107.562 11.1258 107.298 11.3275 107.001 11.4991C106.648 11.6986 106.31 11.8354 105.985 11.9096C105.665 11.9791 105.373 12.0139 105.109 12.0139C104.997 12.0139 104.886 12.0093 104.775 12H100.482L100.42 9.70435H101.547ZM103.515 8.57739C103.567 8.76754 103.652 8.94377 103.773 9.10609C103.893 9.26841 104.044 9.4029 104.225 9.50957C104.429 9.62087 104.629 9.6858 104.823 9.70435H105.185C105.426 9.67188 105.647 9.59304 105.846 9.46783C106.05 9.33797 106.222 9.15942 106.361 8.93217C106.463 8.7513 106.521 8.59826 106.535 8.47304C106.549 8.34319 106.555 8.24812 106.555 8.18783C106.555 8.0487 106.532 7.89797 106.486 7.73565C106.444 7.57333 106.361 7.41101 106.235 7.2487C106.115 7.08174 105.962 6.94493 105.776 6.83826C105.595 6.73159 105.438 6.6713 105.303 6.65739C105.169 6.63884 105.071 6.62957 105.011 6.62957C104.877 6.62957 104.728 6.65043 104.566 6.69217C104.408 6.73391 104.246 6.81739 104.079 6.94261C103.917 7.06319 103.78 7.21855 103.669 7.4087C103.562 7.58957 103.499 7.74725 103.481 7.88174C103.467 8.01623 103.46 8.11362 103.46 8.17391C103.46 8.31304 103.478 8.44754 103.515 8.57739ZM109.944 9.70435H110.973V1.47478C110.973 1.08058 111.161 0.755942 111.537 0.50087C111.718 0.389565 111.906 0.333913 112.1 0.333913H113.283V5.38435L114.633 4.48C115.296 4.06725 115.97 3.86087 116.657 3.86087C116.935 3.86087 117.392 3.93739 118.027 4.09043C118.663 4.24348 119.228 4.73971 119.725 5.57913C120.221 6.41855 120.469 7.21159 120.469 7.95826C120.469 8.25043 120.395 8.73507 120.246 9.41217C120.103 10.0893 119.644 10.6922 118.869 11.2209C118.095 11.7496 117.355 12.0139 116.65 12.0139C116.641 12.0139 116.634 12.0139 116.629 12.0139H109.944V9.70435ZM113.283 9.69739H116.379C116.666 9.69739 116.995 9.59536 117.366 9.3913C117.742 9.18725 117.962 8.95768 118.027 8.70261C118.092 8.4429 118.125 8.25739 118.125 8.14609C118.125 7.85855 118.009 7.55014 117.777 7.22087C117.55 6.89159 117.297 6.69681 117.019 6.63652C116.745 6.57159 116.548 6.53913 116.427 6.53913C116.117 6.53913 115.804 6.62957 115.488 6.81043L113.283 8.06261V9.69739ZM121.151 8.19478V1.47478C121.151 1.08058 121.339 0.755942 121.715 0.50087C121.896 0.389565 122.084 0.333913 122.278 0.333913H123.447V8.19478C123.452 8.40812 123.496 8.60754 123.579 8.79304C123.663 8.97391 123.774 9.13159 123.913 9.26609C124.057 9.39594 124.222 9.50029 124.407 9.57913C124.593 9.65797 124.79 9.69739 124.998 9.69739H125.061V12H124.998C124.47 12 123.973 11.9003 123.51 11.7009C123.046 11.5014 122.64 11.2301 122.292 10.887C121.944 10.5391 121.669 10.1357 121.464 9.67652C121.26 9.21739 121.156 8.72348 121.151 8.19478ZM126.018 9.70435C125.906 9.56985 125.802 9.37043 125.705 9.10609C125.612 8.84174 125.549 8.58435 125.517 8.33391C125.489 8.07884 125.475 7.85623 125.475 7.66609C125.475 7.51768 125.484 7.31826 125.503 7.06783C125.526 6.81739 125.612 6.53681 125.76 6.22609C126.025 5.76696 126.358 5.38667 126.762 5.08522C127.17 4.78377 127.574 4.57971 127.972 4.47304C128.376 4.36638 128.747 4.31304 129.085 4.31304C129.238 4.31304 129.48 4.33159 129.809 4.3687C130.138 4.4058 130.535 4.55652 130.998 4.82087C131.458 5.08522 131.84 5.42377 132.146 5.83652C132.452 6.24464 132.659 6.65043 132.765 7.05391C132.872 7.45275 132.925 7.82377 132.925 8.16696C132.925 8.32 132.907 8.56348 132.87 8.89739C132.833 9.22667 132.682 9.61855 132.418 10.073C132.237 10.3791 132.026 10.6504 131.785 10.887C131.543 11.1235 131.279 11.3252 130.991 11.4922C130.704 11.6545 130.4 11.7797 130.08 11.8678C129.765 11.9513 129.445 11.993 129.12 11.993V12H124.696V9.70435H126.018ZM127.597 8.40348C127.615 8.6029 127.678 8.79072 127.785 8.96696C127.919 9.19884 128.086 9.37971 128.285 9.50957C128.489 9.63478 128.712 9.7113 128.953 9.73913H129.315C129.51 9.72522 129.709 9.66029 129.913 9.54435C130.089 9.44232 130.238 9.31014 130.358 9.14783C130.484 8.98087 130.569 8.81623 130.616 8.65391C130.662 8.49159 130.685 8.34319 130.685 8.2087C130.685 8.14841 130.676 8.05333 130.658 7.92348C130.644 7.78899 130.581 7.62899 130.47 7.44348C130.358 7.25797 130.222 7.10493 130.059 6.98435C129.897 6.85913 129.735 6.77565 129.572 6.73391C129.415 6.69217 129.269 6.6713 129.134 6.6713C129.069 6.6713 128.969 6.68058 128.835 6.69913C128.7 6.71304 128.543 6.77101 128.362 6.87304C128.176 6.98435 128.023 7.12348 127.903 7.29043C127.782 7.45275 127.699 7.61507 127.652 7.77739C127.606 7.93971 127.583 8.08812 127.583 8.22261C127.583 8.2829 127.587 8.34319 127.597 8.40348ZM127.687 2.05913C127.687 1.87362 127.722 1.69739 127.791 1.53043C127.861 1.36348 127.956 1.21971 128.077 1.09913C128.202 0.973913 128.346 0.876522 128.508 0.806956C128.675 0.732753 128.851 0.695652 129.037 0.695652C129.227 0.695652 129.401 0.732753 129.558 0.806956C129.721 0.876522 129.862 0.973913 129.983 1.09913C130.108 1.21971 130.205 1.36348 130.275 1.53043C130.349 1.69739 130.386 1.87362 130.386 2.05913C130.386 2.24928 130.349 2.42783 130.275 2.59478C130.205 2.7571 130.108 2.89855 129.983 3.01913C129.862 3.13971 129.721 3.2371 129.558 3.3113C129.401 3.38087 129.227 3.41565 129.037 3.41565C128.851 3.41565 128.675 3.38087 128.508 3.3113C128.346 3.2371 128.202 3.13971 128.077 3.01913C127.956 2.89855 127.861 2.7571 127.791 2.59478C127.722 2.42783 127.687 2.24928 127.687 2.05913Z" fill="#737373"/>
</svg>
