<svg width="117" height="15" viewBox="0 0 117 15" fill="none" xmlns="http://www.w3.org/2000/svg">
<path d="M0.176522 9.21652C0.176522 8.87159 0.34087 8.58754 0.669565 8.36435C0.827826 8.26696 0.992174 8.21826 1.16261 8.21826H2.17913V10.8843C2.18725 11.0588 2.22783 11.2232 2.30087 11.3774C2.37797 11.5357 2.47739 11.6736 2.59913 11.7913C2.72087 11.909 2.86087 12.0023 3.01913 12.0713C3.17739 12.1403 3.35188 12.1748 3.54261 12.1748H7.10348C7.26986 12.1707 7.42812 12.1362 7.57826 12.0713C7.72841 12.0104 7.86232 11.9272 7.98 11.8217C8.09768 11.7162 8.19304 11.5925 8.26609 11.4504C8.34319 11.3084 8.38985 11.1583 8.40609 11H6.86609V8.9913H11.1574V11H10.4391C10.4148 11.4301 10.3154 11.8319 10.1409 12.2052C9.96638 12.5826 9.73507 12.9133 9.44696 13.1974C9.15884 13.4814 8.82609 13.7107 8.4487 13.8852C8.0713 14.0638 7.66754 14.1632 7.23739 14.1835H3.47565C3.02928 14.1754 2.60928 14.0841 2.21565 13.9096C1.82609 13.7391 1.48116 13.5078 1.18087 13.2157C0.884638 12.9275 0.647246 12.5887 0.468696 12.1991C0.290145 11.8096 0.192754 11.3916 0.176522 10.9452V9.21652ZM10.8645 8.96087H11.7958C11.7024 8.75797 11.6314 8.54493 11.5827 8.32174C11.5462 8.13913 11.5239 7.95043 11.5158 7.75565H11.4975V4.26174H18.3514V7.75565H18.3332C18.325 7.95043 18.3027 8.13913 18.2662 8.32174C18.2175 8.54493 18.1465 8.75797 18.0532 8.96087H18.9845V10.9878H10.8645V8.96087ZM13.5305 6.27043V7.62783C13.5305 7.66841 13.5326 7.71101 13.5366 7.75565C13.5447 7.88551 13.5772 8.0113 13.634 8.13304C13.6989 8.29942 13.7882 8.44348 13.9018 8.56522C14.0195 8.6829 14.1575 8.77826 14.3158 8.8513C14.474 8.92029 14.6445 8.95681 14.8271 8.96087H15.1071C15.2775 8.94464 15.4358 8.9 15.5818 8.82696C15.7279 8.74985 15.8558 8.65246 15.9653 8.53478C16.0749 8.41304 16.1642 8.27507 16.2332 8.12087C16.2818 8.00725 16.3103 7.88551 16.3184 7.75565C16.3224 7.71101 16.3245 7.66841 16.3245 7.62783V6.27043H13.5305ZM18.7242 10.9939V8.96696L23.5572 8.9913V11L18.7242 10.9939ZM21.5485 12.3209C21.6094 12.1748 21.6926 12.047 21.7981 11.9374C21.9077 11.8319 22.0335 11.7467 22.1755 11.6817C22.3216 11.6209 22.4758 11.5904 22.6381 11.5904C22.8045 11.5904 22.9567 11.6209 23.0946 11.6817C23.2367 11.7467 23.3604 11.8319 23.4659 11.9374C23.5755 12.047 23.6607 12.1748 23.7216 12.3209C23.7825 12.467 23.8129 12.6212 23.8129 12.7835C23.8129 12.9499 23.7825 13.1041 23.7216 13.2461C23.6607 13.3881 23.5755 13.5119 23.4659 13.6174C23.3604 13.727 23.2367 13.8122 23.0946 13.873C22.9567 13.9339 22.8045 13.9643 22.6381 13.9643C22.4758 13.9643 22.3216 13.9339 22.1755 13.873C22.0335 13.8122 21.9077 13.727 21.7981 13.6174C21.6926 13.5119 21.6094 13.3881 21.5485 13.2461C21.4877 13.1041 21.4572 12.9499 21.4572 12.7835C21.4572 12.6212 21.4877 12.467 21.5485 12.3209ZM18.8398 12.7835C18.8398 12.6212 18.8703 12.467 18.9311 12.3209C18.992 12.1748 19.0752 12.047 19.1807 11.9374C19.2903 11.8319 19.4161 11.7467 19.5581 11.6817C19.7042 11.6209 19.8584 11.5904 20.0207 11.5904C20.1871 11.5904 20.3393 11.6209 20.4772 11.6817C20.6193 11.7467 20.743 11.8319 20.8485 11.9374C20.9581 12.047 21.0433 12.1748 21.1042 12.3209C21.1651 12.467 21.1955 12.6212 21.1955 12.7835C21.1955 12.9499 21.1651 13.1041 21.1042 13.2461C21.0433 13.3881 20.9581 13.5119 20.8485 13.6174C20.743 13.727 20.6193 13.8122 20.4772 13.873C20.3393 13.9339 20.1871 13.9643 20.0207 13.9643C19.8584 13.9643 19.7042 13.9339 19.5581 13.873C19.4161 13.8122 19.2903 13.727 19.1807 13.6174C19.0752 13.5119 18.992 13.3881 18.9311 13.2461C18.8703 13.1041 18.8398 12.9499 18.8398 12.7835ZM24.3359 8.9913C24.1695 8.60174 24.0822 8.29333 24.0741 8.06609C24.066 7.83478 24.062 7.69681 24.062 7.65217C24.062 7.29101 24.1188 6.93188 24.2324 6.57478C24.3501 6.21768 24.5367 5.87681 24.7924 5.55217C25.048 5.22754 25.3646 4.95565 25.742 4.73652C26.1396 4.50522 26.4825 4.37333 26.7706 4.34087C27.0628 4.30841 27.2759 4.29217 27.4098 4.29217C27.7101 4.29217 28.0347 4.33884 28.3837 4.43217C28.7367 4.52551 29.0918 4.70609 29.4489 4.97391C29.806 5.24174 30.1022 5.57652 30.3376 5.97826C30.4959 6.2542 30.6095 6.53217 30.6785 6.81217C30.7475 7.09217 30.782 7.36609 30.782 7.63391C30.782 7.66638 30.782 7.69681 30.782 7.72522C30.7941 7.89971 30.8388 8.06406 30.9159 8.21826C30.993 8.36841 31.0904 8.50029 31.208 8.61391C31.3298 8.72754 31.4678 8.81884 31.622 8.88783C31.7802 8.95681 31.9486 8.9913 32.1272 8.9913V11C31.6727 11 31.2466 10.9107 30.8489 10.7322C30.4512 10.5536 30.1022 10.3203 29.802 10.0322C29.5991 10.2351 29.3678 10.4116 29.108 10.5617C28.7996 10.7362 28.5034 10.8559 28.2193 10.9209C27.9393 10.9817 27.6837 11.0122 27.4524 11.0122C27.355 11.0122 27.2576 11.0081 27.1602 11H23.4046L23.3498 8.9913H24.3359ZM26.0585 8.00522C26.1031 8.17159 26.1782 8.3258 26.2837 8.46783C26.3892 8.60986 26.5211 8.72754 26.6793 8.82087C26.8579 8.91826 27.0324 8.97507 27.2028 8.9913H27.5193C27.7304 8.9629 27.9231 8.89391 28.0976 8.78435C28.2762 8.67072 28.4263 8.51449 28.548 8.31565C28.6373 8.15739 28.688 8.02348 28.7002 7.91391C28.7124 7.80029 28.7185 7.7171 28.7185 7.66435C28.7185 7.54261 28.6982 7.41072 28.6576 7.2687C28.6211 7.12667 28.548 6.98464 28.4385 6.84261C28.333 6.69652 28.1991 6.57681 28.0367 6.48348C27.8785 6.39014 27.7405 6.33739 27.6228 6.32522C27.5051 6.30899 27.4199 6.30087 27.3672 6.30087C27.2495 6.30087 27.1196 6.31913 26.9776 6.35565C26.8396 6.39217 26.6976 6.46522 26.5515 6.57478C26.4095 6.68029 26.2898 6.81623 26.1924 6.98261C26.0991 7.14087 26.0443 7.27884 26.028 7.39652C26.0159 7.5142 26.0098 7.59942 26.0098 7.65217C26.0098 7.77391 26.026 7.89159 26.0585 8.00522ZM26.3872 1.83913C26.448 1.69304 26.5312 1.56725 26.6367 1.46174C26.7463 1.35217 26.8721 1.26696 27.0141 1.20609C27.1602 1.14116 27.3144 1.1087 27.4767 1.1087C27.6431 1.1087 27.7953 1.14116 27.9333 1.20609C28.0753 1.26696 28.1991 1.35217 28.3046 1.46174C28.4141 1.56725 28.4993 1.69304 28.5602 1.83913C28.6211 1.98522 28.6515 2.13942 28.6515 2.30174C28.6515 2.46812 28.6211 2.62435 28.5602 2.77043C28.4993 2.91246 28.4141 3.03623 28.3046 3.14174C28.1991 3.24725 28.0753 3.33246 27.9333 3.39739C27.7953 3.45826 27.6431 3.4887 27.4767 3.4887C27.3144 3.4887 27.1602 3.45826 27.0141 3.39739C26.8721 3.33246 26.7463 3.24725 26.6367 3.14174C26.5312 3.03623 26.448 2.91246 26.3872 2.77043C26.3263 2.62435 26.2959 2.46812 26.2959 2.30174C26.2959 2.13942 26.3263 1.98522 26.3872 1.83913ZM39.858 8.97913C40.2192 8.97913 40.5134 9.14348 40.7406 9.47217C40.8421 9.63855 41.0064 10.1478 41.2337 11H31.878V8.97913H39.858ZM32.9554 5.72261C32.9554 5.56029 32.9859 5.40609 33.0467 5.26C33.1117 5.11391 33.1969 4.98812 33.3024 4.88261C33.4119 4.77304 33.5377 4.6858 33.6798 4.62087C33.8218 4.55594 33.976 4.52348 34.1424 4.52348C34.3047 4.52348 34.4569 4.55594 34.5989 4.62087C34.7409 4.6858 34.8647 4.77304 34.9702 4.88261C35.0798 4.98812 35.165 5.11391 35.2259 5.26C35.2867 5.40609 35.3172 5.56029 35.3172 5.72261C35.3172 5.88493 35.2867 6.03913 35.2259 6.18522C35.165 6.32725 35.0798 6.45304 34.9702 6.56261C34.8647 6.66812 34.7409 6.7513 34.5989 6.81217C34.4569 6.87304 34.3047 6.90348 34.1424 6.90348C33.976 6.90348 33.8218 6.87304 33.6798 6.81217C33.5377 6.7513 33.4119 6.66812 33.3024 6.56261C33.1969 6.45304 33.1117 6.32725 33.0467 6.18522C32.9859 6.03913 32.9554 5.88493 32.9554 5.72261ZM38.2146 5.26C38.2754 5.11391 38.3586 4.98812 38.4641 4.88261C38.5696 4.77304 38.6934 4.6858 38.8354 4.62087C38.9815 4.55594 39.1377 4.52348 39.3041 4.52348C39.4664 4.52348 39.6186 4.55594 39.7606 4.62087C39.9027 4.6858 40.0264 4.77304 40.1319 4.88261C40.2375 4.98812 40.3206 5.11391 40.3815 5.26C40.4464 5.40609 40.4789 5.56029 40.4789 5.72261C40.4789 5.88493 40.4464 6.03913 40.3815 6.18522C40.3206 6.32725 40.2375 6.45304 40.1319 6.56261C40.0264 6.66812 39.9027 6.7513 39.7606 6.81217C39.6186 6.87304 39.4664 6.90348 39.3041 6.90348C39.1377 6.90348 38.9815 6.87304 38.8354 6.81217C38.6934 6.7513 38.5696 6.66812 38.4641 6.56261C38.3586 6.45304 38.2734 6.32725 38.2085 6.18522C38.1476 6.03913 38.1172 5.88493 38.1172 5.72261C38.1172 5.56029 38.1496 5.40609 38.2146 5.26ZM35.4998 5.72261C35.4998 5.56029 35.5302 5.40609 35.5911 5.26C35.656 5.11391 35.7412 4.98812 35.8467 4.88261C35.9522 4.77304 36.076 4.6858 36.218 4.62087C36.3641 4.55594 36.5204 4.52348 36.6867 4.52348C36.849 4.52348 37.0012 4.55594 37.1433 4.62087C37.2853 4.6858 37.409 4.77304 37.5146 4.88261C37.6201 4.98812 37.7033 5.11391 37.7641 5.26C37.829 5.40609 37.8615 5.56029 37.8615 5.72261C37.8615 5.88493 37.829 6.03913 37.7641 6.18522C37.7033 6.32725 37.6201 6.45304 37.5146 6.56261C37.409 6.66812 37.2853 6.7513 37.1433 6.81217C37.0012 6.87304 36.849 6.90348 36.6867 6.90348C36.5204 6.90348 36.3641 6.87304 36.218 6.81217C36.076 6.7513 35.9522 6.66812 35.8467 6.56261C35.7412 6.45304 35.656 6.32725 35.5911 6.18522C35.5302 6.03913 35.4998 5.88493 35.4998 5.72261ZM43.5171 10.9939C43.7444 10.1377 43.9087 9.62638 44.0102 9.46C44.2374 9.1313 44.5316 8.96696 44.8928 8.96696H51.138C51.3165 8.96696 51.487 8.93449 51.6493 8.86957C51.8116 8.80058 51.9516 8.70725 52.0693 8.58957C52.191 8.47188 52.2884 8.33391 52.3615 8.17565C52.4386 8.01739 52.4832 7.84493 52.4954 7.65826V7.00087C52.4954 6.83043 52.5441 6.66406 52.6415 6.50174C52.8687 6.17304 53.1609 6.0087 53.518 6.0087H54.5041V7.63391C54.5041 8.09652 54.4148 8.53072 54.2363 8.93652C54.0618 9.34232 53.8223 9.69739 53.518 10.0017C53.2136 10.3061 52.8565 10.5475 52.4467 10.7261C52.0409 10.9046 51.6047 10.9939 51.138 10.9939H43.5171ZM49.105 4.48087C49.105 4.31449 49.1354 4.15826 49.1963 4.01217C49.2571 3.86609 49.3403 3.74029 49.4458 3.63478C49.5554 3.52928 49.6812 3.44406 49.8232 3.37913C49.9652 3.3142 50.1194 3.28174 50.2858 3.28174C50.4481 3.28174 50.6003 3.3142 50.7423 3.37913C50.8844 3.44406 51.0081 3.52928 51.1136 3.63478C51.2232 3.74029 51.3084 3.86609 51.3693 4.01217C51.4302 4.15826 51.4606 4.31449 51.4606 4.48087C51.4606 4.64319 51.4302 4.79739 51.3693 4.94348C51.3084 5.08551 51.2232 5.2113 51.1136 5.32087C51.0081 5.42638 50.8844 5.50957 50.7423 5.57043C50.6003 5.6313 50.4481 5.66174 50.2858 5.66174C50.1194 5.66174 49.9652 5.6313 49.8232 5.57043C49.6812 5.50957 49.5554 5.42638 49.4458 5.32087C49.3403 5.2113 49.2571 5.08551 49.1963 4.94348C49.1354 4.79739 49.105 4.64319 49.105 4.48087ZM46.5606 4.48087C46.5606 4.31449 46.591 4.15826 46.6519 4.01217C46.7128 3.86609 46.796 3.74029 46.9015 3.63478C47.011 3.52928 47.1368 3.44406 47.2789 3.37913C47.425 3.3142 47.5792 3.28174 47.7415 3.28174C47.9038 3.28174 48.056 3.3142 48.198 3.37913C48.34 3.44406 48.4638 3.52928 48.5693 3.63478C48.6789 3.74029 48.7641 3.86609 48.825 4.01217C48.8858 4.15826 48.9163 4.31449 48.9163 4.48087C48.9163 4.64319 48.8858 4.79739 48.825 4.94348C48.7641 5.08551 48.6789 5.2113 48.5693 5.32087C48.4638 5.42638 48.34 5.50957 48.198 5.57043C48.056 5.6313 47.9038 5.66174 47.7415 5.66174C47.5792 5.66174 47.425 5.6313 47.2789 5.57043C47.1368 5.50957 47.011 5.42638 46.9015 5.32087C46.796 5.2113 46.7128 5.08551 46.6519 4.94348C46.591 4.79739 46.5606 4.64319 46.5606 4.48087ZM55.1042 10.9939V1.79043C55.1042 1.44551 55.2686 1.16145 55.5973 0.938261C55.7555 0.84087 55.9199 0.792174 56.0903 0.792174H57.1129V10.9939H55.1042ZM57.9866 9.46C58.2138 9.1313 58.508 8.96696 58.8692 8.96696H61.1761C61.3587 8.96696 61.5312 8.93246 61.6935 8.86348C61.8599 8.79449 62.004 8.69913 62.1257 8.57739C62.2515 8.45565 62.3509 8.31362 62.424 8.1513C62.4848 8.01739 62.5213 7.87739 62.5335 7.7313L62.5274 7.52435C62.5153 7.38232 62.4787 7.24232 62.4179 7.10435C62.3448 6.94609 62.2454 6.80609 62.1196 6.68435C61.9979 6.56261 61.8538 6.46725 61.6874 6.39826C61.5251 6.32522 61.3526 6.2887 61.17 6.2887H58.5892C58.3254 6.2887 58.0961 6.1913 57.9013 5.99652C57.7147 5.79768 57.6213 5.55826 57.6213 5.27826V4.26783H61.17C61.6367 4.26783 62.075 4.3571 62.4848 4.53565C62.8947 4.71014 63.2518 4.95159 63.5561 5.26C63.8605 5.56435 64.1019 5.91942 64.2805 6.32522C64.4468 6.70261 64.5341 7.10638 64.5422 7.53652V7.81652C64.5219 8.2142 64.4367 8.58754 64.2866 8.93652C64.1121 9.34232 63.8706 9.69739 63.5622 10.0017C63.2579 10.3061 62.9008 10.5475 62.4909 10.7261C62.0811 10.9046 61.6428 10.9939 61.1761 10.9939H57.4935C57.7208 10.1377 57.8851 9.62638 57.9866 9.46ZM65.279 7.67043V1.79043C65.279 1.44551 65.4433 1.16145 65.772 0.938261C65.9303 0.84087 66.0946 0.792174 66.2651 0.792174H67.2877V7.67043C67.2917 7.8571 67.3303 8.03159 67.4033 8.19391C67.4764 8.35217 67.5738 8.49014 67.6955 8.60783C67.8213 8.72145 67.9654 8.81275 68.1277 8.88174C68.29 8.95072 68.4625 8.98522 68.6451 8.98522H68.6999V11H68.6451C68.1825 11 67.7483 10.9128 67.3425 10.7383C66.9367 10.5638 66.5816 10.3264 66.2773 10.0261C65.9729 9.72174 65.7315 9.3687 65.5529 8.96696C65.3744 8.56522 65.2831 8.13304 65.279 7.67043ZM76.403 8.97913C76.7641 8.97913 77.0583 9.14348 77.2856 9.47217C77.387 9.63855 77.5514 10.1478 77.7786 11H68.423V8.97913H76.403ZM80.1168 6.71478C80.2264 6.30087 80.4131 5.91536 80.6768 5.55826C80.9406 5.20116 81.2754 4.90899 81.6812 4.68174C82.0829 4.45043 82.4299 4.31652 82.722 4.28C83.0183 4.24348 83.2374 4.22522 83.3794 4.22522C83.6716 4.22522 83.9902 4.27188 84.3351 4.36522C84.68 4.45855 85.029 4.63913 85.382 4.90696C85.7391 5.17478 86.0354 5.50957 86.2707 5.9113C86.502 6.31304 86.6441 6.73304 86.6968 7.1713C86.7131 7.32145 86.7212 7.46957 86.7212 7.61565C86.7212 7.70087 86.7191 7.78406 86.7151 7.86522C86.7313 7.95449 86.7597 8.03971 86.8003 8.12087C86.8693 8.28725 86.9647 8.4313 87.0864 8.55304C87.2122 8.67072 87.3563 8.76609 87.5186 8.83913C87.6849 8.90812 87.8615 8.94261 88.0481 8.94261H88.1029V10.9635H88.0481C87.5815 10.9635 87.1452 10.8762 86.7394 10.7017C86.3418 10.5272 85.9948 10.2939 85.6986 10.0017C85.5078 10.1843 85.2928 10.3467 85.0534 10.4887C84.6476 10.72 84.2965 10.8539 84.0003 10.8904C83.7081 10.9229 83.491 10.9391 83.349 10.9391C83.0568 10.9391 82.7342 10.8945 82.3812 10.8052C82.0322 10.7119 81.6791 10.5333 81.322 10.2696C80.969 10.0017 80.6789 9.66696 80.4516 9.26522C80.2203 8.86348 80.0884 8.51855 80.056 8.23043C80.0235 7.93826 80.0073 7.72319 80.0073 7.58522C80.0073 7.28899 80.0438 6.99884 80.1168 6.71478ZM82.0586 7.93217C82.1032 8.09855 82.1783 8.25478 82.2838 8.40087C82.3893 8.54696 82.5212 8.6687 82.6794 8.76609C82.8458 8.85536 82.9878 8.90812 83.1055 8.92435C83.2232 8.93652 83.3084 8.94261 83.3612 8.94261C83.4789 8.94261 83.6067 8.92435 83.7447 8.88783C83.8867 8.8513 84.0307 8.78029 84.1768 8.67478C84.3229 8.56522 84.4447 8.42928 84.542 8.26696C84.6313 8.10058 84.682 7.96058 84.6942 7.84696C84.7064 7.72928 84.7125 7.64406 84.7125 7.5913C84.7125 7.46957 84.6942 7.33768 84.6577 7.19565C84.6212 7.05362 84.5481 6.91159 84.4386 6.76957C84.3331 6.62348 84.1971 6.50174 84.0307 6.40435C83.8684 6.31507 83.7305 6.26435 83.6168 6.25217C83.5032 6.23594 83.418 6.22783 83.3612 6.22783C83.2435 6.22783 83.1136 6.24812 82.9716 6.2887C82.8336 6.32522 82.6916 6.39826 82.5455 6.50783C82.4035 6.61333 82.2858 6.74725 82.1925 6.90957C82.1032 7.07188 82.0505 7.21188 82.0342 7.32957C82.022 7.44725 82.016 7.53449 82.016 7.5913C82.016 7.70899 82.0302 7.82261 82.0586 7.93217ZM88.8534 8.9913C88.6871 8.60174 88.5998 8.29333 88.5917 8.06609C88.5836 7.83478 88.5795 7.69681 88.5795 7.65217C88.5795 7.29101 88.6363 6.93188 88.75 6.57478C88.8676 6.21768 89.0543 5.87681 89.31 5.55217C89.5656 5.22754 89.8821 4.95565 90.2595 4.73652C90.6572 4.50522 91.0001 4.37333 91.2882 4.34087C91.5804 4.30841 91.7934 4.29217 91.9274 4.29217C92.2276 4.29217 92.5523 4.33884 92.9013 4.43217C93.2543 4.52551 93.6094 4.70609 93.9665 4.97391C94.3236 5.24174 94.6198 5.57652 94.8552 5.97826C95.0134 6.2542 95.1271 6.53217 95.1961 6.81217C95.265 7.09217 95.2995 7.36609 95.2995 7.63391C95.2995 7.66638 95.2995 7.69681 95.2995 7.72522C95.3117 7.89971 95.3563 8.06406 95.4334 8.21826C95.5105 8.36841 95.6079 8.50029 95.7256 8.61391C95.8474 8.72754 95.9853 8.81884 96.1395 8.88783C96.2978 8.95681 96.4662 8.9913 96.6447 8.9913V11C96.1903 11 95.7642 10.9107 95.3665 10.7322C94.9688 10.5536 94.6198 10.3203 94.3195 10.0322C94.1166 10.2351 93.8853 10.4116 93.6256 10.5617C93.3172 10.7362 93.021 10.8559 92.7369 10.9209C92.4569 10.9817 92.2013 11.0122 91.97 11.0122C91.8726 11.0122 91.7752 11.0081 91.6778 11H87.9221L87.8674 8.9913H88.8534ZM90.5761 8.00522C90.6207 8.17159 90.6958 8.3258 90.8013 8.46783C90.9068 8.60986 91.0387 8.72754 91.1969 8.82087C91.3755 8.91826 91.55 8.97507 91.7204 8.9913H92.0369C92.2479 8.9629 92.4407 8.89391 92.6152 8.78435C92.7937 8.67072 92.9439 8.51449 93.0656 8.31565C93.1549 8.15739 93.2056 8.02348 93.2178 7.91391C93.23 7.80029 93.2361 7.7171 93.2361 7.66435C93.2361 7.54261 93.2158 7.41072 93.1752 7.2687C93.1387 7.12667 93.0656 6.98464 92.9561 6.84261C92.8505 6.69652 92.7166 6.57681 92.5543 6.48348C92.3961 6.39014 92.2581 6.33739 92.1404 6.32522C92.0227 6.30899 91.9375 6.30087 91.8847 6.30087C91.7671 6.30087 91.6372 6.31913 91.4952 6.35565C91.3572 6.39217 91.2152 6.46522 91.0691 6.57478C90.9271 6.68029 90.8074 6.81623 90.71 6.98261C90.6166 7.14087 90.5619 7.27884 90.5456 7.39652C90.5334 7.5142 90.5274 7.59942 90.5274 7.65217C90.5274 7.77391 90.5436 7.89159 90.5761 8.00522ZM96.2008 8.9913H97.1017V1.79043C97.1017 1.44551 97.266 1.16145 97.5947 0.938261C97.753 0.84087 97.9174 0.792174 98.0878 0.792174H99.1226V5.2113L100.303 4.42C100.884 4.05884 101.474 3.87826 102.075 3.87826C102.318 3.87826 102.718 3.94522 103.274 4.07913C103.83 4.21304 104.325 4.64725 104.759 5.38174C105.193 6.11623 105.41 6.81014 105.41 7.46348C105.41 7.71913 105.345 8.14319 105.216 8.73565C105.09 9.32812 104.688 9.85565 104.01 10.3183C103.333 10.7809 102.685 11.0122 102.069 11.0122C102.061 11.0122 102.054 11.0122 102.05 11.0122H96.2008V8.9913ZM99.1226 8.98522H101.831C102.083 8.98522 102.371 8.89594 102.696 8.71739C103.024 8.53884 103.217 8.33797 103.274 8.11478C103.331 7.88754 103.359 7.72522 103.359 7.62783C103.359 7.37623 103.258 7.10638 103.055 6.81826C102.856 6.53014 102.635 6.35971 102.391 6.30696C102.152 6.25014 101.979 6.22174 101.874 6.22174C101.602 6.22174 101.328 6.30087 101.052 6.45913L99.1226 7.55478V8.98522ZM106.008 7.67043V1.79043C106.008 1.44551 106.172 1.16145 106.501 0.938261C106.659 0.84087 106.823 0.792174 106.994 0.792174H108.016V7.67043C108.02 7.8571 108.059 8.03159 108.132 8.19391C108.205 8.35217 108.302 8.49014 108.424 8.60783C108.55 8.72145 108.694 8.81275 108.856 8.88174C109.019 8.95072 109.191 8.98522 109.374 8.98522H109.428V11H109.374C108.911 11 108.477 10.9128 108.071 10.7383C107.665 10.5638 107.31 10.3264 107.006 10.0261C106.701 9.72174 106.46 9.3687 106.281 8.96696C106.103 8.56522 106.012 8.13304 106.008 7.67043ZM110.265 8.9913C110.168 8.87362 110.077 8.69913 109.991 8.46783C109.91 8.23652 109.856 8.0113 109.827 7.79217C109.803 7.56899 109.791 7.3742 109.791 7.20783C109.791 7.07797 109.799 6.90348 109.815 6.68435C109.835 6.46522 109.91 6.21971 110.04 5.94783C110.271 5.54609 110.564 5.21333 110.917 4.94957C111.274 4.6858 111.627 4.50725 111.976 4.41391C112.329 4.32058 112.653 4.27391 112.95 4.27391C113.084 4.27391 113.295 4.29014 113.583 4.32261C113.871 4.35507 114.218 4.48696 114.624 4.71826C115.025 4.94957 115.36 5.2458 115.628 5.60696C115.896 5.96406 116.076 6.31913 116.17 6.67217C116.263 7.02116 116.31 7.3458 116.31 7.64609C116.31 7.78 116.293 7.99304 116.261 8.28522C116.229 8.57333 116.097 8.91623 115.865 9.31391C115.707 9.58174 115.522 9.81913 115.311 10.0261C115.1 10.233 114.869 10.4096 114.618 10.5557C114.366 10.6977 114.1 10.8072 113.82 10.8843C113.544 10.9574 113.264 10.9939 112.98 10.9939V11H109.109V8.9913H110.265ZM111.647 7.85304C111.663 8.02754 111.718 8.19188 111.811 8.34609C111.929 8.54899 112.075 8.70725 112.25 8.82087C112.428 8.93043 112.623 8.99739 112.834 9.02174H113.151C113.321 9.00957 113.496 8.95275 113.674 8.8513C113.828 8.76203 113.958 8.64638 114.064 8.50435C114.173 8.35826 114.248 8.2142 114.289 8.07217C114.329 7.93014 114.35 7.80029 114.35 7.68261C114.35 7.62986 114.342 7.54667 114.325 7.43304C114.313 7.31536 114.258 7.17536 114.161 7.01304C114.064 6.85072 113.944 6.71681 113.802 6.6113C113.66 6.50174 113.518 6.4287 113.376 6.39217C113.238 6.35565 113.11 6.33739 112.992 6.33739C112.936 6.33739 112.848 6.34551 112.731 6.36174C112.613 6.37391 112.475 6.42464 112.317 6.51391C112.154 6.6113 112.02 6.73304 111.915 6.87913C111.809 7.02116 111.736 7.16319 111.696 7.30522C111.655 7.44725 111.635 7.5771 111.635 7.69478C111.635 7.74754 111.639 7.80029 111.647 7.85304ZM111.726 2.30174C111.726 2.13942 111.757 1.98522 111.818 1.83913C111.878 1.69304 111.962 1.56725 112.067 1.46174C112.177 1.35217 112.302 1.26696 112.445 1.20609C112.591 1.14116 112.745 1.1087 112.907 1.1087C113.073 1.1087 113.226 1.14116 113.364 1.20609C113.506 1.26696 113.629 1.35217 113.735 1.46174C113.845 1.56725 113.93 1.69304 113.991 1.83913C114.056 1.98522 114.088 2.13942 114.088 2.30174C114.088 2.46812 114.056 2.62435 113.991 2.77043C113.93 2.91246 113.845 3.03623 113.735 3.14174C113.629 3.24725 113.506 3.33246 113.364 3.39739C113.226 3.45826 113.073 3.4887 112.907 3.4887C112.745 3.4887 112.591 3.45826 112.445 3.39739C112.302 3.33246 112.177 3.24725 112.067 3.14174C111.962 3.03623 111.878 2.91246 111.818 2.77043C111.757 2.62435 111.726 2.46812 111.726 2.30174Z" fill="#737373"/>
</svg>
