<svg width="40" height="40" viewBox="0 0 40 40" fill="none" xmlns="http://www.w3.org/2000/svg">
<g clip-path="url(#clip0_2365_447)">
<path d="M21.5 2.02073L34.8205 9.71132C35.7487 10.2472 36.3205 11.2376 36.3205 12.3094V27.6906C36.3205 28.7624 35.7487 29.7528 34.8205 30.2887L21.5 37.9793C20.5718 38.5152 19.4282 38.5152 18.5 37.9793L5.17949 30.2887C4.25129 29.7528 3.67949 28.7624 3.67949 27.6906V12.3094C3.67949 11.2376 4.25129 10.2472 5.17949 9.71132L18.5 2.02073C19.4282 1.48483 20.5718 1.48483 21.5 2.02073Z" stroke="#8133F1" stroke-width="2"/>
<path d="M6.49977 24V22.032H7.09977V16.632H6.49977V14.664H13.6758V17.772H11.5518V16.632H10.4598V18.624H12.2718V19.992H10.4598V22.032H12.0318V24H6.49977ZM13.1265 24V22.032H14.9985V24H13.1265ZM19.5362 24.168C18.7682 24.168 18.0402 24.104 17.3522 23.976C16.6722 23.84 16.1482 23.688 15.7802 23.52V21.144H18.4202C18.4202 21.392 18.4762 21.572 18.5882 21.684C18.7002 21.796 18.9042 21.852 19.2002 21.852C19.4482 21.852 19.6242 21.816 19.7282 21.744C19.8402 21.664 19.8962 21.548 19.8962 21.396C19.8962 21.268 19.8442 21.16 19.7402 21.072C19.6362 20.976 19.4562 20.88 19.2002 20.784L18.1682 20.424C17.2802 20.088 16.6402 19.692 16.2482 19.236C15.8642 18.78 15.6722 18.164 15.6722 17.388C15.6722 16.444 15.9802 15.728 16.5962 15.24C17.2202 14.744 18.2562 14.496 19.7042 14.496C20.4002 14.496 21.0522 14.568 21.6602 14.712C22.2762 14.848 22.7722 15.032 23.1482 15.264V17.412H20.7482C20.7482 17.012 20.5002 16.812 20.0042 16.812C19.7642 16.812 19.5922 16.844 19.4882 16.908C19.3922 16.964 19.3442 17.068 19.3442 17.22C19.3442 17.356 19.4002 17.464 19.5122 17.544C19.6322 17.624 19.8242 17.708 20.0882 17.796L21.1322 18.156C21.9802 18.444 22.5962 18.82 22.9802 19.284C23.3722 19.74 23.5682 20.34 23.5682 21.084C23.5682 22.1 23.2242 22.868 22.5362 23.388C21.8562 23.908 20.8562 24.168 19.5362 24.168ZM33.5021 16.632H32.9021V22.032H33.5021V24H28.9661V22.032H29.5421V20.052H27.8621V22.032H28.4381V24H23.9021V22.032H24.5021V16.632H23.9021V14.664H28.4381V16.632H27.8621V18.456H29.5421V16.632H28.9661V14.664H33.5021V16.632Z" fill="#8133F1"/>
</g>
<defs>
<clipPath id="clip0_2365_447">
<rect width="40" height="40" fill="white"/>
</clipPath>
</defs>
</svg>
