<svg width="48" height="48" viewBox="0 0 48 48" fill="none" xmlns="http://www.w3.org/2000/svg">
<g clip-path="url(#clip0_2264_5064)">
<path d="M23 2.88675C23.6188 2.52949 24.3812 2.52949 25 2.88675L41.7846 12.5774C42.4034 12.9346 42.7846 13.5949 42.7846 14.3094V33.6906C42.7846 34.4051 42.4034 35.0654 41.7846 35.4226L25 45.1132C24.3812 45.4705 23.6188 45.4705 23 45.1132L6.21539 35.4226C5.59659 35.0654 5.21539 34.4051 5.21539 33.6906V14.3094C5.21539 13.5949 5.59659 12.9346 6.21539 12.5774L23 2.88675Z" stroke="#737373" stroke-width="4"/>
<path d="M10.4998 28V26.032H11.0998V20.632H10.4998V18.664H17.6758V21.772H15.5518V20.632H14.4598V22.624H16.2718V23.992H14.4598V26.032H16.0318V28H10.4998ZM17.1265 28V26.032H18.9985V28H17.1265ZM23.5362 28.168C22.7682 28.168 22.0402 28.104 21.3522 27.976C20.6722 27.84 20.1482 27.688 19.7802 27.52V25.144H22.4202C22.4202 25.392 22.4762 25.572 22.5882 25.684C22.7002 25.796 22.9042 25.852 23.2002 25.852C23.4482 25.852 23.6242 25.816 23.7282 25.744C23.8402 25.664 23.8962 25.548 23.8962 25.396C23.8962 25.268 23.8442 25.16 23.7402 25.072C23.6362 24.976 23.4562 24.88 23.2002 24.784L22.1682 24.424C21.2802 24.088 20.6402 23.692 20.2482 23.236C19.8642 22.78 19.6722 22.164 19.6722 21.388C19.6722 20.444 19.9802 19.728 20.5962 19.24C21.2202 18.744 22.2562 18.496 23.7042 18.496C24.4002 18.496 25.0522 18.568 25.6602 18.712C26.2762 18.848 26.7722 19.032 27.1482 19.264V21.412H24.7482C24.7482 21.012 24.5002 20.812 24.0042 20.812C23.7642 20.812 23.5922 20.844 23.4882 20.908C23.3922 20.964 23.3442 21.068 23.3442 21.22C23.3442 21.356 23.4002 21.464 23.5122 21.544C23.6322 21.624 23.8242 21.708 24.0882 21.796L25.1322 22.156C25.9802 22.444 26.5962 22.82 26.9802 23.284C27.3722 23.74 27.5682 24.34 27.5682 25.084C27.5682 26.1 27.2242 26.868 26.5362 27.388C25.8562 27.908 24.8562 28.168 23.5362 28.168ZM37.5021 20.632H36.9021V26.032H37.5021V28H32.9661V26.032H33.5421V24.052H31.8621V26.032H32.4381V28H27.9021V26.032H28.5021V20.632H27.9021V18.664H32.4381V20.632H31.8621V22.456H33.5421V20.632H32.9661V18.664H37.5021V20.632Z" fill="#737373"/>
</g>
<defs>
<clipPath id="clip0_2264_5064">
<rect width="48" height="48" fill="white"/>
</clipPath>
</defs>
</svg>
