<svg width="56" height="56" viewBox="0 0 56 56" fill="none" xmlns="http://www.w3.org/2000/svg">
<g clip-path="url(#clip0_1870_524)">
<path d="M27 2.88675C27.6188 2.52949 28.3812 2.52949 29 2.88675L49.2487 14.5774C49.8675 14.9346 50.2487 15.5949 50.2487 16.3094V39.6906C50.2487 40.4051 49.8675 41.0654 49.2487 41.4226L29 53.1132C28.3812 53.4705 27.6188 53.4705 27 53.1132L6.75129 41.4226C6.13249 41.0654 5.75129 40.4051 5.75129 39.6906V16.3094C5.75129 15.5949 6.13249 14.9346 6.75129 14.5774L27 2.88675Z" stroke="#9654F4" stroke-width="4"/>
<path d="M9.49969 34V31.376H10.2997V24.176H9.49969V21.552H19.0677V25.696H16.2357V24.176H14.7797V26.832H17.1957V28.656H14.7797V31.376H16.8757V34H9.49969ZM18.3353 34V31.376H20.8313V34H18.3353ZM26.8816 34.224C25.8576 34.224 24.8869 34.1387 23.9696 33.968C23.0629 33.7867 22.3642 33.584 21.8736 33.36V30.192H25.3936C25.3936 30.5227 25.4682 30.7627 25.6176 30.912C25.7669 31.0613 26.0389 31.136 26.4336 31.136C26.7642 31.136 26.9989 31.088 27.1376 30.992C27.2869 30.8853 27.3616 30.7307 27.3616 30.528C27.3616 30.3573 27.2922 30.2133 27.1536 30.096C27.0149 29.968 26.7749 29.84 26.4336 29.712L25.0576 29.232C23.8736 28.784 23.0202 28.256 22.4976 27.648C21.9856 27.04 21.7296 26.2187 21.7296 25.184C21.7296 23.9253 22.1402 22.9707 22.9616 22.32C23.7936 21.6587 25.1749 21.328 27.1056 21.328C28.0336 21.328 28.9029 21.424 29.7136 21.616C30.5349 21.7973 31.1962 22.0427 31.6976 22.352V25.216H28.4976C28.4976 24.6827 28.1669 24.416 27.5056 24.416C27.1856 24.416 26.9562 24.4587 26.8176 24.544C26.6896 24.6187 26.6256 24.7573 26.6256 24.96C26.6256 25.1413 26.7002 25.2853 26.8496 25.392C27.0096 25.4987 27.2656 25.6107 27.6176 25.728L29.0096 26.208C30.1402 26.592 30.9616 27.0933 31.4736 27.712C31.9962 28.32 32.2576 29.12 32.2576 30.112C32.2576 31.4667 31.7989 32.4907 30.8816 33.184C29.9749 33.8773 28.6416 34.224 26.8816 34.224ZM45.5028 24.176H44.7028V31.376H45.5028V34H39.4548V31.376H40.2228V28.736H37.9828V31.376H38.7508V34H32.7028V31.376H33.5028V24.176H32.7028V21.552H38.7508V24.176H37.9828V26.608H40.2228V24.176H39.4548V21.552H45.5028V24.176Z" fill="#9654F4"/>
</g>
<defs>
<clipPath id="clip0_1870_524">
<rect width="56" height="56" fill="white"/>
</clipPath>
</defs>
</svg>
