<svg width="36" height="12" viewBox="0 0 36 12" fill="none" xmlns="http://www.w3.org/2000/svg">
<path d="M0.151304 7.4713C0.151304 7.17565 0.292174 6.93217 0.573913 6.74087C0.709565 6.65739 0.850435 6.61565 0.996522 6.61565H1.86783V8.90087C1.87478 9.05043 1.90957 9.1913 1.97217 9.32348C2.03826 9.45913 2.12348 9.57739 2.22783 9.67826C2.33217 9.77913 2.45217 9.85913 2.58783 9.91826C2.72348 9.97739 2.87304 10.007 3.03652 10.007H6.0887C6.2313 10.0035 6.36696 9.97391 6.49565 9.91826C6.62435 9.86609 6.73913 9.79478 6.84 9.70435C6.94087 9.61391 7.02261 9.50783 7.08522 9.38609C7.1513 9.26435 7.1913 9.13565 7.20522 9H5.88522V7.27826H9.56348V9H8.94783C8.92696 9.3687 8.84174 9.71304 8.69217 10.033C8.54261 10.3565 8.34435 10.64 8.09739 10.8835C7.85043 11.127 7.56522 11.3235 7.24174 11.473C6.91826 11.6261 6.57217 11.7113 6.20348 11.7287H2.97913C2.59652 11.7217 2.23652 11.6435 1.89913 11.4939C1.56522 11.3478 1.26957 11.1496 1.01217 10.8991C0.758261 10.6522 0.554783 10.3617 0.401739 10.0278C0.248696 9.69391 0.165217 9.33565 0.151304 8.95304V7.4713ZM9.31239 7.25217H10.1107C10.0307 7.07826 9.96978 6.89565 9.92804 6.70435C9.89674 6.54783 9.87761 6.38609 9.87065 6.21913H9.855V3.22435H15.7298V6.21913H15.7141C15.7072 6.38609 15.688 6.54783 15.6567 6.70435C15.615 6.89565 15.5541 7.07826 15.4741 7.25217H16.2724V8.98957H9.31239V7.25217ZM11.5976 4.94609V6.10957C11.5976 6.14435 11.5993 6.18087 11.6028 6.21913C11.6098 6.33043 11.6376 6.43826 11.6863 6.54261C11.742 6.68522 11.8185 6.8087 11.9159 6.91304C12.0167 7.01391 12.135 7.09565 12.2707 7.15826C12.4063 7.21739 12.5524 7.2487 12.7089 7.25217H12.9489C13.095 7.23826 13.2307 7.2 13.3559 7.13739C13.4811 7.0713 13.5907 6.98783 13.6846 6.88696C13.7785 6.78261 13.855 6.66435 13.9141 6.53217C13.9559 6.43478 13.9802 6.33043 13.9872 6.21913C13.9907 6.18087 13.9924 6.14435 13.9924 6.10957V4.94609H11.5976ZM16.0493 8.99478V7.25739L20.1919 7.27826V9L16.0493 8.99478ZM18.4702 10.1322C18.5224 10.007 18.5937 9.89739 18.6841 9.80348C18.778 9.71304 18.8858 9.64 19.0076 9.58435C19.1328 9.53217 19.265 9.50609 19.4041 9.50609C19.5467 9.50609 19.6771 9.53217 19.7954 9.58435C19.9171 9.64 20.0232 9.71304 20.1137 9.80348C20.2076 9.89739 20.2806 10.007 20.3328 10.1322C20.385 10.2574 20.411 10.3896 20.411 10.5287C20.411 10.6713 20.385 10.8035 20.3328 10.9252C20.2806 11.047 20.2076 11.153 20.1137 11.2435C20.0232 11.3374 19.9171 11.4104 19.7954 11.4626C19.6771 11.5148 19.5467 11.5409 19.4041 11.5409C19.265 11.5409 19.1328 11.5148 19.0076 11.4626C18.8858 11.4104 18.778 11.3374 18.6841 11.2435C18.5937 11.153 18.5224 11.047 18.4702 10.9252C18.418 10.8035 18.3919 10.6713 18.3919 10.5287C18.3919 10.3896 18.418 10.2574 18.4702 10.1322ZM16.1484 10.5287C16.1484 10.3896 16.1745 10.2574 16.2267 10.1322C16.2789 10.007 16.3502 9.89739 16.4406 9.80348C16.5345 9.71304 16.6424 9.64 16.7641 9.58435C16.8893 9.53217 17.0215 9.50609 17.1606 9.50609C17.3032 9.50609 17.4337 9.53217 17.5519 9.58435C17.6737 9.64 17.7797 9.71304 17.8702 9.80348C17.9641 9.89739 18.0371 10.007 18.0893 10.1322C18.1415 10.2574 18.1676 10.3896 18.1676 10.5287C18.1676 10.6713 18.1415 10.8035 18.0893 10.9252C18.0371 11.047 17.9641 11.153 17.8702 11.2435C17.7797 11.3374 17.6737 11.4104 17.5519 11.4626C17.4337 11.5148 17.3032 11.5409 17.1606 11.5409C17.0215 11.5409 16.8893 11.5148 16.7641 11.4626C16.6424 11.4104 16.5345 11.3374 16.4406 11.2435C16.3502 11.153 16.2789 11.047 16.2267 10.9252C16.1745 10.8035 16.1484 10.6713 16.1484 10.5287ZM20.8593 7.27826C20.7167 6.94435 20.6419 6.68 20.635 6.48522C20.628 6.28696 20.6245 6.1687 20.6245 6.13043C20.6245 5.82087 20.6732 5.51304 20.7706 5.20696C20.8715 4.90087 21.0315 4.6087 21.2506 4.33043C21.4697 4.05217 21.7411 3.81913 22.0645 3.6313C22.4054 3.43304 22.6993 3.32 22.9463 3.29217C23.1967 3.26435 23.3793 3.25043 23.4941 3.25043C23.7515 3.25043 24.0297 3.29043 24.3289 3.37043C24.6315 3.45043 24.9358 3.60522 25.2419 3.83478C25.548 4.06435 25.8019 4.3513 26.0037 4.69565C26.1393 4.93217 26.2367 5.17043 26.2958 5.41043C26.355 5.65043 26.3845 5.88522 26.3845 6.11478C26.3845 6.14261 26.3845 6.1687 26.3845 6.19304C26.395 6.34261 26.4332 6.48348 26.4993 6.61565C26.5654 6.74435 26.6489 6.85739 26.7497 6.95478C26.8541 7.05217 26.9724 7.13043 27.1045 7.18957C27.2402 7.2487 27.3845 7.27826 27.5376 7.27826V9C27.148 9 26.7828 8.92348 26.4419 8.77043C26.1011 8.61739 25.8019 8.41739 25.5445 8.17043C25.3706 8.34435 25.1724 8.49565 24.9497 8.62435C24.6854 8.77391 24.4315 8.87652 24.188 8.93217C23.948 8.98435 23.7289 9.01043 23.5306 9.01043C23.4471 9.01043 23.3637 9.00696 23.2802 9H20.0611L20.0141 7.27826H20.8593ZM22.3358 6.43304C22.3741 6.57565 22.4384 6.70783 22.5289 6.82957C22.6193 6.9513 22.7324 7.05217 22.868 7.13217C23.0211 7.21565 23.1706 7.26435 23.3167 7.27826H23.588C23.7689 7.25391 23.9341 7.19478 24.0837 7.10087C24.2367 7.00348 24.3654 6.86957 24.4697 6.69913C24.5463 6.56348 24.5897 6.4487 24.6002 6.35478C24.6106 6.25739 24.6158 6.18609 24.6158 6.14087C24.6158 6.03652 24.5984 5.92348 24.5637 5.80174C24.5324 5.68 24.4697 5.55826 24.3758 5.43652C24.2854 5.3113 24.1706 5.2087 24.0315 5.1287C23.8958 5.0487 23.7776 5.00348 23.6767 4.99304C23.5758 4.97913 23.5028 4.97217 23.4576 4.97217C23.3567 4.97217 23.2454 4.98783 23.1237 5.01913C23.0054 5.05043 22.8837 5.11304 22.7584 5.20696C22.6367 5.29739 22.5341 5.41391 22.4506 5.55652C22.3706 5.69217 22.3237 5.81043 22.3097 5.9113C22.2993 6.01217 22.2941 6.08522 22.2941 6.13043C22.2941 6.23478 22.308 6.33565 22.3358 6.43304ZM22.6176 1.14783C22.6697 1.02261 22.7411 0.914783 22.8315 0.824348C22.9254 0.730435 23.0332 0.657391 23.155 0.605217C23.2802 0.549565 23.4124 0.521739 23.5515 0.521739C23.6941 0.521739 23.8245 0.549565 23.9428 0.605217C24.0645 0.657391 24.1706 0.730435 24.2611 0.824348C24.355 0.914783 24.428 1.02261 24.4802 1.14783C24.5324 1.27304 24.5584 1.40522 24.5584 1.54435C24.5584 1.68696 24.5324 1.82087 24.4802 1.94609C24.428 2.06783 24.355 2.17391 24.2611 2.26435C24.1706 2.35478 24.0645 2.42783 23.9428 2.48348C23.8245 2.53565 23.6941 2.56174 23.5515 2.56174C23.4124 2.56174 23.2802 2.53565 23.155 2.48348C23.0332 2.42783 22.9254 2.35478 22.8315 2.26435C22.7411 2.17391 22.6697 2.06783 22.6176 1.94609C22.5654 1.82087 22.5393 1.68696 22.5393 1.54435C22.5393 1.40522 22.5654 1.27304 22.6176 1.14783ZM34.164 7.26783C34.4736 7.26783 34.7258 7.4087 34.9206 7.69043C35.0075 7.83304 35.1484 8.26957 35.3432 9H27.324V7.26783H34.164ZM28.2475 4.47652C28.2475 4.33739 28.2736 4.20522 28.3258 4.08C28.3814 3.95478 28.4545 3.84696 28.5449 3.75652C28.6388 3.66261 28.7466 3.58783 28.8684 3.53217C28.9901 3.47652 29.1223 3.4487 29.2649 3.4487C29.404 3.4487 29.5345 3.47652 29.6562 3.53217C29.7779 3.58783 29.884 3.66261 29.9745 3.75652C30.0684 3.84696 30.1414 3.95478 30.1936 4.08C30.2458 4.20522 30.2719 4.33739 30.2719 4.47652C30.2719 4.61565 30.2458 4.74783 30.1936 4.87304C30.1414 4.99478 30.0684 5.10261 29.9745 5.19652C29.884 5.28696 29.7779 5.35826 29.6562 5.41043C29.5345 5.46261 29.404 5.4887 29.2649 5.4887C29.1223 5.4887 28.9901 5.46261 28.8684 5.41043C28.7466 5.35826 28.6388 5.28696 28.5449 5.19652C28.4545 5.10261 28.3814 4.99478 28.3258 4.87304C28.2736 4.74783 28.2475 4.61565 28.2475 4.47652ZM32.7553 4.08C32.8075 3.95478 32.8788 3.84696 32.9692 3.75652C33.0597 3.66261 33.1658 3.58783 33.2875 3.53217C33.4127 3.47652 33.5466 3.4487 33.6892 3.4487C33.8284 3.4487 33.9588 3.47652 34.0806 3.53217C34.2023 3.58783 34.3084 3.66261 34.3988 3.75652C34.4892 3.84696 34.5606 3.95478 34.6127 4.08C34.6684 4.20522 34.6962 4.33739 34.6962 4.47652C34.6962 4.61565 34.6684 4.74783 34.6127 4.87304C34.5606 4.99478 34.4892 5.10261 34.3988 5.19652C34.3084 5.28696 34.2023 5.35826 34.0806 5.41043C33.9588 5.46261 33.8284 5.4887 33.6892 5.4887C33.5466 5.4887 33.4127 5.46261 33.2875 5.41043C33.1658 5.35826 33.0597 5.28696 32.9692 5.19652C32.8788 5.10261 32.8058 4.99478 32.7501 4.87304C32.6979 4.74783 32.6719 4.61565 32.6719 4.47652C32.6719 4.33739 32.6997 4.20522 32.7553 4.08ZM30.4284 4.47652C30.4284 4.33739 30.4545 4.20522 30.5066 4.08C30.5623 3.95478 30.6353 3.84696 30.7258 3.75652C30.8162 3.66261 30.9223 3.58783 31.044 3.53217C31.1692 3.47652 31.3032 3.4487 31.4458 3.4487C31.5849 3.4487 31.7153 3.47652 31.8371 3.53217C31.9588 3.58783 32.0649 3.66261 32.1553 3.75652C32.2458 3.84696 32.3171 3.95478 32.3692 4.08C32.4249 4.20522 32.4527 4.33739 32.4527 4.47652C32.4527 4.61565 32.4249 4.74783 32.3692 4.87304C32.3171 4.99478 32.2458 5.10261 32.1553 5.19652C32.0649 5.28696 31.9588 5.35826 31.8371 5.41043C31.7153 5.46261 31.5849 5.4887 31.4458 5.4887C31.3032 5.4887 31.1692 5.46261 31.044 5.41043C30.9223 5.35826 30.8162 5.28696 30.7258 5.19652C30.6353 5.10261 30.5623 4.99478 30.5066 4.87304C30.4545 4.74783 30.4284 4.61565 30.4284 4.47652Z" fill="#8133f1"/>
</svg>
