<svg width="446" height="368" viewBox="0 0 446 368" fill="none" xmlns="http://www.w3.org/2000/svg">
<g opacity="0.4">
<path d="M182.371 46.572C163.425 53.121 150.034 38.421 131.171 47.154C112.308 55.887 106.469 89.073 97.486 111.197C88.503 133.321 70.089 132.156 40.447 143.8C10.805 155.444 -15.245 223.562 11.703 274.214C38.65 324.866 84.461 356.887 143.746 331.27C203.031 305.653 278.933 338.839 313.965 351.065C348.997 363.291 417.713 337.092 429.391 278.289C441.068 219.486 389.419 193.869 387.622 165.341C385.826 136.813 383.131 85.579 326.541 84.997C269.951 84.415 292.139 21.337 246.597 19.79C213.576 18.668 195.844 41.914 182.371 46.572Z" fill="#ACD5D4"/>
<path d="M339.672 35.172C308.999 30.223 293.921 59.127 313.204 59.733C332.486 60.338 353.191 57.841 356.424 72.795C359.657 87.75 387.688 62.193 369.309 55.249C350.929 48.304 364.062 39.107 339.672 35.172Z" fill="#ACD5D4"/>
<path d="M408.721 133.015C395.475 139.966 407.762 192.709 424.391 193.538C441.02 194.367 433.665 176.127 427.269 165.349C420.873 154.571 422.153 125.968 408.721 133.015Z" fill="#ACD5D4"/>
<path d="M396.74 77.7481C385.371 79.6501 388.106 98.4751 398.019 95.9881C407.933 93.5011 406.654 76.0901 396.74 77.7481Z" fill="#ACD5D4"/>
<path d="M178.326 4.19509C152.289 17.8671 157.54 43.1621 184.722 28.6531C211.904 14.1441 203.589 -9.07091 178.326 4.19509Z" fill="#ACD5D4"/>
<path d="M56.988 75.081C28.961 87.545 7.42097 114.048 16.055 128.142C24.689 142.236 37.8 118.193 58.906 117.364C80.012 116.535 100.799 55.598 56.988 75.081Z" fill="#ACD5D4"/>
<path d="M199.43 336.934C160.018 339.041 147.672 370.481 194.929 367.564C242.187 364.647 254.001 334.017 199.43 336.934Z" fill="#ACD5D4"/>
</g>
<path opacity="0.4" d="M187.407 102.344C171.318 107.393 159.947 96.0602 143.928 102.793C127.909 109.526 122.951 135.111 115.323 152.168C107.695 169.225 92.0581 168.327 66.8861 177.304C41.7141 186.281 19.5931 238.798 42.4771 277.849C65.3611 316.9 104.263 341.587 154.607 321.837C204.951 302.087 269.407 327.672 299.156 337.098C328.905 346.524 387.258 326.325 397.175 280.99C407.092 235.655 363.231 215.905 361.705 193.911C360.179 171.917 357.891 132.417 309.835 131.968C261.779 131.519 277.171 85.6712 241.947 81.6952C214.104 78.5552 198.849 98.7532 187.407 102.344Z" fill="#ACD5D4"/>
<path d="M240.637 120.543C240.637 120.543 248.713 126.813 255.699 128.295C262.685 129.777 249.949 149.021 249.949 149.021C249.949 149.021 235.484 154.062 235.484 164.363C235.484 174.664 240.306 177.075 232.635 182.993C224.964 188.911 222.334 196.801 238.333 196.801C254.332 196.801 264.414 180.144 264.414 180.144L265.291 127.981C265.291 127.981 257.839 111.982 257.839 111.324C257.839 110.666 251.921 109.79 251.921 109.79L240.637 120.543Z" fill="#18203D"/>
<path d="M227.428 188.232C217.264 192.723 186.484 245.974 181.251 260.441C176.018 274.908 186.791 285.066 199.412 278.294C212.032 271.522 233.271 240.742 233.271 240.742L227.428 188.232Z" fill="#18203D"/>
<path d="M283.958 327.898H229.972C229.972 327.898 232.269 285.778 231.886 263.569C231.725 254.405 232.797 242.088 234.542 230.007V230C237.03 212.814 240.888 196.109 244.517 189.671C250.703 178.701 250.603 175.891 261.673 174.766C270.553 173.863 288.398 169.415 296.712 178.326C298.725 180.477 300.172 183.409 300.808 187.367C302.415 197.381 283.958 327.898 283.958 327.898Z" fill="#EFE6FD"/>
<path opacity="0.3" d="M283.958 327.898H229.972C229.972 327.898 232.269 285.778 231.886 263.569C231.725 254.405 232.797 242.088 234.542 230.007C238.217 245.073 246.309 251.879 252.226 257.1C262.691 266.332 293.458 178.333 293.458 178.333C293.458 178.333 294.629 178.302 296.711 178.325C298.724 180.476 300.171 183.408 300.807 187.366C302.415 197.381 283.958 327.898 283.958 327.898Z" fill="#4A6C8F"/>
<path d="M259.648 138.335C258.92 145.39 253.761 150.637 248.126 150.055C242.491 149.473 238.514 143.283 239.242 136.229C239.97 129.175 245.129 123.928 250.764 124.509C256.399 125.09 260.376 131.28 259.648 138.335Z" fill="#18203D"/>
<path d="M247.098 147.566L240.944 153.72C240.518 154.146 239.826 154.146 239.4 153.72C238.973 153.294 238.973 152.602 239.4 152.176L245.554 146.022C245.98 145.596 246.672 145.596 247.098 146.022C247.524 146.448 247.524 147.14 247.098 147.566Z" fill="#18203D"/>
<path d="M258.88 137.02C258.46 141.09 255.484 144.117 252.233 143.782C248.982 143.446 246.687 139.875 247.107 135.805C247.527 131.735 250.503 128.708 253.754 129.043C257.005 129.379 259.3 132.95 258.88 137.02Z" fill="white" stroke="#272525" stroke-miterlimit="10"/>
<path d="M240.942 206.46L236.54 245.112C236.54 245.112 238.094 265.062 238.775 282.057C238.905 285.303 239.005 288.442 239.058 291.312C239.372 309.226 240.627 329.65 240.627 329.65L210.143 329.022C210.143 329.022 224.597 272.77 224.283 262.397C224.122 257.191 222.698 251.121 221.397 245.44C220.111 239.806 218.94 234.569 219.253 230.971C219.888 223.744 226.174 209.919 226.174 209.919C226.174 209.919 225.539 189.801 227.43 188.231C229.313 186.662 255.848 176.371 255.848 176.371L240.942 206.46Z" fill="#8133F1"/>
<path opacity="0.3" d="M210.144 329.024C210.144 329.024 224.598 272.772 224.284 262.399C224.123 257.193 222.699 251.123 221.398 245.442C226.06 257.285 233.363 272.313 238.776 282.058C238.906 285.304 239.006 288.443 239.059 291.313C239.373 309.227 240.628 329.651 240.628 329.651L210.144 329.024Z" fill="#4A6C8F"/>
<path d="M258.541 173.462C255.652 173.944 241.145 191.76 234.515 200.071C232.694 202.354 233.13 205.69 235.476 207.428L239.685 210.546L230.832 213.724C228.768 214.465 227.402 216.429 227.419 218.621C227.506 229.89 228.658 264.795 239.057 291.313C239.057 291.313 238.429 239.773 244.714 211.803C250.998 183.832 258.541 173.462 258.541 173.462Z" fill="#B78AF7"/>
<path d="M321.707 201.43C321.477 202.854 320.574 205.794 319.257 209.721C313.293 227.413 298.763 265.139 298.763 274.654C298.763 286.283 311.969 329.651 311.969 329.651H253.512L257.914 290.999L262.04 275.007L262.943 271.516L285.565 182.575L284.623 175.034C284.623 175.034 301.281 179.114 311.341 183.202C321.393 187.291 322.962 193.576 321.707 201.43Z" fill="#8133F1"/>
<path opacity="0.3" d="M307.659 314.846C310.04 323.321 311.969 329.652 311.969 329.652H253.512L257.914 291L258.48 288.818L262.04 275.008L274.603 274.572L289.952 274.036C289.952 274.036 269.351 268.823 270.591 265.6C271.831 262.37 313.033 234.075 314.028 211.989L319.257 209.723C313.293 227.415 298.763 265.141 298.763 274.656C298.763 276.547 299.115 279.28 299.697 282.526C301.336 291.619 304.819 304.748 307.659 314.846Z" fill="#4A6C8F"/>
<path opacity="0.3" d="M307.659 314.846C291.629 306.555 269.129 294.467 258.48 288.817L262.04 275.007L274.603 274.571C282.243 277.013 291.315 279.899 299.697 282.525C301.336 291.619 304.819 304.748 307.659 314.846Z" fill="#4A6C8F"/>
<path d="M283.368 173.462C283.368 173.462 267.026 233.173 257.912 290.999C257.912 290.999 283.155 248.928 291.246 226.258C292.028 224.066 291.239 221.625 289.327 220.298L281.168 214.632L290.137 211.642C292.569 210.831 294.037 208.36 293.58 205.837C291.905 196.594 288.043 175.867 286.825 174.405C285.254 172.519 283.368 173.462 283.368 173.462Z" fill="#B78AF7"/>
<path d="M266.594 257.289L266.494 257.999L263.874 276.389C263.874 276.389 245.914 272.299 244.774 270.019C243.634 267.749 243.634 264.799 243.634 264.799C243.634 264.799 242.044 262.749 241.364 261.609C240.684 260.479 240.234 255.699 240.234 255.699C240.234 255.699 228.634 249.569 227.264 248.659C226.564 248.199 225.584 246.959 225.144 245.859C224.774 244.939 224.784 244.129 225.674 243.929C225.804 243.899 225.964 243.879 226.134 243.879C228.864 243.879 244.094 250.019 244.094 250.019C244.094 250.019 251.134 247.069 252.964 247.299C254.304 247.459 261.044 252.509 264.524 255.379C265.734 256.379 266.545 257.119 266.594 257.289Z" fill="#DD9091"/>
<path d="M266.595 257.292L263.87 276.385C263.87 276.385 245.91 272.297 244.777 270.023C243.636 267.749 243.636 264.794 243.636 264.794C243.636 264.794 242.044 262.75 241.362 261.609C240.681 260.476 240.229 255.699 240.229 255.699C240.229 255.699 228.631 249.567 227.268 248.656C225.989 247.806 223.724 244.361 225.676 243.925C231.678 249.108 243.574 253.64 243.574 253.64C243.574 253.64 248.282 264.143 251.543 266.317C254.444 268.246 258.77 264.602 264.519 255.377C265.73 256.381 266.542 257.116 266.595 257.292Z" fill="#D36E75"/>
<path d="M266.594 257.289L266.494 257.999C266.414 258.099 266.364 258.149 266.364 258.149C266.364 258.149 254.984 249.129 252.504 248.869C250.014 248.609 243.744 250.959 243.744 250.959C243.744 250.959 230.094 245.579 225.144 245.859C224.774 244.939 224.784 244.129 225.674 243.929C225.804 243.899 225.964 243.879 226.134 243.879C228.864 243.879 244.094 250.019 244.094 250.019C244.094 250.019 251.134 247.069 252.964 247.299C254.304 247.459 261.044 252.509 264.524 255.379C265.734 256.379 266.545 257.119 266.594 257.289Z" fill="white"/>
<path d="M342.139 297.284C339.62 308.285 320.451 303.255 301.596 295.715C282.741 288.167 258.542 277.173 258.542 277.173L261.298 266.968V266.96L264.276 255.944L264.827 253.915L313.225 269.624L313.217 269.616C313.095 269.095 308.095 248.587 305.646 231.676C305.049 227.55 304.605 223.638 304.421 220.285C303.625 205.678 312.704 191.523 315.529 187.489C316.057 186.746 316.363 186.348 316.363 186.348C325.167 189.801 330.824 197.027 333.649 223.431C335.616 241.728 340.141 264.847 341.894 280.985C342.675 288.136 342.912 293.908 342.139 297.284Z" fill="#8133F1"/>
<path d="M330.396 278.743C329.952 278.605 315.904 273.997 309.06 271.8C303.663 270.062 276.241 260.24 264.276 255.946L264.827 253.917L313.225 269.626C317.81 271.638 330.013 278.528 330.396 278.743Z" fill="white"/>
<path d="M341.894 280.986C337.5 271.31 332.394 240.527 330.403 219.934C328.688 202.143 322.717 192.497 315.528 187.49C316.056 186.747 316.362 186.349 316.362 186.349C325.166 189.802 330.823 197.028 333.648 223.432C335.617 241.729 340.141 264.848 341.894 280.986Z" fill="white"/>
<path opacity="0.3" d="M342.139 297.284C339.62 308.285 320.451 303.255 301.596 295.715C282.741 288.167 258.542 277.173 258.542 277.173L261.298 266.968C270.538 272.327 320.345 291.167 331.805 290.746C337.562 290.532 340.402 285.824 341.895 280.985C342.675 288.136 342.912 293.908 342.139 297.284Z" fill="#4A6C8F"/>
<path opacity="0.3" d="M329.362 271.202L313.224 269.625C313.224 269.625 313.224 269.625 313.216 269.617C313.094 269.096 308.094 248.588 305.645 231.677C313.753 246.414 329.362 271.202 329.362 271.202Z" fill="#4A6C8F"/>
<path d="M280.965 154.012L282.197 179C282.197 179 280.474 180.723 277.581 182.414C274.978 183.937 271.441 185.445 267.353 185.683C258.695 186.181 256.467 182.713 256.467 182.713L256.567 173.932L256.712 161.431C256.712 161.431 253.152 161.906 250.121 159.601H250.113C248.222 158.169 246.546 155.658 246.071 151.287C245.053 141.871 247.418 121.806 255.533 114.587L255.541 114.579C257.24 113.063 259.193 112.114 261.413 111.946C261.413 111.946 264.23 111.525 267.943 111.395C274.902 111.158 285.022 111.923 285.665 118.377C286.653 128.275 280.965 154.012 280.965 154.012Z" fill="#DD9091"/>
<path d="M280.965 154.012L282.197 179C282.197 179 280.474 180.723 277.581 182.414C274.687 179.75 273.087 175.44 273.646 169.155C275.047 153.461 266.917 158.866 266.917 158.866C271.954 150.774 274.121 125.243 267.943 111.395C274.902 111.158 285.022 111.923 285.665 118.377C286.653 128.275 280.965 154.012 280.965 154.012Z" fill="#D36E75"/>
<path d="M250.113 159.601C248.222 158.169 246.546 155.658 246.071 151.287C245.053 141.871 247.418 121.806 255.533 114.587C248.965 127.586 246.676 147.329 250.113 159.601Z" fill="white"/>
<path d="M268.9 161.086C266.335 165.319 262.071 171.099 256.567 173.932L256.712 161.431C256.712 161.431 261.382 161.531 266.917 158.866C268.302 158.2 269.696 159.769 268.9 161.086Z" fill="#D36E75"/>
<path d="M252.606 155.329H249.566C248.202 155.329 247.096 154.223 247.096 152.859C247.096 151.495 248.202 150.389 249.566 150.389H252.606C253.97 150.389 255.076 151.495 255.076 152.859C255.076 154.224 253.97 155.329 252.606 155.329Z" fill="#18203D"/>
<path d="M248.874 154.04H240.171C239.568 154.04 239.079 153.551 239.079 152.948C239.079 152.345 239.568 151.856 240.171 151.856H248.874C249.477 151.856 249.966 152.345 249.966 152.948C249.966 153.551 249.478 154.04 248.874 154.04Z" fill="#18203D"/>
<path d="M302.806 106.304C302.806 107.054 302.714 107.782 302.538 108.478C302.117 110.124 301.237 111.586 300.035 112.719C298.466 114.189 296.337 115.1 294.01 115.1C289.157 115.1 285.214 111.165 285.214 106.304C285.214 106.044 285.222 105.784 285.252 105.531C285.398 103.763 286.079 102.147 287.12 100.838C288.728 98.8091 291.223 97.5081 294.01 97.5081C298.871 97.5081 302.806 101.443 302.806 106.304Z" fill="#82435C"/>
<path d="M302.806 106.304C302.806 107.054 302.714 107.782 302.538 108.478C302.178 104.857 300.479 101.205 295.702 99.7891C291.959 98.6791 289.118 99.5361 287.12 100.838C288.728 98.8091 291.223 97.5081 294.01 97.5081C298.871 97.5081 302.806 101.443 302.806 106.304Z" fill="white"/>
<path d="M300.034 112.719C298.465 114.189 296.336 115.1 294.009 115.1C289.156 115.1 285.213 111.165 285.213 106.304C285.213 106.044 285.221 105.784 285.251 105.531C288.152 103.564 292.662 101.512 296.627 104.015C299.766 105.997 300.57 109.412 300.034 112.719Z" fill="#4B1C4A"/>
<path d="M340.669 187.681C340.669 188.102 340.654 188.523 340.638 188.921C340.638 188.921 340.638 188.929 340.638 188.936H340.63C339.972 200.947 329.928 203.451 329.928 203.451C328.917 196.577 318.345 185.323 310.46 188.347C302.567 191.363 290.479 192.045 291.153 183.317C291.827 174.582 281.752 176.595 278.062 170.387C274.372 164.178 279.57 153.109 279.57 153.109L281.254 140.347C281.254 140.347 281.177 140.217 281.024 139.972C280.435 139.046 278.781 136.489 276.385 133.296C273.361 129.269 274.877 121.04 274.877 121.04C274.877 121.04 275.696 114.977 276.86 111.907C276.63 112.19 272.902 116.891 270.613 122.862C266.778 124.156 261.005 125.304 256.075 122.885C253.97 121.859 251.933 121.201 250.066 120.803C250.916 116.562 253.22 112.665 253.358 112.428C250.51 114.503 248.65 117.994 247.639 120.397C243.49 119.884 240.634 120.542 240.634 120.542C240.634 120.542 240.634 120.534 240.642 120.511C245.029 100.239 276.385 105.093 276.385 105.093C295.684 104.595 300.385 122.218 297.529 134.138C294.674 146.05 300.882 161.659 310.291 159.983C319.684 158.307 321.2 167.7 323.887 171.397C326.568 175.088 340.669 174.583 340.669 187.681Z" fill="#82435C"/>
<path d="M340.669 187.681C340.669 188.102 340.654 188.523 340.638 188.921C339.589 175.31 324.753 178.533 321.147 171.451C317.411 164.102 318.284 162.356 310.567 162.479C302.843 162.609 297.116 157.128 295.493 145.92C293.878 134.713 297.116 128.611 293.755 118.031C290.394 107.443 275.451 103.83 259.757 106.571C244.561 109.227 240.863 119.846 240.641 120.512C245.028 100.24 276.384 105.094 276.384 105.094C295.683 104.596 300.384 122.219 297.528 134.139C294.673 146.051 300.881 161.66 310.29 159.984C319.683 158.308 321.199 167.701 323.886 171.398C326.568 175.088 340.669 174.583 340.669 187.681Z" fill="white"/>
<path d="M340.631 188.937C339.973 200.948 329.929 203.452 329.929 203.452C328.918 196.578 318.346 185.324 310.461 188.348C302.568 191.364 290.48 192.046 291.154 183.318C291.828 174.583 281.753 176.596 278.063 170.388C274.373 164.179 279.571 153.11 279.571 153.11L281.255 140.348C281.255 140.348 281.178 140.218 281.025 139.973C287.18 144.429 294.231 147.062 291.789 155.621C287.701 169.929 308.141 158.691 310.392 170.748C312.643 182.805 320.612 176.88 327.77 184.038C332.524 188.791 337.554 191.47 340.631 188.937Z" fill="#4B1C4A"/>
<path d="M288.094 127.116C288.094 127.116 288.196 110.038 276.402 103.526H266.819C266.819 103.526 280.218 108.121 280.211 128.222L288.094 127.116Z" fill="#E5D157"/>
<path d="M284.654 151.155C290.319 151.155 294.911 145.406 294.911 138.314C294.911 131.222 290.319 125.473 284.654 125.473C278.989 125.473 274.397 131.222 274.397 138.314C274.397 145.406 278.989 151.155 284.654 151.155Z" fill="#18203D"/>
<path d="M288.094 144.494C291.362 144.494 294.012 141.177 294.012 137.085C294.012 132.993 291.362 129.676 288.094 129.676C284.826 129.676 282.176 132.993 282.176 137.085C282.176 141.177 284.826 144.494 288.094 144.494Z" fill="#E5D157"/>
<path d="M240.643 153.928C240.046 152.849 236.264 154.54 232.865 157.503C228.884 160.963 228.494 161.193 228.494 161.193C228.494 161.193 224.184 162.165 223.641 162.272C223.105 162.379 222.133 164.102 222.133 164.102C222.133 164.102 220.411 164.424 219.125 165.074C217.831 165.717 215.779 168.09 215.779 168.09C215.779 168.09 213.306 168.519 212.549 169.376C211.852 170.18 209.387 178.233 208.959 181.265C208.921 181.502 208.898 181.701 208.89 181.87C208.783 184.243 209.104 186.073 209.104 186.073L208.691 187.091V187.099L206.632 192.213L220.228 194.9C220.228 194.9 222.555 191.348 225.801 188.982C227.776 187.543 231.106 184.986 231.834 184.136C233.733 181.885 235.294 171.007 236.504 169.101C237.714 167.195 236.504 165.296 234.942 166.506C234.689 166.705 234.353 167.08 233.962 167.57C233.947 167.524 233.931 167.493 233.916 167.455V167.447C233.908 167.409 233.893 167.37 233.878 167.332C233.702 166.896 232.875 165.962 231.941 165.005C235.271 161.116 240.194 156.362 240.661 154.731C240.758 154.38 240.751 154.112 240.643 153.928ZM228.709 175.509C228.709 175.509 228.479 173.649 228.678 171.268V171.237C228.716 171.268 228.762 171.283 228.801 171.314C228.809 171.322 228.816 171.322 228.816 171.322C229.52 171.758 230.362 171.842 231.074 171.712C229.788 173.718 228.709 175.509 228.709 175.509ZM232.307 169.216H232.315C232.46 169.254 232.575 169.27 232.698 169.285C232.537 169.522 232.369 169.744 232.201 169.989C231.895 169.66 231.474 169.254 230.999 168.81L231.183 168.841C231.618 169.025 231.993 169.147 232.307 169.216Z" fill="#DD9091"/>
<path d="M236.502 169.101C235.292 171.007 233.731 181.886 231.832 184.136C231.105 184.986 227.775 187.543 225.799 188.982C222.553 191.348 220.226 194.9 220.226 194.9L206.63 192.213L208.689 187.099V187.091C214.653 184.702 216.23 182.574 216.23 181.434C216.23 180.232 216.215 173.365 216.215 173.365C216.215 173.365 218.504 172.355 219.017 172.5C219.522 172.653 224.246 173.824 224.828 173.579C225.417 173.334 221.972 170.486 221.972 170.486C221.972 170.486 222.508 169.682 223.71 169.682C224.782 169.682 227.982 170.976 228.678 171.267C228.479 173.648 228.709 175.508 228.709 175.508C228.709 175.508 229.788 173.717 231.075 171.711C231.075 171.711 232.277 171.29 232.277 171.068C232.277 170.946 232.239 170.433 232.2 169.989C232.169 169.606 232.146 169.277 232.146 169.277L232.307 169.216H232.315L233.532 168.78L233.915 167.456C233.93 167.494 233.946 167.525 233.961 167.571C234.352 167.081 234.688 166.706 234.941 166.507C236.502 165.297 237.711 167.195 236.502 169.101Z" fill="#D36E75"/>
<path d="M218.905 184.674C218.905 184.674 222.244 180.581 227.09 178.535" stroke="#AF565B" stroke-width="2" stroke-miterlimit="10" stroke-linecap="round" stroke-linejoin="round"/>
<path d="M215.997 178.427L216.212 173.365L219.012 172.503C219.012 172.503 224.505 174.226 224.828 173.58C225.151 172.934 219.981 168.626 219.981 168.626L217.073 167.98" stroke="#AF565B" stroke-width="2" stroke-miterlimit="10" stroke-linecap="round" stroke-linejoin="round"/>
<path d="M223.536 164.964L228.167 166.364C228.167 166.364 231.829 169.38 232.475 170.349C233.121 171.318 230.536 172.395 228.813 171.318C227.09 170.241 224.72 169.81 224.72 169.81L221.785 169.857" stroke="#AF565B" stroke-width="2" stroke-miterlimit="10" stroke-linecap="round" stroke-linejoin="round"/>
<path d="M229.029 162.164C229.029 162.164 233.445 166.257 233.875 167.334C234.305 168.411 234.198 170.134 231.182 168.842" stroke="#AF565B" stroke-width="2" stroke-miterlimit="10" stroke-linecap="round" stroke-linejoin="round"/>
<path d="M233.855 158.143C231.336 159.988 229.368 161.726 229.368 161.726L230.822 163.796C230.646 163.712 227.882 162.296 227.392 162.211C226.887 162.127 223.618 163.635 223.618 163.635L222.692 164.722C222.692 164.722 218.581 166.49 217.999 166.904C217.409 167.325 216.652 168.665 216.652 168.665C216.652 168.665 215.649 168.833 213.636 170.181C212.404 171 210.359 176.902 208.959 181.266C209.388 178.234 211.853 170.181 212.549 169.377C213.307 168.52 215.779 168.091 215.779 168.091C215.779 168.091 217.831 165.718 219.125 165.075C220.411 164.424 222.133 164.103 222.133 164.103C222.133 164.103 223.105 162.381 223.641 162.273C224.184 162.166 228.494 161.194 228.494 161.194C228.494 161.194 228.885 160.964 232.865 157.504C236.264 154.541 240.046 152.85 240.643 153.929C238.469 154.786 235.677 156.811 233.855 158.143Z" fill="white"/>
<path d="M224.651 193.339C224.651 193.339 224.283 194.426 223.648 196.317C223.64 196.325 223.633 196.332 223.64 196.34C219.973 207.226 207.433 244.646 204.027 256.443C200.023 270.292 198.485 285.373 180.632 279.83C173.321 277.564 171.231 271.156 171.958 263.218C172.034 262.345 172.149 261.45 172.295 260.539C174.033 249.569 180.28 236.394 185.309 227.161C194.541 210.227 203.72 187.797 203.72 187.797L206.476 188.524L224.651 193.339Z" fill="#8133F1"/>
<path opacity="0.3" d="M223.641 196.339C219.974 207.225 207.434 244.645 204.028 256.442C200.024 270.291 198.486 285.372 180.633 279.829C173.322 277.563 171.232 271.155 171.959 263.217C178.657 272.825 192.116 268.124 198.868 245.242C204.785 225.208 217.884 204.737 223.641 196.339Z" fill="#4A6C8F"/>
<path d="M206.477 188.523C201.945 199.31 191.679 223.21 183.978 237.304C176.805 250.425 173.574 257.507 172.296 260.538C174.034 249.568 180.281 236.393 185.31 227.16C194.542 210.226 203.721 187.796 203.721 187.796L206.477 188.523Z" fill="white"/>
<path d="M104.22 327.904C104.22 327.904 88.7629 329.819 83.9919 326.961C79.2209 324.103 84.9959 322.114 82.6269 319.541C80.2579 316.968 69.1129 317.127 66.4289 313.179C63.7449 309.232 71.2479 307.375 68.4379 303.485C65.6279 299.594 53.5179 300.642 49.0009 294.638C44.4839 288.635 52.9749 288.304 55.0999 286.288C57.2249 284.272 54.1509 280.803 46.9649 277.97C39.7799 275.136 35.1749 268.263 36.0209 265.761C36.8669 263.259 43.3519 266.558 44.0849 263.804C44.8169 261.049 30.1649 251.72 34.3089 245.764C38.4529 239.809 48.9069 248.903 52.5739 253.015C56.2409 257.127 51.7139 245.368 52.3639 243.105C53.0139 240.842 58.3289 239.514 63.2839 252.9C68.2389 266.285 70.2169 269.337 73.1179 268.034C76.0179 266.73 72.2269 259.643 75.0139 258.087C77.8009 256.531 82.6329 263.909 83.9709 274.979C85.3089 286.049 91.2289 285.056 91.2679 281.097C91.3079 277.138 96.6419 273.831 98.5169 282.386C100.392 290.941 98.4609 295.75 99.6509 298.398C100.841 301.046 102.968 295.998 106.031 296.743C109.094 297.488 110.656 315.127 110.792 320.826C110.928 326.525 104.22 327.904 104.22 327.904Z" fill="#18203D"/>
<path d="M103.721 305.242C103.039 305.152 102.416 305.634 102.327 306.315L100.966 316.803C99.9249 315.543 98.8839 314.289 97.8459 313.043L98.5879 305.577C98.6559 304.893 98.1569 304.284 97.4729 304.216C96.7909 304.149 96.1799 304.647 96.1119 305.331L95.6109 310.369C95.1889 309.866 94.7679 309.364 94.3469 308.864L94.9029 293.486C94.9279 292.799 94.3909 292.222 93.7039 292.198C93.0179 292.173 92.4399 292.709 92.4149 293.396L91.9589 306.033C90.2179 303.976 88.4919 301.949 86.7849 299.957L86.9359 289.992C86.9459 289.305 86.3969 288.739 85.7109 288.729C85.0229 288.717 84.4579 289.267 84.4479 289.954L84.3399 297.109C83.1229 295.696 81.9179 294.302 80.7279 292.931L79.9859 274.461C79.9579 273.774 79.3789 273.24 78.6929 273.268C78.0069 273.294 77.4729 273.874 77.4999 274.561L78.1179 289.932C76.1879 287.721 74.3049 285.576 72.4789 283.508L71.0979 274.256C70.9969 273.576 70.3629 273.107 69.6839 273.209C69.0089 273.312 68.5359 273.944 68.6369 274.624L69.4529 280.091C68.2579 278.746 67.0939 277.439 65.9629 276.174L63.3729 260.195C63.2629 259.517 62.6239 259.056 61.9459 259.166C61.2679 259.281 60.8069 259.915 60.9169 260.594L62.8859 272.743C61.4889 271.19 60.1549 269.713 58.8919 268.319L57.4959 259.011C57.3939 258.331 56.7599 257.863 56.0809 257.965C55.4019 258.069 54.9329 258.7 55.0349 259.38L55.8789 265.003C49.5389 258.051 45.6089 253.878 45.4989 253.761C45.0269 253.261 44.2389 253.237 43.7399 253.71C43.2399 254.182 43.2169 254.969 43.6889 255.469C43.8009 255.588 47.8919 259.933 54.4649 267.146L49.1179 266.383C48.4399 266.286 47.8079 266.759 47.7109 267.439C47.6139 268.119 48.0869 268.749 48.7669 268.846L57.0899 270.033C58.4699 271.555 59.9339 273.177 61.4729 274.89L50.7099 273.044C50.0319 272.928 49.3889 273.383 49.2729 274.06C49.1569 274.737 49.6119 275.38 50.2889 275.496L64.1469 277.873C65.4299 279.308 66.7539 280.795 68.1169 282.331L61.4089 281.367C60.7289 281.269 60.0979 281.741 59.9999 282.421C59.9019 283.102 60.3749 283.732 61.0549 283.83L70.6649 285.211C72.6189 287.425 74.6379 289.725 76.7109 292.102L61.8779 291.758C61.1919 291.743 60.6209 292.287 60.6049 292.973C60.5889 293.66 61.1329 294.23 61.8199 294.246L78.9199 294.642C80.2659 296.193 81.6319 297.773 83.0129 299.379L75.6659 300.029C74.9799 300.089 74.4759 300.695 74.5359 301.378C74.5969 302.063 75.2009 302.569 75.8849 302.508L85.0049 301.701C86.8269 303.828 88.6719 305.996 90.5319 308.197L77.8229 308.923C77.1359 308.963 76.6129 309.55 76.6519 310.236C76.6919 310.923 77.2789 311.447 77.9649 311.408L92.5369 310.575C93.0169 311.146 93.4979 311.719 93.9799 312.294L88.8289 312.493C88.1419 312.519 87.6069 313.098 87.6329 313.784C87.6599 314.471 88.2379 315.006 88.9249 314.979L95.9939 314.705C97.1399 316.08 98.2879 317.464 99.4369 318.856L89.3899 320.119C88.7079 320.205 88.2249 320.827 88.3109 321.509C88.3969 322.191 89.0189 322.674 89.7009 322.589L101.308 321.13C102.624 322.733 103.94 324.345 105.252 325.965C105.615 326.413 106.226 326.543 106.728 326.317C106.824 326.274 106.917 326.218 107.002 326.148C107.536 325.715 107.618 324.932 107.185 324.398C105.838 322.736 104.487 321.081 103.137 319.436L104.798 306.637C104.883 305.954 104.403 305.33 103.721 305.242Z" fill="#18203D"/>
<path d="M109.462 323.031C109.462 323.031 99.259 313.721 98.433 308.859C97.607 303.997 102.278 306.741 102.645 303.661C103.012 300.581 96.479 293.164 97.591 289.08C98.703 284.996 104.28 288.98 105.281 284.844C106.282 280.707 98.594 273.153 100.034 266.648C101.474 260.143 106.593 265.673 109.177 265.943C111.761 266.212 112.325 262.141 110.091 255.666C107.857 249.191 109.832 242.126 112.006 241.253C114.179 240.38 115.696 246.652 117.974 245.557C120.252 244.462 118.089 229.211 124.491 228.569C130.893 227.927 130.793 240.214 130.138 245.056C129.482 249.897 134.794 240.067 136.693 239.201C138.593 238.334 142.552 241.149 136.391 252.206C130.23 263.262 129.315 266.355 131.865 267.557C134.416 268.759 137.004 262.118 139.659 263.099C142.314 264.08 140.13 271.589 133.443 278.873C126.756 286.157 130.839 289.573 133.529 287.317C136.219 285.061 141.523 286.748 136.84 292.944C132.157 299.14 127.804 300.612 126.706 302.941C125.608 305.27 130.236 303.792 131.5 306.285C132.764 308.778 121.781 320.002 118.02 323.379C114.258 326.755 109.462 323.031 109.462 323.031Z" fill="#18203D"/>
<path d="M124.441 309.627C124.108 309.115 123.424 308.974 122.914 309.307L115.064 314.437C115.313 313.009 115.557 311.585 115.798 310.167L121.256 306.362C121.756 306.014 121.878 305.326 121.53 304.826C121.182 304.328 120.494 304.203 119.994 304.552L116.311 307.12C116.407 306.546 116.502 305.972 116.596 305.401L127.277 296.909C127.754 296.529 127.833 295.835 127.454 295.359C127.075 294.882 126.381 294.802 125.903 295.182L117.126 302.161C117.508 299.802 117.878 297.47 118.236 295.172L125.037 289.528C125.506 289.138 125.57 288.443 125.181 287.974C124.793 287.504 124.096 287.44 123.627 287.829L118.744 291.882C118.994 290.247 119.238 288.631 119.476 287.039L131.492 275.889C131.939 275.475 131.965 274.776 131.55 274.33C131.137 273.883 130.438 273.857 129.991 274.272L119.991 283.551C120.368 280.976 120.727 278.47 121.068 276.048L126.505 269.783C126.905 269.323 126.855 268.626 126.395 268.226C125.937 267.831 125.238 267.877 124.838 268.336L121.625 272.038C121.842 270.458 122.051 268.92 122.252 267.428L131.524 256.469C131.918 256.004 131.86 255.308 131.394 254.914C130.926 254.524 130.232 254.579 129.839 255.044L122.79 263.376C123.031 261.539 123.257 259.789 123.467 258.134L128.932 251.826C129.331 251.365 129.281 250.668 128.821 250.269C128.36 249.871 127.664 249.92 127.264 250.38L123.962 254.191C124.99 245.911 125.536 240.857 125.551 240.716C125.616 240.11 125.178 239.565 124.571 239.501C123.965 239.436 123.421 239.875 123.357 240.48C123.341 240.624 122.774 245.886 121.703 254.473L119.133 250.431C118.807 249.918 118.125 249.765 117.61 250.092C117.096 250.419 116.944 251.1 117.271 251.615L121.27 257.907C121.04 259.714 120.792 261.636 120.525 263.66L115.562 255.344C115.25 254.82 114.572 254.65 114.049 254.962C113.526 255.274 113.355 255.951 113.667 256.474L120.056 267.181C119.829 268.873 119.591 270.622 119.342 272.426L116.124 267.351C115.798 266.836 115.116 266.684 114.602 267.01C114.087 267.337 113.934 268.018 114.261 268.533L118.872 275.804C118.507 278.397 118.122 281.084 117.715 283.85L109.394 273.659C109.008 273.188 108.313 273.117 107.841 273.502C107.369 273.887 107.299 274.582 107.684 275.055L117.277 286.804C117.008 288.606 116.731 290.436 116.446 292.293L111.772 287.718C111.336 287.29 110.637 287.3 110.212 287.734C109.785 288.17 109.793 288.869 110.229 289.295L116.031 294.974C115.648 297.428 115.251 299.921 114.841 302.443L107.024 294.299C106.601 293.859 105.904 293.845 105.464 294.267C105.024 294.689 105.01 295.388 105.432 295.828L114.395 305.165C114.287 305.818 114.179 306.472 114.069 307.128L110.965 303.773C110.551 303.325 109.853 303.299 109.406 303.712C108.959 304.126 108.932 304.824 109.346 305.271L113.607 309.876C113.341 311.441 113.071 313.012 112.795 314.589L106.151 308.548C105.7 308.138 105.002 308.171 104.592 308.622C104.182 309.073 104.215 309.771 104.666 310.181L112.342 317.16C112.021 318.971 111.693 320.787 111.359 322.605C111.267 323.108 111.531 323.594 111.973 323.802C112.057 323.842 112.148 323.872 112.245 323.889C112.844 323.999 113.42 323.603 113.53 323.003C113.873 321.137 114.209 319.273 114.539 317.414L124.12 311.153C124.632 310.821 124.775 310.137 124.441 309.627Z" fill="#18203D"/>
<path d="M108.202 324.062C108.202 324.062 94.162 332.811 88.288 332.188C82.414 331.565 87.091 327.068 83.659 325.647C80.227 324.226 69.558 329.357 65.209 326.752C60.86 324.147 67.26 319.007 62.815 316.513C58.37 314.019 47.168 320.437 40.133 316.669C33.099 312.902 41.134 308.791 42.281 305.898C43.428 303.006 38.916 301.037 30.727 301.515C22.538 301.994 15.03 297.427 14.727 294.638C14.425 291.849 22.148 292.132 21.623 289.151C21.099 286.17 2.81198 283.723 4.14598 276.134C5.47998 268.544 19.616 272.639 24.986 274.963C30.356 277.287 20.742 267.978 20.358 265.507C19.974 263.036 24.502 259.383 35.256 270.068C46.009 280.753 49.279 282.811 51.491 280.259C53.704 277.707 46.884 272.571 48.875 269.827C50.866 267.083 58.817 272.034 65.051 282.104C71.285 292.174 76.545 288.573 74.815 284.74C73.085 280.907 76.748 275.338 82.376 282.745C88.004 290.152 88.291 295.648 90.62 297.669C92.95 299.689 92.744 293.875 96.029 293.224C99.314 292.574 108.697 308.874 111.374 314.304C114.051 319.738 108.202 324.062 108.202 324.062Z" fill="#6DA1A4"/>
<path d="M97.6 302.447C96.902 302.665 96.517 303.408 96.736 304.104L100.109 314.818C98.543 314.069 96.98 313.325 95.423 312.588L92.803 305.062C92.563 304.373 91.81 304.009 91.12 304.248C90.433 304.488 90.067 305.241 90.307 305.931L92.075 311.009C91.444 310.713 90.814 310.417 90.185 310.123L83.852 295.056C83.569 294.383 82.794 294.067 82.122 294.35C81.45 294.633 81.133 295.407 81.415 296.08L86.619 308.461C84.022 307.256 81.454 306.074 78.919 304.916L74.613 295.246C74.316 294.579 73.535 294.279 72.868 294.576C72.2 294.871 71.9 295.654 72.198 296.321L75.29 303.264C73.486 302.446 71.702 301.641 69.943 300.851L60.979 283.384C60.646 282.735 59.849 282.478 59.2 282.812C58.55 283.144 58.295 283.941 58.628 284.591L66.088 299.127C63.241 297.858 60.468 296.633 57.785 295.455L52.322 287.156C51.921 286.546 51.101 286.377 50.491 286.778C49.887 287.178 49.713 287.999 50.114 288.609L53.342 293.513C51.59 292.75 49.885 292.011 48.229 291.297L38.596 277.056C38.187 276.452 37.366 276.293 36.761 276.702C36.159 277.115 35.998 277.933 36.407 278.538L43.731 289.365C41.691 288.492 39.745 287.664 37.906 286.886L32.403 278.541C32.001 277.932 31.181 277.763 30.572 278.165C29.964 278.568 29.794 279.386 30.196 279.996L33.521 285.038C24.307 281.17 18.656 278.904 18.498 278.841C17.82 278.57 17.05 278.898 16.78 279.577C16.509 280.255 16.839 281.024 17.516 281.294C17.677 281.359 23.56 283.718 33.115 287.734L27.621 289.388C26.924 289.598 26.526 290.335 26.737 291.034C26.947 291.733 27.684 292.129 28.383 291.918L36.933 289.345C38.943 290.196 41.078 291.105 43.325 292.068L32.128 295.096C31.423 295.286 31.007 296.012 31.197 296.717C31.387 297.421 32.113 297.838 32.817 297.647L47.233 293.748C49.11 294.558 51.05 295.399 53.05 296.271L46.156 298.338C45.457 298.547 45.06 299.284 45.269 299.983C45.479 300.683 46.216 301.079 46.915 300.87L56.793 297.909C59.665 299.169 62.638 300.484 65.696 301.849L51.249 308.142C50.581 308.434 50.274 309.213 50.565 309.881C50.856 310.55 51.635 310.856 52.304 310.565L68.96 303.309C70.951 304.203 72.972 305.115 75.02 306.045L68.23 309.953C67.595 310.317 67.38 311.126 67.744 311.758C68.108 312.391 68.917 312.608 69.549 312.244L77.977 307.393C80.683 308.629 83.429 309.894 86.205 311.185L74.282 317.561C73.638 317.906 73.396 318.706 73.74 319.349C74.085 319.993 74.886 320.236 75.529 319.892L89.199 312.581C89.917 312.917 90.636 313.254 91.357 313.593L86.483 316.086C85.833 316.418 85.576 317.215 85.908 317.864C86.241 318.514 87.037 318.771 87.686 318.439L94.376 315.018C96.094 315.831 97.819 316.652 99.548 317.481L90.43 323.185C89.811 323.573 89.624 324.388 90.011 325.007C90.398 325.626 91.213 325.813 91.833 325.427L102.367 318.837C104.351 319.794 106.339 320.76 108.327 321.734C108.877 322.003 109.523 321.856 109.906 321.414C109.979 321.329 110.044 321.234 110.095 321.129C110.416 320.474 110.145 319.682 109.49 319.361C107.449 318.361 105.409 317.37 103.373 316.388L99.257 303.312C99.038 302.614 98.296 302.228 97.6 302.447Z" fill="#528E8D"/>
<path d="M103.847 324.366C103.847 324.366 88.643 317.846 85.797 312.671C82.951 307.496 89.314 308.762 88.518 305.134C87.722 301.505 77.414 295.684 77.066 290.626C76.718 285.568 84.594 287.882 84.099 282.809C83.604 277.736 71.935 272.213 71.006 264.287C70.077 256.362 78.043 260.605 81.072 259.893C84.101 259.181 83.138 254.354 78.064 247.907C72.99 241.461 72.446 232.69 74.562 230.848C76.678 229.006 80.86 235.505 83.006 233.37C85.153 231.235 76.707 214.832 83.697 211.588C90.687 208.344 95.407 222.284 96.569 228.019C97.731 233.754 99.874 220.544 101.682 218.817C103.49 217.089 109.076 218.717 106.455 233.648C103.834 248.579 104.014 252.438 107.373 252.795C110.731 253.152 111.048 244.621 114.437 244.686C117.826 244.751 118.309 254.106 113.609 264.976C108.909 275.847 114.871 278.105 117.027 274.495C119.183 270.885 125.847 270.707 122.986 279.559C120.125 288.41 115.779 291.788 115.453 294.854C115.127 297.92 119.781 294.428 122.192 296.752C124.603 299.076 116.592 316.092 113.665 321.392C110.738 326.694 103.847 324.366 103.847 324.366Z" fill="#6DA1A4"/>
<path d="M115.522 303.312C114.944 302.864 114.115 302.973 113.668 303.55L106.805 312.442C106.525 310.728 106.242 309.021 105.956 307.323L110.634 300.871C111.062 300.281 110.93 299.454 110.34 299.025C109.75 298.599 108.923 298.728 108.494 299.319L105.338 303.672C105.22 302.985 105.103 302.299 104.985 301.615L113.728 287.807C114.119 287.19 113.935 286.374 113.318 285.984C112.702 285.594 111.885 285.776 111.494 286.393L104.309 297.74C103.814 294.921 103.315 292.137 102.817 289.396L108.291 280.336C108.668 279.711 108.468 278.899 107.843 278.522C107.219 278.142 106.406 278.344 106.028 278.969L102.098 285.474C101.738 283.526 101.379 281.602 101.021 279.707L110.23 262.367C110.572 261.722 110.327 260.922 109.683 260.58C109.039 260.236 108.239 260.483 107.896 261.127L100.233 275.557C99.647 272.495 99.067 269.52 98.5 266.645L102.187 257.419C102.458 256.741 102.128 255.972 101.45 255.701C100.776 255.434 100.003 255.761 99.732 256.438L97.553 261.89C97.177 260.017 96.809 258.195 96.449 256.428L102.628 240.384C102.89 239.703 102.551 238.939 101.87 238.676C101.187 238.418 100.424 238.753 100.162 239.435L95.464 251.633C95.014 249.46 94.581 247.391 94.169 245.436L97.871 236.151C98.141 235.473 97.811 234.704 97.133 234.434C96.455 234.165 95.686 234.494 95.416 235.172L93.179 240.782C91.086 231.011 89.715 225.078 89.677 224.913C89.512 224.201 88.802 223.757 88.091 223.924C87.38 224.089 86.938 224.799 87.103 225.51C87.142 225.679 88.569 231.855 90.736 241.991L86.239 238.428C85.668 237.976 84.836 238.071 84.383 238.643C83.93 239.215 84.026 240.046 84.598 240.499L91.597 246.044C92.048 248.179 92.522 250.451 93.017 252.845L84.132 245.389C83.573 244.919 82.739 244.993 82.27 245.552C81.801 246.11 81.874 246.944 82.433 247.413L93.872 257.013C94.28 259.016 94.699 261.089 95.127 263.228L89.49 258.752C88.919 258.298 88.087 258.393 87.634 258.965C87.18 259.537 87.275 260.368 87.847 260.822L95.923 267.234C96.53 270.311 97.151 273.502 97.779 276.792L84.357 268.535C83.736 268.154 82.921 268.347 82.539 268.968C82.157 269.589 82.35 270.403 82.972 270.786L98.446 280.305C98.85 282.449 99.257 284.629 99.664 286.841L92.577 283.503C91.915 283.19 91.129 283.476 90.818 284.135C90.507 284.796 90.79 285.583 91.45 285.894L100.248 290.037C100.78 292.964 101.312 295.94 101.84 298.955L89.793 292.816C89.142 292.485 88.347 292.744 88.016 293.394C87.685 294.045 87.943 294.841 88.594 295.172L102.407 302.21C102.542 302.991 102.676 303.774 102.81 304.559L97.979 301.984C97.334 301.64 96.534 301.885 96.191 302.528C95.848 303.173 96.092 303.973 96.736 304.316L103.367 307.85C103.682 309.725 103.994 311.609 104.303 313.501L94.411 309.28C93.739 308.994 92.963 309.306 92.677 309.977C92.391 310.648 92.703 311.425 93.374 311.711L104.802 316.588C105.151 318.763 105.494 320.946 105.831 323.134C105.925 323.739 106.415 324.185 106.997 324.247C107.108 324.259 107.223 324.257 107.339 324.239C108.06 324.128 108.555 323.453 108.444 322.731C108.098 320.485 107.745 318.244 107.387 316.012L115.763 305.16C116.207 304.587 116.101 303.758 115.522 303.312Z" fill="#528E8D"/>
<mask id="mask0_2104_363" style="mask-type:luminance" maskUnits="userSpaceOnUse" x="326" y="245" width="120" height="86">
<path d="M415.38 330.936H356.275C339.597 330.936 326.077 317.416 326.077 300.738C326.077 270.229 350.809 245.497 381.318 245.497H390.337C420.846 245.497 445.578 270.229 445.578 300.738C445.578 317.416 432.058 330.936 415.38 330.936Z" fill="white"/>
</mask>
<g mask="url(#mask0_2104_363)">
<path d="M379.479 324.209C379.479 324.209 370.212 329.179 366.465 317.615C362.718 306.05 370.671 298.322 380.476 295.112C390.28 291.902 397.782 273.056 409.171 273.611C420.56 274.166 412.02 291.514 408.166 302.203C404.311 312.892 403.982 322.76 399.527 328.15C395.071 333.539 383.728 335.512 379.479 324.209Z" fill="#18203D"/>
<path d="M408.287 287.291C408.102 286.778 407.536 286.514 407.023 286.699L404.229 287.709C406.549 284.486 407.972 282.636 408.037 282.552C408.371 282.122 408.292 281.501 407.861 281.168C407.43 280.835 406.81 280.914 406.477 281.343C406.41 281.429 404.923 283.362 402.505 286.727L402.457 284.068C402.447 283.522 401.998 283.089 401.453 283.099C400.907 283.109 400.474 283.558 400.484 284.104L400.579 289.436C398.634 292.2 396.307 295.591 393.755 299.475L393.595 290.54C393.585 289.994 393.136 289.561 392.59 289.571C392.044 289.581 391.611 290.03 391.621 290.575L391.833 302.428C390.798 304.036 389.733 305.715 388.649 307.456L388.034 301.497C387.978 300.954 387.499 300.548 386.951 300.617C386.409 300.673 386.015 301.157 386.071 301.7L386.95 310.213C385.336 312.858 383.691 315.628 382.042 318.501C381.208 315.267 379.689 309.011 378.674 304.763C378.548 304.233 378.012 303.906 377.485 304.032C376.955 304.158 376.627 304.691 376.754 305.221C379.178 315.373 380.121 319.321 380.686 320.888C373.74 333.232 366.893 347.272 362.32 361.188C362.15 361.706 362.432 362.264 362.95 362.434C363.059 362.47 363.168 362.485 363.276 362.483C363.684 362.476 364.062 362.214 364.196 361.804C368.735 347.991 375.54 334.047 382.443 321.786C384.226 321.289 392.897 319.385 398.343 318.218C398.876 318.103 399.216 317.579 399.101 317.046C398.986 316.514 398.468 316.172 397.929 316.288C390.229 317.939 386.073 318.854 383.794 319.411C385.423 316.572 387.049 313.835 388.645 311.221L398.251 308.237C398.772 308.075 399.062 307.523 398.901 307.002C398.74 306.481 398.187 306.187 397.666 306.352L390.22 308.664C391.347 306.851 392.454 305.105 393.529 303.436L405.02 298.399C405.519 298.18 405.747 297.598 405.528 297.099C405.309 296.599 404.726 296.373 404.228 296.591L395.494 300.42C398.009 296.596 400.302 293.256 402.219 290.535L407.696 288.555C408.207 288.37 408.473 287.804 408.287 287.291Z" fill="#18203D"/>
<path d="M355.856 319.067C355.856 319.067 354.212 328.073 344.305 324.35C334.398 320.627 333.451 311.018 336.585 302.601C339.719 294.184 330.957 278.851 337.514 271.398C344.071 263.945 351.249 279.171 356.436 287.595C361.623 296.019 368.163 301.597 369.416 307.555C370.668 313.513 365.857 322.307 355.856 319.067Z" fill="#18203D"/>
<path d="M346.35 279.424C345.901 279.272 345.414 279.513 345.261 279.963L344.433 282.413C343.497 279.085 343.01 277.112 342.988 277.022C342.876 276.561 342.411 276.278 341.95 276.391C341.489 276.504 341.207 276.969 341.318 277.429C341.34 277.521 341.849 279.583 342.829 283.054L340.993 281.644C340.616 281.355 340.077 281.425 339.788 281.802C339.499 282.179 339.569 282.718 339.946 283.007L343.628 285.835C344.455 288.659 345.501 292.083 346.761 295.928L340.59 291.189C340.213 290.9 339.674 290.97 339.385 291.347C339.096 291.724 339.166 292.263 339.543 292.552L347.729 298.839C348.262 300.416 348.828 302.052 349.425 303.735L345.034 300.921C344.634 300.665 344.098 300.77 343.847 301.181C343.591 301.58 343.707 302.111 344.107 302.368L350.38 306.389C351.305 308.923 352.298 311.546 353.36 314.227C350.706 313.04 345.622 310.68 342.179 309.066C341.75 308.864 341.236 309.052 341.036 309.479C340.834 309.908 341.02 310.421 341.449 310.622C349.676 314.479 352.876 315.979 354.249 316.445C358.885 327.871 364.729 340.151 371.723 350.815C371.983 351.212 372.516 351.323 372.913 351.062C372.996 351.007 373.066 350.941 373.123 350.867C373.339 350.586 373.366 350.186 373.16 349.872C366.218 339.287 360.416 327.089 355.813 315.737C356.442 314.254 359.85 307.316 362.01 302.975C362.221 302.55 362.048 302.034 361.623 301.823C361.199 301.612 360.685 301.78 360.471 302.21C357.418 308.349 355.786 311.675 354.929 313.529C353.88 310.879 352.899 308.287 351.985 305.782L355.165 297.623C355.337 297.181 355.119 296.683 354.677 296.51C354.235 296.337 353.735 296.554 353.565 296.998L351.1 303.322C350.477 301.571 349.889 299.87 349.336 298.232L352.141 287.675C352.263 287.216 351.99 286.746 351.531 286.624C351.071 286.502 350.602 286.776 350.48 287.233L348.348 295.257C347.109 291.469 346.079 288.097 345.266 285.315L346.889 280.511C347.041 280.063 346.799 279.575 346.35 279.424Z" fill="#18203D"/>
<path d="M398.005 317.648C398.005 317.648 389.025 319.432 388.844 308.85C388.662 298.268 397.249 293.853 406.228 293.672C415.208 293.49 426.243 279.703 435.585 283.058C444.928 286.414 433.409 298.689 427.483 306.611C421.557 314.533 418.776 322.666 413.697 326.022C408.618 329.379 398.671 328.14 398.005 317.648Z" fill="#6DA1A4"/>
<path d="M431.373 294.226C431.35 293.752 430.946 293.388 430.471 293.412L427.888 293.543C430.638 291.449 432.294 290.27 432.369 290.216C432.756 289.943 432.848 289.406 432.574 289.019C432.3 288.632 431.764 288.541 431.377 288.813C431.299 288.868 429.57 290.099 426.701 292.287L427.337 290.061C427.467 289.604 427.203 289.129 426.747 288.999C426.29 288.869 425.815 289.132 425.685 289.589L424.41 294.053C422.088 295.86 419.289 298.093 416.176 300.679L418.313 293.198C418.443 292.741 418.179 292.266 417.723 292.136C417.266 292.006 416.791 292.27 416.661 292.726L413.826 302.65C412.555 303.726 411.242 304.854 409.897 306.028L410.899 300.91C410.99 300.444 410.695 299.984 410.221 299.902C409.756 299.811 409.304 300.114 409.213 300.58L407.782 307.893C405.766 309.685 403.692 311.574 401.59 313.548C401.717 310.643 402.042 305.048 402.276 301.252C402.306 300.779 401.942 300.37 401.471 300.341C400.998 300.311 400.589 300.672 400.56 301.146C399.999 310.215 399.781 313.742 399.854 315.191C390.934 323.705 381.665 333.656 374.321 344.083C374.048 344.471 374.141 345.007 374.529 345.28C374.61 345.337 374.697 345.378 374.788 345.404C375.129 345.502 375.511 345.38 375.727 345.073C383.016 334.724 392.226 324.842 401.089 316.386C402.7 316.425 410.404 317.043 415.235 317.454C415.708 317.494 416.124 317.143 416.164 316.67C416.204 316.198 415.859 315.782 415.38 315.741C408.549 315.16 404.855 314.865 402.816 314.75C404.894 312.8 406.943 310.934 408.936 309.163L417.693 309.119C418.168 309.117 418.55 308.73 418.548 308.256C418.546 307.782 418.161 307.397 417.685 307.401L410.898 307.435C412.298 306.211 413.662 305.039 414.982 303.923L425.83 302.648C426.301 302.592 426.639 302.166 426.583 301.695C426.528 301.223 426.1 300.887 425.63 300.942L417.384 301.911C420.45 299.366 423.208 297.167 425.495 295.388L430.559 295.131C431.033 295.104 431.397 294.7 431.373 294.226Z" fill="#528E8D"/>
<path d="M369.279 305.048C369.279 305.048 361.716 312.257 355.072 302.17C348.428 292.083 354.004 282.579 362.547 276.915C371.09 271.251 373.296 251.217 384.352 248.74C395.407 246.263 391.81 265.135 390.942 276.392C390.074 287.649 392.365 297.187 389.522 303.527C386.678 309.866 376.334 314.752 369.279 305.048Z" fill="#6DA1A4"/>
<path d="M387.119 262.078C386.807 261.636 386.195 261.532 385.752 261.844L383.343 263.549C384.713 259.849 385.588 257.701 385.628 257.603C385.834 257.103 385.595 256.529 385.094 256.324C384.593 256.118 384.021 256.358 383.814 256.858C383.773 256.958 382.859 259.203 381.432 263.064L380.684 260.53C380.53 260.01 379.986 259.714 379.466 259.867C378.946 260.02 378.65 260.565 378.803 261.085L380.303 266.167C379.17 269.328 377.837 273.191 376.418 277.586L373.904 269.07C373.75 268.55 373.206 268.254 372.686 268.407C372.166 268.56 371.87 269.105 372.023 269.625L375.357 280.922C374.79 282.735 374.214 284.625 373.636 286.579L371.473 281.034C371.276 280.529 370.71 280.267 370.203 280.477C369.699 280.674 369.449 281.242 369.646 281.747L372.737 289.669C371.889 292.629 371.045 295.716 370.226 298.904C368.573 296.027 365.465 290.436 363.371 286.634C363.11 286.16 362.51 285.988 362.039 286.248C361.565 286.509 361.392 287.106 361.653 287.58C366.657 296.663 368.603 300.196 369.558 301.547C366.166 315.205 363.317 330.461 362.613 344.999C362.587 345.54 363.004 346 363.545 346.026C363.658 346.031 363.767 346.017 363.87 345.987C364.259 345.872 364.552 345.522 364.572 345.094C365.271 330.665 368.105 315.511 371.478 301.944C373.054 300.997 380.857 296.883 385.764 294.326C386.244 294.075 386.431 293.483 386.18 293.003C385.93 292.524 385.343 292.333 384.857 292.587C377.918 296.203 374.179 298.177 372.143 299.313C372.954 296.163 373.788 293.112 374.626 290.187L383.038 284.792C383.494 284.5 383.627 283.893 383.334 283.437C383.042 282.981 382.435 282.845 381.979 283.141L375.458 287.322C376.059 285.287 376.657 283.323 377.247 281.44L386.922 273.579C387.342 273.237 387.407 272.62 387.065 272.2C386.723 271.779 386.105 271.716 385.686 272.057L378.332 278.032C379.731 273.705 381.045 269.9 382.161 266.787L386.884 263.443C387.327 263.132 387.432 262.519 387.119 262.078Z" fill="#528E8D"/>
</g>
<path d="M157.173 325.357H122.711C121.32 325.357 119.959 324.703 119.246 323.508C118.233 321.809 118.668 319.694 120.154 318.523C138.734 303.878 133.078 261.051 131.989 253.92C131.903 253.356 132.282 252.831 132.844 252.732L138.322 251.764C138.9 251.662 139.448 252.047 139.54 252.627C140.638 259.559 145.729 297 131.377 317.584C131.342 317.634 131.377 317.701 131.438 317.701H157.173C157.752 317.701 158.222 318.171 158.222 318.75V324.307C158.222 324.888 157.752 325.357 157.173 325.357Z" fill="#5A89C6"/>
<path d="M155.564 309.19L153.031 309.614C150.441 310.048 147.99 308.3 147.556 305.709L125.998 176.946C125.564 174.356 127.312 171.905 129.903 171.471L132.436 171.047C135.026 170.613 137.477 172.362 137.911 174.952L159.469 303.715C159.902 306.305 158.154 308.756 155.564 309.19Z" fill="#5A89C6"/>
<path d="M215.524 325.357H170.212C168.075 325.357 166.342 323.624 166.342 321.487V319.211C166.342 317.074 168.074 315.341 170.212 315.341H215.524C217.661 315.341 219.394 317.073 219.394 319.211V321.487C219.394 323.625 217.662 325.357 215.524 325.357Z" fill="#5A89C6"/>
<path d="M397.506 333.706H79.576C77.031 333.706 74.968 331.643 74.968 329.098C74.968 326.553 77.031 324.49 79.576 324.49H397.506C400.051 324.49 402.114 326.553 402.114 329.098C402.113 331.643 400.051 333.706 397.506 333.706Z" fill="#EABC32"/>
<path d="M381.539 302.763C377.819 302.763 374.802 305.779 374.802 309.507C374.802 313.228 377.818 316.252 381.539 316.252C385.267 316.252 388.283 313.228 388.283 309.507C388.283 305.779 385.267 302.763 381.539 302.763ZM381.539 314.147C378.974 314.147 376.9 312.072 376.9 309.508C376.9 306.943 378.975 304.861 381.539 304.861C384.104 304.861 386.186 306.943 386.186 309.508C386.186 312.072 384.104 314.147 381.539 314.147Z" fill="#E5D157"/>
<path d="M377.214 304.052C377.214 304.052 377.007 322.096 361.421 324.492H357.517C341.938 322.096 341.724 304.052 341.724 304.052L359.469 305.338L377.214 304.052Z" fill="#E5D157"/>
<path d="M377.214 304.054C377.214 305.458 369.27 306.597 359.471 306.597C349.672 306.597 341.728 305.459 341.728 304.054C341.728 302.65 349.672 301.511 359.471 301.511C369.27 301.511 377.214 302.65 377.214 304.054Z" fill="#FFEB88"/>
<path d="M372.385 304.054C372.385 304.765 366.603 305.341 359.47 305.341C352.337 305.341 346.555 304.765 346.555 304.054C346.555 303.343 352.337 302.767 359.47 302.767C366.603 302.767 372.385 303.343 372.385 304.054Z" fill="#18203D"/>
<path d="M119.718 206.321L110.669 211.588V222.704C110.669 226.356 107.706 229.318 104.047 229.318H50.107C46.455 229.318 43.485 226.355 43.485 222.704V189.939C43.485 186.287 46.455 183.317 50.107 183.317H104.047C107.706 183.317 110.669 186.287 110.669 189.939V201.047L119.718 206.321Z" fill="#FAFAFA"/>
<path d="M94.13 219.671H60.027C58.676 219.671 57.58 218.576 57.58 217.224V195.415C57.58 194.064 58.675 192.968 60.027 192.968H94.13C95.481 192.968 96.577 194.063 96.577 195.415V217.224C96.577 218.576 95.481 219.671 94.13 219.671Z" fill="#B78AF7"/>
<path d="M93.3199 197.058L77.0789 206.32L60.8369 197.058" stroke="#FAFAFA" stroke-width="2" stroke-miterlimit="10" stroke-linecap="round" stroke-linejoin="round"/>
<path d="M155.865 108.639V141.404C155.865 145.056 152.902 148.018 149.243 148.018H127.54L122.265 157.067L116.998 148.018H95.303C91.651 148.018 88.681 145.055 88.681 141.404V108.639C88.681 104.987 91.651 102.017 95.303 102.017H149.243C152.903 102.017 155.865 104.987 155.865 108.639Z" fill="#CEB0FA"/>
<path d="M110.917 125.204C110.917 127.6 108.975 129.542 106.579 129.542C104.183 129.542 102.241 127.6 102.241 125.204C102.241 122.808 104.183 120.866 106.579 120.866C108.975 120.866 110.917 122.808 110.917 125.204Z" fill="white"/>
<path d="M126.611 125.204C126.611 127.6 124.669 129.542 122.273 129.542C119.877 129.542 117.935 127.6 117.935 125.204C117.935 122.808 119.877 120.866 122.273 120.866C124.669 120.866 126.611 122.808 126.611 125.204Z" fill="white"/>
<path d="M142.305 125.204C142.305 127.6 140.363 129.542 137.967 129.542C135.571 129.542 133.629 127.6 133.629 125.204C133.629 122.808 135.571 120.866 137.967 120.866C140.363 120.866 142.305 122.808 142.305 125.204Z" fill="white"/>
<path d="M207.327 72.3331L204.757 73.1071C204.146 73.2911 203.502 72.9451 203.318 72.3341L200.223 62.0541C200.039 61.4431 200.385 60.7991 200.996 60.6151L203.566 59.8411C204.177 59.6571 204.821 60.0031 205.004 60.6141L208.099 70.8941C208.283 71.5061 207.937 72.1501 207.327 72.3331Z" fill="#8133F1"/>
<path d="M197.274 77.5671C196.951 79.8641 196.854 82.9761 197.809 86.1471C198.765 89.3241 200.565 91.8641 202.102 93.6011C203.586 95.2691 205.91 95.8991 208.041 95.2581L210.04 94.6561L213.213 105.194C213.213 105.194 197.523 106.856 191.829 87.9471C186.137 69.0441 200.136 61.7661 200.136 61.7661L203.309 72.3051L201.31 72.9071C199.179 73.5491 197.59 75.3581 197.274 77.5671Z" fill="#8133F1"/>
<path d="M213.373 92.4141L210.803 93.1881C210.192 93.3721 209.846 94.0161 210.03 94.6261L213.125 104.906C213.309 105.517 213.953 105.862 214.564 105.679L217.134 104.905C217.745 104.721 218.091 104.077 217.907 103.467L214.812 93.1871C214.628 92.5761 213.984 92.2301 213.373 92.4141Z" fill="#8133F1"/>
<path d="M188.478 109.677L190.526 106.038C187.286 104.502 175.863 98.1701 174.58 85.1271C172.967 68.6901 182.581 59.2451 182.581 59.2451L191.606 64.3361C191.606 64.3361 182.469 72.4421 182.469 84.5731C182.469 96.0311 189.362 101.907 191.865 103.66L193.688 100.42L199.929 109.676H188.478V109.677Z" fill="#18203D"/>
<path d="M225.255 56.1501L223.207 59.7891C226.447 61.3251 237.87 67.6571 239.153 80.7001C240.766 97.1371 231.152 106.582 231.152 106.582L222.127 101.491C222.127 101.491 231.264 93.3851 231.264 81.2541C231.264 69.7961 224.371 63.9202 221.868 62.1672L220.045 65.4071L213.804 56.1511L225.255 56.1501Z" fill="#18203D"/>
<path d="M394.317 217.037V252.413C394.317 256.034 391.385 258.966 387.764 258.966H352.396C348.775 258.966 345.835 256.034 345.835 252.413V217.037C345.835 213.416 348.775 210.484 352.396 210.484H387.764C391.385 210.484 394.317 213.416 394.317 217.037Z" fill="white"/>
<path d="M376.229 235.007C379.629 231.607 379.629 226.094 376.229 222.695C372.829 219.295 367.317 219.295 363.917 222.695C360.517 226.094 360.517 231.607 363.917 235.007C367.317 238.406 372.829 238.406 376.229 235.007Z" fill="#B78AF7"/>
<path d="M384.962 255.437V258.966H355.19V255.437C355.19 247.215 361.858 240.555 370.08 240.555C374.191 240.555 377.912 242.216 380.606 244.911C383.3 247.606 384.962 251.326 384.962 255.437Z" fill="#B78AF7"/>
<path d="M365.486 180.82C366.919 179.466 369.177 179.53 370.532 180.962C371.886 182.395 371.822 184.653 370.39 186.008C368.957 187.362 366.698 187.298 365.345 185.865C363.99 184.433 364.053 182.174 365.486 180.82Z" fill="#DB9431"/>
<path d="M358.725 158.441C359.928 157.304 361.826 157.357 362.963 158.561C364.1 159.764 364.047 161.662 362.843 162.799C361.64 163.936 359.742 163.883 358.605 162.679C357.468 161.475 357.522 159.578 358.725 158.441Z" fill="#447777"/>
<path d="M339.538 155.789C340.298 155.071 341.495 155.105 342.213 155.865C342.931 156.624 342.897 157.822 342.137 158.54C341.378 159.258 340.18 159.224 339.462 158.464C338.744 157.705 338.778 156.507 339.538 155.789Z" fill="#C9414E"/>
<path d="M173.63 192.074C171.758 191.456 170.741 189.438 171.359 187.566C171.977 185.694 173.995 184.677 175.867 185.295C177.739 185.913 178.756 187.931 178.138 189.803C177.52 191.675 175.502 192.692 173.63 192.074Z" fill="#DB9431"/>
<path d="M159.158 197.649C157.586 197.13 156.732 195.435 157.251 193.863C157.77 192.291 159.465 191.437 161.037 191.956C162.609 192.475 163.463 194.17 162.945 195.742C162.426 197.314 160.731 198.168 159.158 197.649Z" fill="#447777"/>
<path d="M165.704 214.055C164.712 213.728 164.173 212.658 164.5 211.665C164.827 210.672 165.898 210.134 166.89 210.461C167.882 210.789 168.421 211.859 168.094 212.851C167.766 213.844 166.696 214.383 165.704 214.055Z" fill="#C9414E"/>
</svg>
