<svg width="446" height="368" viewBox="0 0 446 368" fill="none" xmlns="http://www.w3.org/2000/svg">
<g opacity="0.4">
<path d="M263.629 46.572C282.575 53.121 295.966 38.421 314.829 47.154C333.692 55.887 339.531 89.073 348.514 111.197C357.497 133.321 375.911 132.156 405.553 143.8C435.195 155.444 461.245 223.562 434.297 274.214C407.35 324.866 361.539 356.887 302.254 331.27C242.969 305.653 167.067 338.839 132.035 351.065C97.003 363.291 28.287 337.092 16.609 278.289C4.93198 219.486 56.581 193.869 58.378 165.341C60.174 136.813 62.869 85.579 119.459 84.997C176.049 84.415 153.861 21.337 199.403 19.79C232.424 18.668 250.156 41.914 263.629 46.572Z" fill="#ACD5D4"/>
<path d="M106.328 35.172C137.001 30.223 152.079 59.127 132.796 59.733C113.514 60.338 92.809 57.841 89.576 72.795C86.343 87.75 58.312 62.193 76.691 55.249C95.071 48.304 81.938 39.107 106.328 35.172Z" fill="#ACD5D4"/>
<path d="M37.2789 133.015C50.5249 139.966 38.2379 192.709 21.6089 193.538C4.97992 194.367 12.3349 176.127 18.7309 165.349C25.1269 154.571 23.8469 125.968 37.2789 133.015Z" fill="#ACD5D4"/>
<path d="M49.26 77.7481C60.629 79.6501 57.894 98.4751 47.981 95.9881C38.067 93.5011 39.346 76.0901 49.26 77.7481Z" fill="#ACD5D4"/>
<path d="M267.674 4.19509C293.711 17.8671 288.46 43.1621 261.278 28.6531C234.096 14.1441 242.411 -9.07091 267.674 4.19509Z" fill="#ACD5D4"/>
<path d="M389.012 75.081C417.039 87.545 438.579 114.048 429.945 128.142C421.311 142.236 408.2 118.193 387.094 117.364C365.988 116.535 345.201 55.598 389.012 75.081Z" fill="#ACD5D4"/>
<path d="M246.57 336.934C285.982 339.041 298.328 370.481 251.071 367.564C203.813 364.647 191.999 334.017 246.57 336.934Z" fill="#ACD5D4"/>
</g>
<path opacity="0.4" d="M258.593 102.344C274.682 107.393 286.053 96.0602 302.072 102.793C318.091 109.526 323.049 135.111 330.677 152.168C338.305 169.225 353.942 168.327 379.114 177.304C404.286 186.281 426.407 238.798 403.523 277.849C380.639 316.9 341.737 341.587 291.393 321.837C241.049 302.087 176.593 327.672 146.844 337.098C117.095 346.524 58.7419 326.325 48.825 280.99C38.908 235.655 82.769 215.905 84.295 193.911C85.821 171.917 88.1089 132.417 136.165 131.968C184.221 131.519 168.829 85.6712 204.053 81.6952C231.896 78.5552 247.151 98.7532 258.593 102.344Z" fill="#ACD5D4"/>
<path d="M205.363 120.543C205.363 120.543 197.287 126.813 190.301 128.295C183.315 129.777 196.051 149.021 196.051 149.021C196.051 149.021 210.516 154.062 210.516 164.363C210.516 174.664 205.694 177.075 213.365 182.993C221.036 188.911 223.666 196.801 207.667 196.801C191.668 196.801 181.586 180.144 181.586 180.144L180.709 127.981C180.709 127.981 188.161 111.982 188.161 111.324C188.161 110.666 194.079 109.79 194.079 109.79L205.363 120.543Z" fill="#18203D"/>
<path d="M218.572 188.232C228.736 192.723 259.516 245.974 264.749 260.441C269.982 274.908 259.209 285.066 246.588 278.294C233.968 271.522 212.729 240.742 212.729 240.742L218.572 188.232Z" fill="#18203D"/>
<path d="M162.042 327.898H216.028C216.028 327.898 213.731 285.778 214.114 263.569C214.275 254.405 213.203 242.088 211.458 230.007V230C208.97 212.814 205.112 196.109 201.483 189.671C195.297 178.701 195.397 175.891 184.327 174.766C175.447 173.863 157.602 169.415 149.288 178.326C147.275 180.477 145.828 183.409 145.192 187.367C143.585 197.381 162.042 327.898 162.042 327.898Z" fill="#EFE6FD"/>
<path opacity="0.3" d="M162.042 327.898H216.028C216.028 327.898 213.731 285.778 214.114 263.569C214.275 254.405 213.203 242.088 211.458 230.007C207.783 245.073 199.691 251.879 193.774 257.1C183.309 266.332 152.542 178.333 152.542 178.333C152.542 178.333 151.371 178.302 149.289 178.325C147.276 180.476 145.829 183.408 145.193 187.366C143.585 197.381 162.042 327.898 162.042 327.898Z" fill="#4A6C8F"/>
<path d="M186.352 138.335C187.08 145.39 192.239 150.637 197.874 150.055C203.509 149.473 207.486 143.283 206.758 136.229C206.03 129.175 200.871 123.928 195.236 124.509C189.601 125.09 185.624 131.28 186.352 138.335Z" fill="#18203D"/>
<path d="M198.902 147.566L205.056 153.72C205.482 154.146 206.174 154.146 206.6 153.72C207.027 153.294 207.027 152.602 206.6 152.176L200.446 146.022C200.02 145.596 199.328 145.596 198.902 146.022C198.476 146.448 198.476 147.14 198.902 147.566Z" fill="#18203D"/>
<path d="M187.12 137.02C187.54 141.09 190.516 144.117 193.767 143.782C197.018 143.446 199.313 139.875 198.893 135.805C198.473 131.735 195.497 128.708 192.246 129.043C188.995 129.379 186.7 132.95 187.12 137.02Z" fill="white" stroke="#272525" stroke-miterlimit="10"/>
<path d="M205.058 206.46L209.46 245.112C209.46 245.112 207.906 265.062 207.225 282.057C207.095 285.303 206.995 288.442 206.942 291.312C206.628 309.226 205.373 329.65 205.373 329.65L235.857 329.022C235.857 329.022 221.403 272.77 221.717 262.397C221.878 257.191 223.302 251.121 224.603 245.44C225.889 239.806 227.06 234.569 226.747 230.971C226.112 223.744 219.826 209.919 219.826 209.919C219.826 209.919 220.461 189.801 218.57 188.231C216.687 186.662 190.152 176.371 190.152 176.371L205.058 206.46Z" fill="#8133F1"/>
<path opacity="0.3" d="M235.856 329.024C235.856 329.024 221.402 272.772 221.716 262.399C221.877 257.193 223.301 251.123 224.602 245.442C219.94 257.285 212.637 272.313 207.224 282.058C207.094 285.304 206.994 288.443 206.941 291.313C206.627 309.227 205.372 329.651 205.372 329.651L235.856 329.024Z" fill="#4A6C8F"/>
<path d="M187.459 173.462C190.348 173.944 204.855 191.76 211.485 200.071C213.306 202.354 212.87 205.69 210.524 207.428L206.315 210.546L215.168 213.724C217.232 214.465 218.598 216.429 218.581 218.621C218.494 229.89 217.342 264.795 206.943 291.313C206.943 291.313 207.571 239.773 201.286 211.803C195.002 183.832 187.459 173.462 187.459 173.462Z" fill="#B78AF7"/>
<path d="M124.293 201.43C124.523 202.854 125.426 205.794 126.743 209.721C132.707 227.413 147.237 265.139 147.237 274.654C147.237 286.283 134.031 329.651 134.031 329.651H192.488L188.086 290.999L183.96 275.007L183.057 271.516L160.435 182.575L161.377 175.034C161.377 175.034 144.719 179.114 134.659 183.202C124.607 187.291 123.038 193.576 124.293 201.43Z" fill="#8133F1"/>
<path opacity="0.3" d="M138.341 314.846C135.96 323.321 134.031 329.652 134.031 329.652H192.488L188.086 291L187.52 288.818L183.96 275.008L171.397 274.572L156.048 274.036C156.048 274.036 176.649 268.823 175.409 265.6C174.169 262.37 132.967 234.075 131.972 211.989L126.743 209.723C132.707 227.415 147.237 265.141 147.237 274.656C147.237 276.547 146.885 279.28 146.303 282.526C144.664 291.619 141.181 304.748 138.341 314.846Z" fill="#4A6C8F"/>
<path opacity="0.3" d="M138.341 314.846C154.371 306.555 176.871 294.467 187.52 288.817L183.96 275.007L171.397 274.571C163.757 277.013 154.685 279.899 146.303 282.525C144.664 291.619 141.181 304.748 138.341 314.846Z" fill="#4A6C8F"/>
<path d="M162.632 173.462C162.632 173.462 178.974 233.173 188.088 290.999C188.088 290.999 162.845 248.928 154.754 226.258C153.972 224.066 154.761 221.625 156.673 220.298L164.832 214.632L155.863 211.642C153.431 210.831 151.963 208.36 152.42 205.837C154.095 196.594 157.957 175.867 159.175 174.405C160.746 172.519 162.632 173.462 162.632 173.462Z" fill="#B78AF7"/>
<path d="M179.406 257.289L179.506 257.999L182.126 276.389C182.126 276.389 200.086 272.299 201.226 270.019C202.366 267.749 202.366 264.799 202.366 264.799C202.366 264.799 203.956 262.749 204.636 261.609C205.316 260.479 205.766 255.699 205.766 255.699C205.766 255.699 217.366 249.569 218.736 248.659C219.436 248.199 220.416 246.959 220.856 245.859C221.226 244.939 221.216 244.129 220.326 243.929C220.196 243.899 220.036 243.879 219.866 243.879C217.136 243.879 201.906 250.019 201.906 250.019C201.906 250.019 194.866 247.069 193.036 247.299C191.696 247.459 184.956 252.509 181.476 255.379C180.266 256.379 179.455 257.119 179.406 257.289Z" fill="#DD9091"/>
<path d="M179.405 257.292L182.13 276.385C182.13 276.385 200.09 272.297 201.223 270.023C202.364 267.749 202.364 264.794 202.364 264.794C202.364 264.794 203.956 262.75 204.638 261.609C205.319 260.476 205.771 255.699 205.771 255.699C205.771 255.699 217.369 249.567 218.732 248.656C220.011 247.806 222.276 244.361 220.324 243.925C214.322 249.108 202.426 253.64 202.426 253.64C202.426 253.64 197.718 264.143 194.457 266.317C191.556 268.246 187.23 264.602 181.481 255.377C180.27 256.381 179.458 257.116 179.405 257.292Z" fill="#D36E75"/>
<path d="M179.406 257.289L179.506 257.999C179.586 258.099 179.636 258.149 179.636 258.149C179.636 258.149 191.016 249.129 193.496 248.869C195.986 248.609 202.256 250.959 202.256 250.959C202.256 250.959 215.906 245.579 220.856 245.859C221.226 244.939 221.216 244.129 220.326 243.929C220.196 243.899 220.036 243.879 219.866 243.879C217.136 243.879 201.906 250.019 201.906 250.019C201.906 250.019 194.866 247.069 193.036 247.299C191.696 247.459 184.956 252.509 181.476 255.379C180.266 256.379 179.455 257.119 179.406 257.289Z" fill="white"/>
<path d="M103.861 297.284C106.38 308.285 125.549 303.255 144.404 295.715C163.259 288.167 187.458 277.173 187.458 277.173L184.702 266.968V266.96L181.724 255.944L181.173 253.915L132.775 269.624L132.783 269.616C132.905 269.095 137.905 248.587 140.354 231.676C140.951 227.55 141.395 223.638 141.579 220.285C142.375 205.678 133.296 191.523 130.471 187.489C129.943 186.746 129.637 186.348 129.637 186.348C120.833 189.801 115.176 197.027 112.351 223.431C110.384 241.728 105.859 264.847 104.106 280.985C103.325 288.136 103.088 293.908 103.861 297.284Z" fill="#8133F1"/>
<path d="M115.604 278.743C116.048 278.605 130.096 273.997 136.94 271.8C142.337 270.062 169.759 260.24 181.724 255.946L181.173 253.917L132.775 269.626C128.19 271.638 115.987 278.528 115.604 278.743Z" fill="white"/>
<path d="M104.106 280.986C108.5 271.31 113.606 240.527 115.597 219.934C117.312 202.143 123.283 192.497 130.472 187.49C129.944 186.747 129.638 186.349 129.638 186.349C120.834 189.802 115.177 197.028 112.352 223.432C110.383 241.729 105.859 264.848 104.106 280.986Z" fill="white"/>
<path opacity="0.3" d="M103.861 297.284C106.38 308.285 125.549 303.255 144.404 295.715C163.259 288.167 187.458 277.173 187.458 277.173L184.702 266.968C175.462 272.327 125.655 291.167 114.195 290.746C108.438 290.532 105.598 285.824 104.105 280.985C103.325 288.136 103.088 293.908 103.861 297.284Z" fill="#4A6C8F"/>
<path opacity="0.3" d="M116.638 271.202L132.776 269.625C132.776 269.625 132.776 269.625 132.784 269.617C132.906 269.096 137.906 248.588 140.355 231.677C132.247 246.414 116.638 271.202 116.638 271.202Z" fill="#4A6C8F"/>
<path d="M165.035 154.012L163.803 179C163.803 179 165.526 180.723 168.419 182.414C171.022 183.937 174.559 185.445 178.647 185.683C187.305 186.181 189.533 182.713 189.533 182.713L189.433 173.932L189.288 161.431C189.288 161.431 192.848 161.906 195.879 159.601H195.887C197.778 158.169 199.454 155.658 199.929 151.287C200.947 141.871 198.582 121.806 190.467 114.587L190.459 114.579C188.76 113.063 186.807 112.114 184.587 111.946C184.587 111.946 181.77 111.525 178.057 111.395C171.098 111.158 160.978 111.923 160.335 118.377C159.347 128.275 165.035 154.012 165.035 154.012Z" fill="#DD9091"/>
<path d="M165.035 154.012L163.803 179C163.803 179 165.526 180.723 168.419 182.414C171.313 179.75 172.913 175.44 172.354 169.155C170.953 153.461 179.083 158.866 179.083 158.866C174.046 150.774 171.879 125.243 178.057 111.395C171.098 111.158 160.978 111.923 160.335 118.377C159.347 128.275 165.035 154.012 165.035 154.012Z" fill="#D36E75"/>
<path d="M195.887 159.601C197.778 158.169 199.454 155.658 199.929 151.287C200.947 141.871 198.582 121.806 190.467 114.587C197.035 127.586 199.324 147.329 195.887 159.601Z" fill="white"/>
<path d="M177.1 161.086C179.665 165.319 183.929 171.099 189.433 173.932L189.288 161.431C189.288 161.431 184.618 161.531 179.083 158.866C177.698 158.2 176.304 159.769 177.1 161.086Z" fill="#D36E75"/>
<path d="M193.394 155.329H196.434C197.798 155.329 198.904 154.223 198.904 152.859C198.904 151.495 197.798 150.389 196.434 150.389H193.394C192.03 150.389 190.924 151.495 190.924 152.859C190.924 154.224 192.03 155.329 193.394 155.329Z" fill="#18203D"/>
<path d="M197.126 154.04H205.829C206.432 154.04 206.921 153.551 206.921 152.948C206.921 152.345 206.432 151.856 205.829 151.856H197.126C196.523 151.856 196.034 152.345 196.034 152.948C196.034 153.551 196.522 154.04 197.126 154.04Z" fill="#18203D"/>
<path d="M143.194 106.304C143.194 107.054 143.286 107.782 143.462 108.478C143.883 110.124 144.763 111.586 145.965 112.719C147.534 114.189 149.663 115.1 151.99 115.1C156.843 115.1 160.786 111.165 160.786 106.304C160.786 106.044 160.778 105.784 160.748 105.531C160.602 103.763 159.921 102.147 158.88 100.838C157.272 98.8091 154.777 97.5081 151.99 97.5081C147.129 97.5081 143.194 101.443 143.194 106.304Z" fill="#82435C"/>
<path d="M143.194 106.304C143.194 107.054 143.286 107.782 143.462 108.478C143.822 104.857 145.521 101.205 150.298 99.7891C154.041 98.6791 156.882 99.5361 158.88 100.838C157.272 98.8091 154.777 97.5081 151.99 97.5081C147.129 97.5081 143.194 101.443 143.194 106.304Z" fill="white"/>
<path d="M145.966 112.719C147.535 114.189 149.664 115.1 151.991 115.1C156.844 115.1 160.787 111.165 160.787 106.304C160.787 106.044 160.779 105.784 160.749 105.531C157.848 103.564 153.338 101.512 149.373 104.015C146.234 105.997 145.43 109.412 145.966 112.719Z" fill="#4B1C4A"/>
<path d="M105.331 187.681C105.331 188.102 105.346 188.523 105.362 188.921C105.362 188.921 105.362 188.929 105.362 188.936H105.37C106.028 200.947 116.072 203.451 116.072 203.451C117.083 196.577 127.655 185.323 135.54 188.347C143.433 191.363 155.521 192.045 154.847 183.317C154.173 174.582 164.248 176.595 167.938 170.387C171.628 164.178 166.43 153.109 166.43 153.109L164.746 140.347C164.746 140.347 164.823 140.217 164.976 139.972C165.565 139.046 167.219 136.489 169.615 133.296C172.639 129.269 171.123 121.04 171.123 121.04C171.123 121.04 170.304 114.977 169.14 111.907C169.37 112.19 173.098 116.891 175.387 122.862C179.222 124.156 184.995 125.304 189.925 122.885C192.03 121.859 194.067 121.201 195.934 120.803C195.084 116.562 192.78 112.665 192.642 112.428C195.49 114.503 197.35 117.994 198.361 120.397C202.51 119.884 205.366 120.542 205.366 120.542C205.366 120.542 205.366 120.534 205.358 120.511C200.971 100.239 169.615 105.093 169.615 105.093C150.316 104.595 145.615 122.218 148.471 134.138C151.326 146.05 145.118 161.659 135.709 159.983C126.316 158.307 124.8 167.7 122.113 171.397C119.432 175.088 105.331 174.583 105.331 187.681Z" fill="#82435C"/>
<path d="M105.331 187.681C105.331 188.102 105.346 188.523 105.362 188.921C106.411 175.31 121.247 178.533 124.853 171.451C128.589 164.102 127.716 162.356 135.433 162.479C143.157 162.609 148.884 157.128 150.507 145.92C152.122 134.713 148.884 128.611 152.245 118.031C155.606 107.443 170.549 103.83 186.243 106.571C201.439 109.227 205.137 119.846 205.359 120.512C200.972 100.24 169.616 105.094 169.616 105.094C150.317 104.596 145.616 122.219 148.472 134.139C151.327 146.051 145.119 161.66 135.71 159.984C126.317 158.308 124.801 167.701 122.114 171.398C119.432 175.088 105.331 174.583 105.331 187.681Z" fill="white"/>
<path d="M105.369 188.937C106.027 200.948 116.071 203.452 116.071 203.452C117.082 196.578 127.654 185.324 135.539 188.348C143.432 191.364 155.52 192.046 154.846 183.318C154.172 174.583 164.247 176.596 167.937 170.388C171.627 164.179 166.429 153.11 166.429 153.11L164.745 140.348C164.745 140.348 164.822 140.218 164.975 139.973C158.82 144.429 151.769 147.062 154.211 155.621C158.299 169.929 137.859 158.691 135.608 170.748C133.357 182.805 125.388 176.88 118.23 184.038C113.476 188.791 108.446 191.47 105.369 188.937Z" fill="#4B1C4A"/>
<path d="M157.906 127.116C157.906 127.116 157.804 110.038 169.598 103.526H179.181C179.181 103.526 165.782 108.121 165.789 128.222L157.906 127.116Z" fill="#E5D157"/>
<path d="M161.346 151.155C155.681 151.155 151.089 145.406 151.089 138.314C151.089 131.222 155.681 125.473 161.346 125.473C167.011 125.473 171.603 131.222 171.603 138.314C171.603 145.406 167.011 151.155 161.346 151.155Z" fill="#18203D"/>
<path d="M157.906 144.494C154.638 144.494 151.988 141.177 151.988 137.085C151.988 132.993 154.638 129.676 157.906 129.676C161.174 129.676 163.824 132.993 163.824 137.085C163.824 141.177 161.174 144.494 157.906 144.494Z" fill="#E5D157"/>
<path d="M205.357 153.928C205.954 152.849 209.736 154.54 213.135 157.503C217.116 160.963 217.506 161.193 217.506 161.193C217.506 161.193 221.816 162.165 222.359 162.272C222.895 162.379 223.867 164.102 223.867 164.102C223.867 164.102 225.589 164.424 226.875 165.074C228.169 165.717 230.221 168.09 230.221 168.09C230.221 168.09 232.694 168.519 233.451 169.376C234.148 170.18 236.613 178.233 237.041 181.265C237.079 181.502 237.102 181.701 237.11 181.87C237.217 184.243 236.896 186.073 236.896 186.073L237.309 187.091V187.099L239.368 192.213L225.772 194.9C225.772 194.9 223.445 191.348 220.199 188.982C218.224 187.543 214.894 184.986 214.166 184.136C212.267 181.885 210.706 171.007 209.496 169.101C208.286 167.195 209.496 165.296 211.058 166.506C211.311 166.705 211.647 167.08 212.038 167.57C212.053 167.524 212.069 167.493 212.084 167.455V167.447C212.092 167.409 212.107 167.37 212.122 167.332C212.298 166.896 213.125 165.962 214.059 165.005C210.729 161.116 205.806 156.362 205.339 154.731C205.242 154.38 205.249 154.112 205.357 153.928ZM217.291 175.509C217.291 175.509 217.521 173.649 217.322 171.268V171.237C217.284 171.268 217.238 171.283 217.199 171.314C217.191 171.322 217.184 171.322 217.184 171.322C216.48 171.758 215.638 171.842 214.926 171.712C216.212 173.718 217.291 175.509 217.291 175.509ZM213.693 169.216H213.685C213.54 169.254 213.425 169.27 213.302 169.285C213.463 169.522 213.631 169.744 213.799 169.989C214.105 169.66 214.526 169.254 215.001 168.81L214.817 168.841C214.382 169.025 214.007 169.147 213.693 169.216Z" fill="#DD9091"/>
<path d="M209.498 169.101C210.708 171.007 212.269 181.886 214.168 184.136C214.895 184.986 218.225 187.543 220.201 188.982C223.447 191.348 225.774 194.9 225.774 194.9L239.37 192.213L237.311 187.099V187.091C231.347 184.702 229.77 182.574 229.77 181.434C229.77 180.232 229.785 173.365 229.785 173.365C229.785 173.365 227.496 172.355 226.983 172.5C226.478 172.653 221.754 173.824 221.172 173.579C220.583 173.334 224.028 170.486 224.028 170.486C224.028 170.486 223.492 169.682 222.29 169.682C221.218 169.682 218.018 170.976 217.322 171.267C217.521 173.648 217.291 175.508 217.291 175.508C217.291 175.508 216.212 173.717 214.925 171.711C214.925 171.711 213.723 171.29 213.723 171.068C213.723 170.946 213.761 170.433 213.8 169.989C213.831 169.606 213.854 169.277 213.854 169.277L213.693 169.216H213.685L212.468 168.78L212.085 167.456C212.07 167.494 212.054 167.525 212.039 167.571C211.648 167.081 211.312 166.706 211.059 166.507C209.498 165.297 208.289 167.195 209.498 169.101Z" fill="#D36E75"/>
<path d="M227.095 184.674C227.095 184.674 223.756 180.581 218.91 178.535" stroke="#AF565B" stroke-width="2" stroke-miterlimit="10" stroke-linecap="round" stroke-linejoin="round"/>
<path d="M230.003 178.427L229.788 173.365L226.988 172.503C226.988 172.503 221.495 174.226 221.172 173.58C220.849 172.934 226.019 168.626 226.019 168.626L228.927 167.98" stroke="#AF565B" stroke-width="2" stroke-miterlimit="10" stroke-linecap="round" stroke-linejoin="round"/>
<path d="M222.464 164.964L217.833 166.364C217.833 166.364 214.171 169.38 213.525 170.349C212.879 171.318 215.464 172.395 217.187 171.318C218.91 170.241 221.28 169.81 221.28 169.81L224.215 169.857" stroke="#AF565B" stroke-width="2" stroke-miterlimit="10" stroke-linecap="round" stroke-linejoin="round"/>
<path d="M216.971 162.164C216.971 162.164 212.555 166.257 212.125 167.334C211.695 168.411 211.802 170.134 214.818 168.842" stroke="#AF565B" stroke-width="2" stroke-miterlimit="10" stroke-linecap="round" stroke-linejoin="round"/>
<path d="M212.145 158.143C214.664 159.988 216.632 161.726 216.632 161.726L215.178 163.796C215.354 163.712 218.118 162.296 218.608 162.211C219.113 162.127 222.382 163.635 222.382 163.635L223.308 164.722C223.308 164.722 227.419 166.49 228.001 166.904C228.591 167.325 229.348 168.665 229.348 168.665C229.348 168.665 230.351 168.833 232.364 170.181C233.596 171 235.641 176.902 237.041 181.266C236.612 178.234 234.147 170.181 233.451 169.377C232.693 168.52 230.221 168.091 230.221 168.091C230.221 168.091 228.169 165.718 226.875 165.075C225.589 164.424 223.867 164.103 223.867 164.103C223.867 164.103 222.895 162.381 222.359 162.273C221.816 162.166 217.506 161.194 217.506 161.194C217.506 161.194 217.115 160.964 213.135 157.504C209.736 154.541 205.954 152.85 205.357 153.929C207.531 154.786 210.323 156.811 212.145 158.143Z" fill="white"/>
<path d="M221.349 193.339C221.349 193.339 221.717 194.426 222.352 196.317C222.36 196.325 222.367 196.332 222.36 196.34C226.027 207.226 238.567 244.646 241.973 256.443C245.977 270.292 247.515 285.373 265.368 279.83C272.679 277.564 274.769 271.156 274.042 263.218C273.966 262.345 273.851 261.45 273.705 260.539C271.967 249.569 265.72 236.394 260.691 227.161C251.459 210.227 242.28 187.797 242.28 187.797L239.524 188.524L221.349 193.339Z" fill="#8133F1"/>
<path opacity="0.3" d="M222.359 196.339C226.026 207.225 238.566 244.645 241.972 256.442C245.976 270.291 247.514 285.372 265.367 279.829C272.678 277.563 274.768 271.155 274.041 263.217C267.343 272.825 253.884 268.124 247.132 245.242C241.215 225.208 228.116 204.737 222.359 196.339Z" fill="#4A6C8F"/>
<path d="M239.523 188.523C244.055 199.31 254.321 223.21 262.022 237.304C269.195 250.425 272.426 257.507 273.704 260.538C271.966 249.568 265.719 236.393 260.69 227.16C251.458 210.226 242.279 187.796 242.279 187.796L239.523 188.523Z" fill="white"/>
<path d="M341.78 327.904C341.78 327.904 357.237 329.819 362.008 326.961C366.779 324.103 361.004 322.114 363.373 319.541C365.742 316.968 376.887 317.127 379.571 313.179C382.255 309.232 374.752 307.375 377.562 303.485C380.372 299.594 392.482 300.642 396.999 294.638C401.516 288.635 393.025 288.304 390.9 286.288C388.775 284.272 391.849 280.803 399.035 277.97C406.22 275.136 410.825 268.263 409.979 265.761C409.133 263.259 402.648 266.558 401.915 263.804C401.183 261.049 415.835 251.72 411.691 245.764C407.547 239.809 397.093 248.903 393.426 253.015C389.759 257.127 394.286 245.368 393.636 243.105C392.986 240.842 387.671 239.514 382.716 252.9C377.761 266.285 375.783 269.337 372.882 268.034C369.982 266.73 373.773 259.643 370.986 258.087C368.199 256.531 363.367 263.909 362.029 274.979C360.691 286.049 354.771 285.056 354.732 281.097C354.692 277.138 349.358 273.831 347.483 282.386C345.608 290.941 347.539 295.75 346.349 298.398C345.159 301.046 343.032 295.998 339.969 296.743C336.906 297.488 335.344 315.127 335.208 320.826C335.072 326.525 341.78 327.904 341.78 327.904Z" fill="#18203D"/>
<path d="M342.279 305.242C342.961 305.152 343.584 305.634 343.673 306.315L345.034 316.803C346.075 315.543 347.116 314.289 348.154 313.043L347.412 305.577C347.344 304.893 347.843 304.284 348.527 304.216C349.209 304.149 349.82 304.647 349.888 305.331L350.389 310.369C350.811 309.866 351.232 309.364 351.653 308.864L351.097 293.486C351.072 292.799 351.609 292.222 352.296 292.198C352.982 292.173 353.56 292.709 353.585 293.396L354.041 306.033C355.782 303.976 357.508 301.949 359.215 299.957L359.064 289.992C359.054 289.305 359.603 288.739 360.289 288.729C360.977 288.717 361.542 289.267 361.552 289.954L361.66 297.109C362.877 295.696 364.082 294.302 365.272 292.931L366.014 274.461C366.042 273.774 366.621 273.24 367.307 273.268C367.993 273.294 368.527 273.874 368.5 274.561L367.882 289.932C369.812 287.721 371.695 285.576 373.521 283.508L374.902 274.256C375.003 273.576 375.637 273.107 376.316 273.209C376.991 273.312 377.464 273.944 377.363 274.624L376.547 280.091C377.742 278.746 378.906 277.439 380.037 276.174L382.627 260.195C382.737 259.517 383.376 259.056 384.054 259.166C384.732 259.281 385.193 259.915 385.083 260.594L383.114 272.743C384.511 271.19 385.845 269.713 387.108 268.319L388.504 259.011C388.606 258.331 389.24 257.863 389.919 257.965C390.598 258.069 391.067 258.7 390.965 259.38L390.121 265.003C396.461 258.051 400.391 253.878 400.501 253.761C400.973 253.261 401.761 253.237 402.26 253.71C402.76 254.182 402.783 254.969 402.311 255.469C402.199 255.588 398.108 259.933 391.535 267.146L396.882 266.383C397.56 266.286 398.192 266.759 398.289 267.439C398.386 268.119 397.913 268.749 397.233 268.846L388.91 270.033C387.53 271.555 386.066 273.177 384.527 274.89L395.29 273.044C395.968 272.928 396.611 273.383 396.727 274.06C396.843 274.737 396.388 275.38 395.711 275.496L381.853 277.873C380.57 279.308 379.246 280.795 377.883 282.331L384.591 281.367C385.271 281.269 385.902 281.741 386 282.421C386.098 283.102 385.625 283.732 384.945 283.83L375.335 285.211C373.381 287.425 371.362 289.725 369.289 292.102L384.122 291.758C384.808 291.743 385.379 292.287 385.395 292.973C385.411 293.66 384.867 294.23 384.18 294.246L367.08 294.642C365.734 296.193 364.368 297.773 362.987 299.379L370.334 300.029C371.02 300.089 371.524 300.695 371.464 301.378C371.403 302.063 370.799 302.569 370.115 302.508L360.995 301.701C359.173 303.828 357.328 305.996 355.468 308.197L368.177 308.923C368.864 308.963 369.387 309.55 369.348 310.236C369.308 310.923 368.721 311.447 368.035 311.408L353.463 310.575C352.983 311.146 352.502 311.719 352.02 312.294L357.171 312.493C357.858 312.519 358.393 313.098 358.367 313.784C358.34 314.471 357.762 315.006 357.075 314.979L350.006 314.705C348.86 316.08 347.712 317.464 346.563 318.856L356.61 320.119C357.292 320.205 357.775 320.827 357.689 321.509C357.603 322.191 356.981 322.674 356.299 322.589L344.692 321.13C343.376 322.733 342.06 324.345 340.748 325.965C340.385 326.413 339.774 326.543 339.272 326.317C339.176 326.274 339.083 326.218 338.998 326.148C338.464 325.715 338.382 324.932 338.815 324.398C340.162 322.736 341.513 321.081 342.863 319.436L341.202 306.637C341.117 305.954 341.597 305.33 342.279 305.242Z" fill="#18203D"/>
<path d="M336.538 323.031C336.538 323.031 346.741 313.721 347.567 308.859C348.393 303.997 343.722 306.741 343.355 303.661C342.988 300.581 349.521 293.164 348.409 289.08C347.297 284.996 341.72 288.98 340.719 284.844C339.718 280.707 347.406 273.153 345.966 266.648C344.526 260.143 339.407 265.673 336.823 265.943C334.239 266.212 333.675 262.141 335.909 255.666C338.143 249.191 336.168 242.126 333.994 241.253C331.821 240.38 330.304 246.652 328.026 245.557C325.748 244.462 327.911 229.211 321.509 228.569C315.107 227.927 315.207 240.214 315.862 245.056C316.518 249.897 311.206 240.067 309.307 239.201C307.407 238.334 303.448 241.149 309.609 252.206C315.77 263.262 316.685 266.355 314.135 267.557C311.584 268.759 308.996 262.118 306.341 263.099C303.686 264.08 305.87 271.589 312.557 278.873C319.244 286.157 315.161 289.573 312.471 287.317C309.781 285.061 304.477 286.748 309.16 292.944C313.843 299.14 318.196 300.612 319.294 302.941C320.392 305.27 315.764 303.792 314.5 306.285C313.236 308.778 324.219 320.002 327.98 323.379C331.742 326.755 336.538 323.031 336.538 323.031Z" fill="#18203D"/>
<path d="M321.559 309.627C321.892 309.115 322.576 308.974 323.086 309.307L330.936 314.437C330.687 313.009 330.443 311.585 330.202 310.167L324.744 306.362C324.244 306.014 324.122 305.326 324.47 304.826C324.818 304.328 325.506 304.203 326.006 304.552L329.689 307.12C329.593 306.546 329.498 305.972 329.404 305.401L318.723 296.909C318.246 296.529 318.167 295.835 318.546 295.359C318.925 294.882 319.619 294.802 320.097 295.182L328.874 302.161C328.492 299.802 328.122 297.47 327.764 295.172L320.963 289.528C320.494 289.138 320.43 288.443 320.819 287.974C321.207 287.504 321.904 287.44 322.373 287.829L327.256 291.882C327.006 290.247 326.762 288.631 326.524 287.039L314.508 275.889C314.061 275.475 314.035 274.776 314.45 274.33C314.863 273.883 315.562 273.857 316.009 274.272L326.009 283.551C325.632 280.976 325.273 278.47 324.932 276.048L319.495 269.783C319.095 269.323 319.145 268.626 319.605 268.226C320.063 267.831 320.762 267.877 321.162 268.336L324.375 272.038C324.158 270.458 323.949 268.92 323.748 267.428L314.476 256.469C314.082 256.004 314.14 255.308 314.606 254.914C315.074 254.524 315.768 254.579 316.161 255.044L323.21 263.376C322.969 261.539 322.743 259.789 322.533 258.134L317.068 251.826C316.669 251.365 316.719 250.668 317.179 250.269C317.64 249.871 318.336 249.92 318.736 250.38L322.038 254.191C321.01 245.911 320.464 240.857 320.449 240.716C320.384 240.11 320.822 239.565 321.429 239.501C322.035 239.436 322.579 239.875 322.643 240.48C322.659 240.624 323.226 245.886 324.297 254.473L326.867 250.431C327.193 249.918 327.875 249.765 328.39 250.092C328.904 250.419 329.056 251.1 328.729 251.615L324.73 257.907C324.96 259.714 325.208 261.636 325.475 263.66L330.438 255.344C330.75 254.82 331.428 254.65 331.951 254.962C332.474 255.274 332.645 255.951 332.333 256.474L325.944 267.181C326.171 268.873 326.409 270.622 326.658 272.426L329.876 267.351C330.202 266.836 330.884 266.684 331.398 267.01C331.913 267.337 332.066 268.018 331.739 268.533L327.128 275.804C327.493 278.397 327.878 281.084 328.285 283.85L336.606 273.659C336.992 273.188 337.687 273.117 338.159 273.502C338.631 273.887 338.701 274.582 338.316 275.055L328.723 286.804C328.992 288.606 329.269 290.436 329.554 292.293L334.228 287.718C334.664 287.29 335.363 287.3 335.788 287.734C336.215 288.17 336.207 288.869 335.771 289.295L329.969 294.974C330.352 297.428 330.749 299.921 331.159 302.443L338.976 294.299C339.399 293.859 340.096 293.845 340.536 294.267C340.976 294.689 340.99 295.388 340.568 295.828L331.605 305.165C331.713 305.818 331.821 306.472 331.931 307.128L335.035 303.773C335.449 303.325 336.147 303.299 336.594 303.712C337.041 304.126 337.068 304.824 336.654 305.271L332.393 309.876C332.659 311.441 332.929 313.012 333.205 314.589L339.849 308.548C340.3 308.138 340.998 308.171 341.408 308.622C341.818 309.073 341.785 309.771 341.334 310.181L333.658 317.16C333.979 318.971 334.307 320.787 334.641 322.605C334.733 323.108 334.469 323.594 334.027 323.802C333.943 323.842 333.852 323.872 333.755 323.889C333.156 323.999 332.58 323.603 332.47 323.003C332.127 321.137 331.791 319.273 331.461 317.414L321.88 311.153C321.368 310.821 321.225 310.137 321.559 309.627Z" fill="#18203D"/>
<path d="M337.798 324.062C337.798 324.062 351.838 332.811 357.712 332.188C363.586 331.565 358.909 327.068 362.341 325.647C365.773 324.226 376.442 329.357 380.791 326.752C385.14 324.147 378.74 319.007 383.185 316.513C387.63 314.019 398.832 320.437 405.867 316.669C412.901 312.902 404.866 308.791 403.719 305.898C402.572 303.006 407.084 301.037 415.273 301.515C423.462 301.994 430.97 297.427 431.273 294.638C431.575 291.849 423.852 292.132 424.377 289.151C424.901 286.17 443.188 283.723 441.854 276.134C440.52 268.544 426.384 272.639 421.014 274.963C415.644 277.287 425.258 267.978 425.642 265.507C426.026 263.036 421.498 259.383 410.744 270.068C399.991 280.753 396.721 282.811 394.509 280.259C392.296 277.707 399.116 272.571 397.125 269.827C395.134 267.083 387.183 272.034 380.949 282.104C374.715 292.174 369.455 288.573 371.185 284.74C372.915 280.907 369.252 275.338 363.624 282.745C357.996 290.152 357.709 295.648 355.38 297.669C353.05 299.689 353.256 293.875 349.971 293.224C346.686 292.574 337.303 308.874 334.626 314.304C331.949 319.738 337.798 324.062 337.798 324.062Z" fill="#6DA1A4"/>
<path d="M348.4 302.447C349.098 302.665 349.483 303.408 349.264 304.104L345.891 314.818C347.457 314.069 349.02 313.325 350.577 312.588L353.197 305.062C353.437 304.373 354.19 304.009 354.88 304.248C355.567 304.488 355.933 305.241 355.693 305.931L353.925 311.009C354.556 310.713 355.186 310.417 355.815 310.123L362.148 295.056C362.431 294.383 363.206 294.067 363.878 294.35C364.55 294.633 364.867 295.407 364.585 296.08L359.381 308.461C361.978 307.256 364.546 306.074 367.081 304.916L371.387 295.246C371.684 294.579 372.465 294.279 373.132 294.576C373.8 294.871 374.1 295.654 373.802 296.321L370.71 303.264C372.514 302.446 374.298 301.641 376.057 300.851L385.021 283.384C385.354 282.735 386.151 282.478 386.8 282.812C387.45 283.144 387.705 283.941 387.372 284.591L379.912 299.127C382.759 297.858 385.532 296.633 388.215 295.455L393.678 287.156C394.079 286.546 394.899 286.377 395.509 286.778C396.113 287.178 396.287 287.999 395.886 288.609L392.658 293.513C394.41 292.75 396.115 292.011 397.771 291.297L407.404 277.056C407.813 276.452 408.634 276.293 409.239 276.702C409.841 277.115 410.002 277.933 409.593 278.538L402.269 289.365C404.309 288.492 406.255 287.664 408.094 286.886L413.597 278.541C413.999 277.932 414.819 277.763 415.428 278.165C416.036 278.568 416.206 279.386 415.804 279.996L412.479 285.038C421.693 281.17 427.344 278.904 427.502 278.841C428.18 278.57 428.95 278.898 429.22 279.577C429.491 280.255 429.161 281.024 428.484 281.294C428.323 281.359 422.44 283.718 412.885 287.734L418.379 289.388C419.076 289.598 419.474 290.335 419.263 291.034C419.053 291.733 418.316 292.129 417.617 291.918L409.067 289.345C407.057 290.196 404.922 291.105 402.675 292.068L413.872 295.096C414.577 295.286 414.993 296.012 414.803 296.717C414.613 297.421 413.887 297.838 413.183 297.647L398.767 293.748C396.89 294.558 394.95 295.399 392.95 296.271L399.844 298.338C400.543 298.547 400.94 299.284 400.731 299.983C400.521 300.683 399.784 301.079 399.085 300.87L389.207 297.909C386.335 299.169 383.362 300.484 380.304 301.849L394.751 308.142C395.419 308.434 395.726 309.213 395.435 309.881C395.144 310.55 394.365 310.856 393.696 310.565L377.04 303.309C375.049 304.203 373.028 305.115 370.98 306.045L377.77 309.953C378.405 310.317 378.62 311.126 378.256 311.758C377.892 312.391 377.083 312.608 376.451 312.244L368.023 307.393C365.317 308.629 362.571 309.894 359.795 311.185L371.718 317.561C372.362 317.906 372.604 318.706 372.26 319.349C371.915 319.993 371.114 320.236 370.471 319.892L356.801 312.581C356.083 312.917 355.364 313.254 354.643 313.593L359.517 316.086C360.167 316.418 360.424 317.215 360.092 317.864C359.759 318.514 358.963 318.771 358.314 318.439L351.624 315.018C349.906 315.831 348.181 316.652 346.452 317.481L355.57 323.185C356.189 323.573 356.376 324.388 355.989 325.007C355.602 325.626 354.787 325.813 354.167 325.427L343.633 318.837C341.649 319.794 339.661 320.76 337.673 321.734C337.123 322.003 336.477 321.856 336.094 321.414C336.021 321.329 335.956 321.234 335.905 321.129C335.584 320.474 335.855 319.682 336.51 319.361C338.551 318.361 340.591 317.37 342.627 316.388L346.743 303.312C346.962 302.614 347.704 302.228 348.4 302.447Z" fill="#528E8D"/>
<path d="M342.153 324.366C342.153 324.366 357.357 317.846 360.203 312.671C363.049 307.496 356.686 308.762 357.482 305.134C358.278 301.505 368.586 295.684 368.934 290.626C369.282 285.568 361.406 287.882 361.901 282.809C362.396 277.736 374.065 272.213 374.994 264.287C375.923 256.362 367.957 260.605 364.928 259.893C361.899 259.181 362.862 254.354 367.936 247.907C373.01 241.461 373.554 232.69 371.438 230.848C369.322 229.006 365.14 235.505 362.994 233.37C360.847 231.235 369.293 214.832 362.303 211.588C355.313 208.344 350.593 222.284 349.431 228.019C348.269 233.754 346.126 220.544 344.318 218.817C342.51 217.089 336.924 218.717 339.545 233.648C342.166 248.579 341.986 252.438 338.627 252.795C335.269 253.152 334.952 244.621 331.563 244.686C328.174 244.751 327.691 254.106 332.391 264.976C337.091 275.847 331.129 278.105 328.973 274.495C326.817 270.885 320.153 270.707 323.014 279.559C325.875 288.41 330.221 291.788 330.547 294.854C330.873 297.92 326.219 294.428 323.808 296.752C321.397 299.076 329.408 316.092 332.335 321.392C335.262 326.694 342.153 324.366 342.153 324.366Z" fill="#6DA1A4"/>
<path d="M330.478 303.312C331.056 302.864 331.885 302.973 332.332 303.55L339.195 312.442C339.475 310.728 339.758 309.021 340.044 307.323L335.366 300.871C334.938 300.281 335.07 299.454 335.66 299.025C336.25 298.599 337.077 298.728 337.506 299.319L340.662 303.672C340.78 302.985 340.897 302.299 341.015 301.615L332.272 287.807C331.881 287.19 332.065 286.374 332.682 285.984C333.298 285.594 334.115 285.776 334.506 286.393L341.691 297.74C342.186 294.921 342.685 292.137 343.183 289.396L337.709 280.336C337.332 279.711 337.532 278.899 338.157 278.522C338.781 278.142 339.594 278.344 339.972 278.969L343.902 285.474C344.262 283.526 344.621 281.602 344.979 279.707L335.77 262.367C335.428 261.722 335.673 260.922 336.317 260.58C336.961 260.236 337.761 260.483 338.104 261.127L345.767 275.557C346.353 272.495 346.933 269.52 347.5 266.645L343.813 257.419C343.542 256.741 343.872 255.972 344.55 255.701C345.224 255.434 345.997 255.761 346.268 256.438L348.447 261.89C348.823 260.017 349.191 258.195 349.551 256.428L343.372 240.384C343.11 239.703 343.449 238.939 344.13 238.676C344.813 238.418 345.576 238.753 345.838 239.435L350.536 251.633C350.986 249.46 351.419 247.391 351.831 245.436L348.129 236.151C347.859 235.473 348.189 234.704 348.867 234.434C349.545 234.165 350.314 234.494 350.584 235.172L352.821 240.782C354.914 231.011 356.285 225.078 356.323 224.913C356.488 224.201 357.198 223.757 357.909 223.924C358.62 224.089 359.062 224.799 358.897 225.51C358.858 225.679 357.431 231.855 355.264 241.991L359.761 238.428C360.332 237.976 361.164 238.071 361.617 238.643C362.07 239.215 361.974 240.046 361.402 240.499L354.403 246.044C353.952 248.179 353.478 250.451 352.983 252.845L361.868 245.389C362.427 244.919 363.261 244.993 363.73 245.552C364.199 246.11 364.126 246.944 363.567 247.413L352.128 257.013C351.72 259.016 351.301 261.089 350.873 263.228L356.51 258.752C357.081 258.298 357.913 258.393 358.366 258.965C358.82 259.537 358.725 260.368 358.153 260.822L350.077 267.234C349.47 270.311 348.849 273.502 348.221 276.792L361.643 268.535C362.264 268.154 363.079 268.347 363.461 268.968C363.843 269.589 363.65 270.403 363.028 270.786L347.554 280.305C347.15 282.449 346.743 284.629 346.336 286.841L353.423 283.503C354.085 283.19 354.871 283.476 355.182 284.135C355.493 284.796 355.21 285.583 354.55 285.894L345.752 290.037C345.22 292.964 344.688 295.94 344.16 298.955L356.207 292.816C356.858 292.485 357.653 292.744 357.984 293.394C358.315 294.045 358.057 294.841 357.406 295.172L343.593 302.21C343.458 302.991 343.324 303.774 343.19 304.559L348.021 301.984C348.666 301.64 349.466 301.885 349.809 302.528C350.152 303.173 349.908 303.973 349.264 304.316L342.633 307.85C342.318 309.725 342.006 311.609 341.697 313.501L351.589 309.28C352.261 308.994 353.037 309.306 353.323 309.977C353.609 310.648 353.297 311.425 352.626 311.711L341.198 316.588C340.849 318.763 340.506 320.946 340.169 323.134C340.075 323.739 339.585 324.185 339.003 324.247C338.892 324.259 338.777 324.257 338.661 324.239C337.94 324.128 337.445 323.453 337.556 322.731C337.902 320.485 338.255 318.244 338.613 316.012L330.237 305.16C329.793 304.587 329.899 303.758 330.478 303.312Z" fill="#528E8D"/>
<mask id="mask0_2104_363" style="mask-type:luminance" maskUnits="userSpaceOnUse" x="0" y="245" width="120" height="86">
<path d="M30.62 330.936H89.725C106.403 330.936 119.923 317.416 119.923 300.738C119.923 270.229 95.191 245.497 64.682 245.497H55.663C25.154 245.497 0.421967 270.229 0.421967 300.738C0.421967 317.416 13.942 330.936 30.62 330.936Z" fill="white"/>
</mask>
<g mask="url(#mask0_2104_363)">
<path d="M66.521 324.209C66.521 324.209 75.788 329.179 79.535 317.615C83.282 306.05 75.329 298.322 65.524 295.112C55.72 291.902 48.2181 273.056 36.8291 273.611C25.4401 274.166 33.9801 291.514 37.8341 302.203C41.6891 312.892 42.018 322.76 46.473 328.15C50.929 333.539 62.272 335.512 66.521 324.209Z" fill="#18203D"/>
<path d="M37.713 287.291C37.898 286.778 38.464 286.514 38.977 286.699L41.771 287.709C39.451 284.486 38.028 282.636 37.963 282.552C37.629 282.122 37.708 281.501 38.139 281.168C38.57 280.835 39.19 280.914 39.523 281.343C39.59 281.429 41.077 283.362 43.495 286.727L43.543 284.068C43.553 283.522 44.002 283.089 44.547 283.099C45.093 283.109 45.526 283.558 45.516 284.104L45.421 289.436C47.366 292.2 49.693 295.591 52.245 299.475L52.405 290.54C52.415 289.994 52.864 289.561 53.41 289.571C53.956 289.581 54.389 290.03 54.379 290.575L54.167 302.428C55.202 304.036 56.267 305.715 57.351 307.456L57.966 301.497C58.022 300.954 58.501 300.548 59.049 300.617C59.591 300.673 59.985 301.157 59.929 301.7L59.05 310.213C60.664 312.858 62.309 315.628 63.958 318.501C64.792 315.267 66.311 309.011 67.326 304.763C67.452 304.233 67.988 303.906 68.515 304.032C69.045 304.158 69.373 304.691 69.246 305.221C66.822 315.373 65.879 319.321 65.314 320.888C72.26 333.232 79.107 347.272 83.68 361.188C83.85 361.706 83.568 362.264 83.05 362.434C82.941 362.47 82.832 362.485 82.724 362.483C82.316 362.476 81.938 362.214 81.804 361.804C77.265 347.991 70.46 334.047 63.557 321.786C61.774 321.289 53.103 319.385 47.657 318.218C47.124 318.103 46.784 317.579 46.899 317.046C47.014 316.514 47.532 316.172 48.071 316.288C55.771 317.939 59.927 318.854 62.206 319.411C60.577 316.572 58.951 313.835 57.355 311.221L47.749 308.237C47.228 308.075 46.938 307.523 47.099 307.002C47.26 306.481 47.813 306.187 48.334 306.352L55.78 308.664C54.653 306.851 53.546 305.105 52.471 303.436L40.98 298.399C40.481 298.18 40.253 297.598 40.472 297.099C40.691 296.599 41.274 296.373 41.772 296.591L50.506 300.42C47.991 296.596 45.698 293.256 43.781 290.535L38.304 288.555C37.793 288.37 37.527 287.804 37.713 287.291Z" fill="#18203D"/>
<path d="M90.144 319.067C90.144 319.067 91.788 328.073 101.695 324.35C111.602 320.627 112.549 311.018 109.415 302.601C106.281 294.184 115.043 278.851 108.486 271.398C101.929 263.945 94.751 279.171 89.564 287.595C84.377 296.019 77.837 301.597 76.584 307.555C75.332 313.513 80.143 322.307 90.144 319.067Z" fill="#18203D"/>
<path d="M99.6499 279.424C100.099 279.272 100.586 279.513 100.739 279.963L101.567 282.413C102.503 279.085 102.99 277.112 103.012 277.022C103.124 276.561 103.589 276.278 104.05 276.391C104.511 276.504 104.793 276.969 104.682 277.429C104.66 277.521 104.151 279.583 103.171 283.054L105.007 281.644C105.384 281.355 105.923 281.425 106.212 281.802C106.501 282.179 106.431 282.718 106.054 283.007L102.372 285.835C101.545 288.659 100.499 292.083 99.239 295.928L105.41 291.189C105.787 290.9 106.326 290.97 106.615 291.347C106.904 291.724 106.834 292.263 106.457 292.552L98.2709 298.839C97.7379 300.416 97.172 302.052 96.575 303.735L100.966 300.921C101.366 300.665 101.902 300.77 102.153 301.181C102.409 301.58 102.293 302.111 101.893 302.368L95.6199 306.389C94.6949 308.923 93.702 311.546 92.64 314.227C95.294 313.04 100.378 310.68 103.821 309.066C104.25 308.864 104.764 309.052 104.964 309.479C105.166 309.908 104.98 310.421 104.551 310.622C96.3239 314.479 93.1239 315.979 91.7509 316.445C87.1149 327.871 81.2709 340.151 74.2769 350.815C74.0169 351.212 73.4839 351.323 73.0869 351.062C73.0039 351.007 72.934 350.941 72.877 350.867C72.661 350.586 72.6339 350.186 72.8399 349.872C79.7819 339.287 85.584 327.089 90.187 315.737C89.558 314.254 86.1499 307.316 83.9899 302.975C83.7789 302.55 83.952 302.034 84.377 301.823C84.801 301.612 85.3149 301.78 85.5289 302.21C88.5819 308.349 90.214 311.675 91.071 313.529C92.12 310.879 93.101 308.287 94.015 305.782L90.8349 297.623C90.6629 297.181 90.8809 296.683 91.3229 296.51C91.7649 296.337 92.2649 296.554 92.4349 296.998L94.8999 303.322C95.5229 301.571 96.1109 299.87 96.6639 298.232L93.8589 287.675C93.7369 287.216 94.0099 286.746 94.4689 286.624C94.9289 286.502 95.3979 286.776 95.5199 287.233L97.6519 295.257C98.8909 291.469 99.9209 288.097 100.734 285.315L99.1109 280.511C98.9589 280.063 99.2009 279.575 99.6499 279.424Z" fill="#18203D"/>
<path d="M47.995 317.648C47.995 317.648 56.975 319.432 57.156 308.85C57.338 298.268 48.751 293.853 39.772 293.672C30.792 293.49 19.757 279.703 10.415 283.058C1.07198 286.414 12.591 298.689 18.517 306.611C24.443 314.533 27.224 322.666 32.303 326.022C37.382 329.379 47.329 328.14 47.995 317.648Z" fill="#6DA1A4"/>
<path d="M14.627 294.226C14.65 293.752 15.0539 293.388 15.5289 293.412L18.112 293.543C15.362 291.449 13.706 290.27 13.631 290.216C13.244 289.943 13.152 289.406 13.4259 289.019C13.6999 288.632 14.2359 288.541 14.6229 288.813C14.7009 288.868 16.43 290.099 19.299 292.287L18.6629 290.061C18.5329 289.604 18.7969 289.129 19.2529 288.999C19.7099 288.869 20.185 289.132 20.315 289.589L21.59 294.053C23.9119 295.86 26.711 298.093 29.824 300.679L27.687 293.198C27.557 292.741 27.821 292.266 28.277 292.136C28.734 292.006 29.2089 292.27 29.3389 292.726L32.174 302.65C33.445 303.726 34.7579 304.854 36.103 306.028L35.101 300.91C35.01 300.444 35.3049 299.984 35.7789 299.902C36.2439 299.811 36.6959 300.114 36.7869 300.58L38.2179 307.893C40.2339 309.685 42.308 311.574 44.41 313.548C44.283 310.643 43.958 305.048 43.724 301.252C43.694 300.779 44.0579 300.37 44.5289 300.341C45.0019 300.311 45.411 300.672 45.44 301.146C46.001 310.215 46.219 313.742 46.146 315.191C55.066 323.705 64.3349 333.656 71.6789 344.083C71.9519 344.471 71.859 345.007 71.471 345.28C71.39 345.337 71.303 345.378 71.212 345.404C70.871 345.502 70.489 345.38 70.273 345.073C62.984 334.724 53.774 324.842 44.911 316.386C43.3 316.425 35.596 317.043 30.765 317.454C30.292 317.494 29.876 317.143 29.836 316.67C29.796 316.198 30.1409 315.782 30.6199 315.741C37.451 315.16 41.1449 314.865 43.1839 314.75C41.1059 312.8 39.0569 310.934 37.0639 309.163L28.307 309.119C27.832 309.117 27.45 308.73 27.452 308.256C27.4539 307.782 27.839 307.397 28.315 307.401L35.1019 307.435C33.7019 306.211 32.338 305.039 31.018 303.923L20.17 302.648C19.699 302.592 19.3609 302.166 19.4169 301.695C19.4719 301.223 19.8999 300.887 20.3699 300.942L28.616 301.911C25.5499 299.366 22.792 297.167 20.505 295.388L15.441 295.131C14.967 295.104 14.603 294.7 14.627 294.226Z" fill="#528E8D"/>
<path d="M76.7209 305.048C76.7209 305.048 84.2839 312.257 90.9279 302.17C97.5719 292.083 91.9959 282.579 83.4529 276.915C74.9099 271.251 72.7039 251.217 61.6479 248.74C50.5929 246.263 54.1899 265.135 55.0579 276.392C55.9259 287.649 53.6349 297.187 56.4779 303.527C59.3219 309.866 69.6659 314.752 76.7209 305.048Z" fill="#6DA1A4"/>
<path d="M58.8809 262.078C59.1929 261.636 59.8049 261.532 60.2479 261.844L62.6569 263.549C61.2869 259.849 60.4119 257.701 60.3719 257.603C60.1659 257.103 60.4049 256.529 60.9059 256.324C61.4069 256.118 61.9789 256.358 62.1859 256.858C62.2269 256.958 63.1409 259.203 64.5679 263.064L65.3159 260.53C65.4699 260.01 66.0139 259.714 66.5339 259.867C67.0539 260.02 67.3499 260.565 67.1969 261.085L65.6969 266.167C66.8299 269.328 68.1629 273.191 69.5819 277.586L72.0959 269.07C72.2499 268.55 72.7939 268.254 73.3139 268.407C73.8339 268.56 74.1299 269.105 73.9769 269.625L70.6429 280.922C71.2099 282.735 71.7859 284.625 72.3639 286.579L74.5269 281.034C74.7239 280.529 75.2899 280.267 75.7969 280.477C76.3009 280.674 76.5509 281.242 76.3539 281.747L73.2629 289.669C74.1109 292.629 74.9549 295.716 75.7739 298.904C77.4269 296.027 80.5349 290.436 82.6289 286.634C82.8899 286.16 83.4899 285.988 83.9609 286.248C84.4349 286.509 84.6079 287.106 84.3469 287.58C79.3429 296.663 77.3969 300.196 76.4419 301.547C79.8339 315.205 82.6829 330.461 83.3869 344.999C83.4129 345.54 82.9959 346 82.4549 346.026C82.3419 346.031 82.2329 346.017 82.1299 345.987C81.7409 345.872 81.4479 345.522 81.4279 345.094C80.7289 330.665 77.8949 315.511 74.5219 301.944C72.9459 300.997 65.1429 296.883 60.2359 294.326C59.7559 294.075 59.5689 293.483 59.8199 293.003C60.0699 292.524 60.6569 292.333 61.1429 292.587C68.0819 296.203 71.8209 298.177 73.8569 299.313C73.0459 296.163 72.2119 293.112 71.3739 290.187L62.9619 284.792C62.5059 284.5 62.3729 283.893 62.6659 283.437C62.9579 282.981 63.5649 282.845 64.0209 283.141L70.5419 287.322C69.9409 285.287 69.3429 283.323 68.7529 281.44L59.0779 273.579C58.6579 273.237 58.5929 272.62 58.9349 272.2C59.2769 271.779 59.8949 271.716 60.3139 272.057L67.6679 278.032C66.2689 273.705 64.9549 269.9 63.8389 266.787L59.1159 263.443C58.6729 263.132 58.5679 262.519 58.8809 262.078Z" fill="#528E8D"/>
</g>
<path d="M288.827 325.357H323.289C324.68 325.357 326.041 324.703 326.754 323.508C327.767 321.809 327.332 319.694 325.846 318.523C307.266 303.878 312.922 261.051 314.011 253.92C314.097 253.356 313.718 252.831 313.156 252.732L307.678 251.764C307.1 251.662 306.552 252.047 306.46 252.627C305.362 259.559 300.271 297 314.623 317.584C314.658 317.634 314.623 317.701 314.562 317.701H288.827C288.248 317.701 287.778 318.171 287.778 318.75V324.307C287.778 324.888 288.248 325.357 288.827 325.357Z" fill="#5A89C6"/>
<path d="M290.436 309.19L292.969 309.614C295.559 310.048 298.01 308.3 298.444 305.709L320.002 176.946C320.436 174.356 318.688 171.905 316.097 171.471L313.564 171.047C310.974 170.613 308.523 172.362 308.089 174.952L286.531 303.715C286.098 306.305 287.846 308.756 290.436 309.19Z" fill="#5A89C6"/>
<path d="M230.476 325.357H275.788C277.925 325.357 279.658 323.624 279.658 321.487V319.211C279.658 317.074 277.926 315.341 275.788 315.341H230.476C228.339 315.341 226.606 317.073 226.606 319.211V321.487C226.606 323.625 228.338 325.357 230.476 325.357Z" fill="#5A89C6"/>
<path d="M48.494 333.706H366.424C368.969 333.706 371.032 331.643 371.032 329.098C371.032 326.553 368.969 324.49 366.424 324.49H48.494C45.9489 324.49 43.886 326.553 43.886 329.098C43.887 331.643 45.9489 333.706 48.494 333.706Z" fill="#EABC32"/>
<path d="M64.461 302.763C68.181 302.763 71.198 305.779 71.198 309.507C71.198 313.228 68.182 316.252 64.461 316.252C60.733 316.252 57.717 313.228 57.717 309.507C57.717 305.779 60.733 302.763 64.461 302.763ZM64.461 314.147C67.026 314.147 69.1 312.072 69.1 309.508C69.1 306.943 67.025 304.861 64.461 304.861C61.896 304.861 59.814 306.943 59.814 309.508C59.814 312.072 61.896 314.147 64.461 314.147Z" fill="#E5D157"/>
<path d="M68.786 304.052C68.786 304.052 68.993 322.096 84.579 324.492H88.483C104.062 322.096 104.276 304.052 104.276 304.052L86.531 305.338L68.786 304.052Z" fill="#E5D157"/>
<path d="M68.786 304.054C68.786 305.458 76.73 306.597 86.529 306.597C96.328 306.597 104.272 305.459 104.272 304.054C104.272 302.65 96.328 301.511 86.529 301.511C76.73 301.511 68.786 302.65 68.786 304.054Z" fill="#FFEB88"/>
<path d="M73.6151 304.054C73.6151 304.765 79.3971 305.341 86.5301 305.341C93.6631 305.341 99.4451 304.765 99.4451 304.054C99.4451 303.343 93.6631 302.767 86.5301 302.767C79.3971 302.767 73.6151 303.343 73.6151 304.054Z" fill="#18203D"/>
<path d="M326.282 206.321L335.331 211.588V222.704C335.331 226.356 338.294 229.318 341.953 229.318H395.893C399.545 229.318 402.515 226.355 402.515 222.704V189.939C402.515 186.287 399.545 183.317 395.893 183.317H341.953C338.294 183.317 335.331 186.287 335.331 189.939V201.047L326.282 206.321Z" fill="#FAFAFA"/>
<path d="M351.87 219.671H385.973C387.324 219.671 388.42 218.576 388.42 217.224V195.415C388.42 194.064 387.325 192.968 385.973 192.968H351.87C350.519 192.968 349.423 194.063 349.423 195.415V217.224C349.423 218.576 350.519 219.671 351.87 219.671Z" fill="#B78AF7"/>
<path d="M352.68 197.058L368.921 206.32L385.163 197.058" stroke="#FAFAFA" stroke-width="2" stroke-miterlimit="10" stroke-linecap="round" stroke-linejoin="round"/>
<path d="M290.135 108.639V141.404C290.135 145.056 293.098 148.018 296.757 148.018H318.46L323.735 157.067L329.002 148.018H350.697C354.349 148.018 357.319 145.055 357.319 141.404V108.639C357.319 104.987 354.349 102.017 350.697 102.017H296.757C293.097 102.017 290.135 104.987 290.135 108.639Z" fill="#CEB0FA"/>
<path d="M335.083 125.204C335.083 127.6 337.025 129.542 339.421 129.542C341.817 129.542 343.759 127.6 343.759 125.204C343.759 122.808 341.817 120.866 339.421 120.866C337.025 120.866 335.083 122.808 335.083 125.204Z" fill="white"/>
<path d="M319.389 125.204C319.389 127.6 321.331 129.542 323.727 129.542C326.123 129.542 328.065 127.6 328.065 125.204C328.065 122.808 326.123 120.866 323.727 120.866C321.331 120.866 319.389 122.808 319.389 125.204Z" fill="white"/>
<path d="M303.695 125.204C303.695 127.6 305.637 129.542 308.033 129.542C310.429 129.542 312.371 127.6 312.371 125.204C312.371 122.808 310.429 120.866 308.033 120.866C305.637 120.866 303.695 122.808 303.695 125.204Z" fill="white"/>
<path d="M238.673 72.3331L241.243 73.1071C241.854 73.2911 242.498 72.9451 242.682 72.3341L245.777 62.0541C245.961 61.4431 245.615 60.7991 245.004 60.6151L242.434 59.8411C241.823 59.6571 241.179 60.0031 240.996 60.6141L237.901 70.8941C237.717 71.5061 238.063 72.1501 238.673 72.3331Z" fill="#8133F1"/>
<path d="M248.726 77.5671C249.049 79.8641 249.146 82.9761 248.191 86.1471C247.235 89.3241 245.435 91.8641 243.898 93.6011C242.414 95.2691 240.09 95.8991 237.959 95.2581L235.96 94.6561L232.787 105.194C232.787 105.194 248.477 106.856 254.171 87.9471C259.863 69.0441 245.864 61.7661 245.864 61.7661L242.691 72.3051L244.69 72.9071C246.821 73.5491 248.41 75.3581 248.726 77.5671Z" fill="#8133F1"/>
<path d="M232.627 92.4141L235.197 93.1881C235.808 93.3721 236.154 94.0161 235.97 94.6261L232.875 104.906C232.691 105.517 232.047 105.862 231.436 105.679L228.866 104.905C228.255 104.721 227.909 104.077 228.093 103.467L231.188 93.1871C231.372 92.5761 232.016 92.2301 232.627 92.4141Z" fill="#8133F1"/>
<path d="M257.522 109.677L255.474 106.038C258.714 104.502 270.137 98.1701 271.42 85.1271C273.033 68.6901 263.419 59.2451 263.419 59.2451L254.394 64.3361C254.394 64.3361 263.531 72.4421 263.531 84.5731C263.531 96.0311 256.638 101.907 254.135 103.66L252.312 100.42L246.071 109.676H257.522V109.677Z" fill="#18203D"/>
<path d="M220.745 56.1501L222.793 59.7891C219.553 61.3251 208.13 67.6571 206.847 80.7001C205.234 97.1371 214.848 106.582 214.848 106.582L223.873 101.491C223.873 101.491 214.736 93.3851 214.736 81.2541C214.736 69.7961 221.629 63.9202 224.132 62.1672L225.955 65.4071L232.196 56.1511L220.745 56.1501Z" fill="#18203D"/>
<path d="M51.683 217.037V252.413C51.683 256.034 54.615 258.966 58.236 258.966H93.604C97.225 258.966 100.165 256.034 100.165 252.413V217.037C100.165 213.416 97.225 210.484 93.604 210.484H58.236C54.615 210.484 51.683 213.416 51.683 217.037Z" fill="white"/>
<path d="M69.771 235.007C66.3711 231.607 66.3711 226.094 69.771 222.695C73.1709 219.295 78.6831 219.295 82.083 222.695C85.4829 226.094 85.4829 231.607 82.083 235.007C78.6831 238.406 73.1709 238.406 69.771 235.007Z" fill="#B78AF7"/>
<path d="M61.0381 255.437V258.966H90.8101V255.437C90.8101 247.215 84.1421 240.555 75.9201 240.555C71.8091 240.555 68.0881 242.216 65.3941 244.911C62.7001 247.606 61.0381 251.326 61.0381 255.437Z" fill="#B78AF7"/>
<path d="M80.5141 180.82C79.0811 179.466 76.8231 179.53 75.4681 180.962C74.1141 182.395 74.1781 184.653 75.6101 186.008C77.0431 187.362 79.3021 187.298 80.6551 185.865C82.0101 184.433 81.9471 182.174 80.5141 180.82Z" fill="#DB9431"/>
<path d="M87.275 158.441C86.072 157.304 84.174 157.357 83.037 158.561C81.9 159.764 81.9531 161.662 83.1571 162.799C84.3601 163.936 86.258 163.883 87.395 162.679C88.532 161.475 88.478 159.578 87.275 158.441Z" fill="#447777"/>
<path d="M106.462 155.789C105.702 155.071 104.505 155.105 103.787 155.865C103.069 156.624 103.103 157.822 103.863 158.54C104.622 159.258 105.82 159.224 106.538 158.464C107.256 157.705 107.222 156.507 106.462 155.789Z" fill="#C9414E"/>
<path d="M272.37 192.074C274.242 191.456 275.259 189.438 274.641 187.566C274.023 185.694 272.005 184.677 270.133 185.295C268.261 185.913 267.244 187.931 267.862 189.803C268.48 191.675 270.498 192.692 272.37 192.074Z" fill="#DB9431"/>
<path d="M286.842 197.649C288.414 197.13 289.268 195.435 288.749 193.863C288.23 192.291 286.535 191.437 284.963 191.956C283.391 192.475 282.537 194.17 283.055 195.742C283.574 197.314 285.269 198.168 286.842 197.649Z" fill="#447777"/>
<path d="M280.296 214.055C281.288 213.728 281.827 212.658 281.5 211.665C281.173 210.672 280.102 210.134 279.11 210.461C278.118 210.789 277.579 211.859 277.906 212.851C278.234 213.844 279.304 214.383 280.296 214.055Z" fill="#C9414E"/>
</svg>
